<?xml version="1.0" encoding="UTF-8" standalone="no"?>
<!-- Created with Inkscape (http://www.inkscape.org/) -->

<svg
   xmlns:ns0="http://www.iki.fi/pav/software/textext/"
   xmlns:dc="http://purl.org/dc/elements/1.1/"
   xmlns:cc="http://creativecommons.org/ns#"
   xmlns:rdf="http://www.w3.org/1999/02/22-rdf-syntax-ns#"
   xmlns:svg="http://www.w3.org/2000/svg"
   xmlns="http://www.w3.org/2000/svg"
   xmlns:xlink="http://www.w3.org/1999/xlink"
   xmlns:sodipodi="http://sodipodi.sourceforge.net/DTD/sodipodi-0.dtd"
   xmlns:inkscape="http://www.inkscape.org/namespaces/inkscape"
   width="543.14441"
   height="178.20079"
   id="svg6608"
   version="1.1"
   inkscape:version="0.48.4 r9939"
   sodipodi:docname="convolution.svg"
   inkscape:export-filename="/home/eric/masters_presentation/img/convolution.png"
   inkscape:export-xdpi="90"
   inkscape:export-ydpi="90">
  <sodipodi:namedview
     id="base"
     pagecolor="#ffffff"
     bordercolor="#666666"
     borderopacity="1.0"
     inkscape:pageopacity="0.0"
     inkscape:pageshadow="2"
     inkscape:zoom="1.4"
     inkscape:cx="244.66995"
     inkscape:cy="112.39393"
     inkscape:document-units="px"
     inkscape:current-layer="svg6608"
     showgrid="false"
     fit-margin-top="0"
     fit-margin-left="0"
     fit-margin-right="0"
     fit-margin-bottom="0"
     inkscape:window-width="1328"
     inkscape:window-height="750"
     inkscape:window-x="38"
     inkscape:window-y="18"
     inkscape:window-maximized="1"
     showguides="true"
     inkscape:guide-bbox="true" />
  <defs
     id="defs6610">
    <clipPath
       clipPathUnits="userSpaceOnUse"
       id="presentation_clip_path">
      <rect
         id="rect3708"
         height="6700"
         width="27600"
         y="0"
         x="0" />
    </clipPath>
    <defs
       id="defs13653">
      <g
         id="g13655">
        <symbol
           id="textext-200d34f2-0"
           overflow="visible"
           style="overflow:visible">
          <path
             id="path13658"
             d=""
             style="stroke:none"
             inkscape:connector-curvature="0" />
        </symbol>
        <symbol
           id="textext-200d34f2-1"
           overflow="visible"
           style="overflow:visible">
          <path
             id="path13661"
             d="m 6.421875,-6.78125 -6.03125,0 0,0.46875 1.078125,0 0,5.84375 -1.078125,0 0,0.46875 c 0.375,-0.03125 1.390625,-0.03125 1.828125,-0.03125 0.484375,0 1.5625,0 2.015625,0.03125 l 0,-0.46875 -1.359375,0 0,-2.6875 0.5,0 c 0.96875,0 1.046875,0.421875 1.046875,1.15625 l 0.46875,0 0,-2.796875 -0.46875,0 C 4.421875,-4.0625 4.34375,-3.625 3.375,-3.625 l -0.5,0 0,-2.6875 1.40625,0 c 1.59375,0 1.828125,0.765625 1.984375,1.9375 l 0.46875,0 z"
             style="stroke:none"
             inkscape:connector-curvature="0" />
        </symbol>
        <symbol
           id="textext-200d34f2-2"
           overflow="visible"
           style="overflow:visible">
          <path
             id="path13664"
             d=""
             style="stroke:none"
             inkscape:connector-curvature="0" />
        </symbol>
        <symbol
           id="textext-200d34f2-3"
           overflow="visible"
           style="overflow:visible">
          <path
             id="path13667"
             d="M 7.609375,-6.046875 C 7.703125,-6.40625 7.71875,-6.5 8.4375,-6.5 c 0.265625,0 0.34375,0 0.34375,-0.203125 0,-0.109375 -0.109375,-0.109375 -0.140625,-0.109375 -0.28125,0 -1,0.03125 -1.28125,0.03125 -0.28125,0 -0.984375,-0.03125 -1.28125,-0.03125 -0.078125,0 -0.1875,0 -0.1875,0.203125 0,0.109375 0.09375,0.109375 0.28125,0.109375 0.015625,0 0.203125,0 0.375,0.015625 0.1875,0.03125 0.265625,0.03125 0.265625,0.171875 0,0.03125 0,0.046875 -0.03125,0.1875 l -0.59375,2.421875 -3.046875,0 0.59375,-2.34375 C 3.8125,-6.40625 3.84375,-6.5 4.5625,-6.5 c 0.265625,0 0.34375,0 0.34375,-0.203125 0,-0.109375 -0.109375,-0.109375 -0.140625,-0.109375 -0.28125,0 -1,0.03125 -1.28125,0.03125 -0.28125,0 -0.984375,-0.03125 -1.28125,-0.03125 -0.078125,0 -0.1875,0 -0.1875,0.203125 0,0.109375 0.09375,0.109375 0.28125,0.109375 0.015625,0 0.203125,0 0.375,0.015625 0.171875,0.03125 0.265625,0.03125 0.265625,0.171875 0,0.03125 0,0.0625 -0.03125,0.1875 L 1.5625,-0.78125 c -0.09375,0.390625 -0.109375,0.46875 -0.90625,0.46875 -0.171875,0 -0.265625,0 -0.265625,0.203125 C 0.390625,0 0.515625,0 0.53125,0 0.8125,0 1.515625,-0.03125 1.796875,-0.03125 2,-0.03125 2.21875,-0.015625 2.4375,-0.015625 2.65625,-0.015625 2.875,0 3.078125,0 3.15625,0 3.28125,0 3.28125,-0.203125 3.28125,-0.3125 3.1875,-0.3125 3,-0.3125 c -0.375,0 -0.640625,0 -0.640625,-0.171875 0,-0.0625 0.015625,-0.109375 0.015625,-0.171875 l 0.6875,-2.734375 3.03125,0 c -0.40625,1.65625 -0.640625,2.609375 -0.6875,2.75 C 5.3125,-0.3125 5.125,-0.3125 4.5,-0.3125 c -0.140625,0 -0.234375,0 -0.234375,0.203125 C 4.265625,0 4.390625,0 4.40625,0 4.6875,0 5.390625,-0.03125 5.671875,-0.03125 5.875,-0.03125 6.09375,-0.015625 6.3125,-0.015625 6.53125,-0.015625 6.75,0 6.953125,0 7.03125,0 7.15625,0 7.15625,-0.203125 7.15625,-0.3125 7.0625,-0.3125 6.875,-0.3125 c -0.359375,0 -0.640625,0 -0.640625,-0.171875 0,-0.0625 0.015625,-0.109375 0.03125,-0.171875 z"
             style="stroke:none"
             inkscape:connector-curvature="0" />
        </symbol>
        <symbol
           id="textext-200d34f2-4"
           overflow="visible"
           style="overflow:visible">
          <path
             id="path13670"
             d="M 4.359375,-0.0625 C 5.90625,-0.640625 7.375,-2.421875 7.375,-4.34375 c 0,-1.609375 -1.0625,-2.6875 -2.546875,-2.6875 -2.140625,0 -4.34375,2.265625 -4.34375,4.59375 0,1.65625 1.125,2.65625 2.5625,2.65625 0.25,0 0.578125,-0.046875 0.96875,-0.15625 -0.03125,0.625 -0.03125,0.640625 -0.03125,0.78125 0,0.3125 0,1.09375 0.828125,1.09375 1.171875,0 1.65625,-1.828125 1.65625,-1.9375 0,-0.0625 -0.0625,-0.09375 -0.109375,-0.09375 -0.078125,0 -0.09375,0.046875 -0.125,0.109375 C 6,0.71875 5.421875,0.96875 5.078125,0.96875 c -0.46875,0 -0.609375,-0.265625 -0.71875,-1.03125 z m -1.875,-0.078125 c -0.78125,-0.3125 -1.125,-1.078125 -1.125,-1.984375 0,-0.6875 0.265625,-2.109375 1.015625,-3.171875 C 3.109375,-6.3125 4.046875,-6.78125 4.78125,-6.78125 5.765625,-6.78125 6.5,-6 6.5,-4.671875 c 0,1 -0.515625,3.34375 -2.1875,4.265625 -0.046875,-0.34375 -0.140625,-1.0625 -0.875,-1.0625 -0.53125,0 -1.015625,0.484375 -1.015625,1.015625 0,0.1875 0.0625,0.296875 0.0625,0.3125 z M 3.09375,-0.03125 c -0.140625,0 -0.453125,0 -0.453125,-0.421875 0,-0.40625 0.375,-0.796875 0.796875,-0.796875 0.421875,0 0.609375,0.234375 0.609375,0.84375 0,0.140625 -0.015625,0.15625 -0.109375,0.203125 C 3.671875,-0.09375 3.375,-0.03125 3.09375,-0.03125 z"
             style="stroke:none"
             inkscape:connector-curvature="0" />
        </symbol>
        <symbol
           id="textext-200d34f2-5"
           overflow="visible"
           style="overflow:visible">
          <path
             id="path13673"
             d=""
             style="stroke:none"
             inkscape:connector-curvature="0" />
        </symbol>
        <symbol
           id="textext-200d34f2-6"
           overflow="visible"
           style="overflow:visible">
          <path
             id="path13676"
             d="m 2.1875,-4.625 c 0,-0.015625 0.015625,-0.109375 0.015625,-0.109375 0,-0.046875 -0.015625,-0.109375 -0.109375,-0.109375 -0.140625,0 -0.71875,0.0625 -0.890625,0.078125 -0.046875,0 -0.15625,0.015625 -0.15625,0.15625 0,0.09375 0.109375,0.09375 0.1875,0.09375 0.328125,0 0.328125,0.0625 0.328125,0.109375 0,0.046875 -0.015625,0.09375 -0.015625,0.15625 L 0.5625,-0.3125 c -0.046875,0.125 -0.046875,0.140625 -0.046875,0.15625 0,0.109375 0.09375,0.21875 0.25,0.21875 0.078125,0 0.203125,-0.03125 0.28125,-0.171875 C 1.0625,-0.15625 1.125,-0.40625 1.15625,-0.546875 l 0.171875,-0.625 C 1.34375,-1.28125 1.421875,-1.546875 1.4375,-1.640625 1.5,-1.90625 1.5,-1.921875 1.640625,-2.140625 1.875,-2.484375 2.21875,-2.875 2.765625,-2.875 c 0.390625,0 0.40625,0.3125 0.40625,0.484375 0,0.421875 -0.296875,1.1875 -0.40625,1.484375 -0.078125,0.203125 -0.109375,0.265625 -0.109375,0.375 0,0.375 0.3125,0.59375 0.65625,0.59375 0.703125,0 1.015625,-0.953125 1.015625,-1.0625 0,-0.09375 -0.09375,-0.09375 -0.125,-0.09375 -0.09375,0 -0.09375,0.046875 -0.125,0.125 -0.15625,0.5625 -0.46875,0.84375 -0.734375,0.84375 -0.15625,0 -0.1875,-0.09375 -0.1875,-0.25 0,-0.15625 0.046875,-0.25 0.171875,-0.5625 C 3.40625,-1.15625 3.6875,-1.890625 3.6875,-2.28125 c 0,-0.109375 0,-0.40625 -0.25,-0.609375 -0.125,-0.078125 -0.328125,-0.1875 -0.65625,-0.1875 -0.5,0 -0.875,0.28125 -1.125,0.578125 z"
             style="stroke:none"
             inkscape:connector-curvature="0" />
        </symbol>
        <symbol
           id="textext-200d34f2-7"
           overflow="visible"
           style="overflow:visible">
          <path
             id="path13679"
             d="m 1.640625,-1.40625 c 0,-0.046875 0.171875,-0.671875 0.171875,-0.703125 0.015625,-0.0625 0.21875,-0.40625 0.453125,-0.578125 0.0625,-0.046875 0.25,-0.1875 0.5625,-0.1875 0.0625,0 0.234375,0 0.375,0.09375 -0.21875,0.0625 -0.296875,0.265625 -0.296875,0.390625 0,0.140625 0.109375,0.25 0.265625,0.25 0.171875,0 0.390625,-0.125 0.390625,-0.421875 0,-0.359375 -0.375,-0.515625 -0.734375,-0.515625 -0.359375,0 -0.671875,0.15625 -0.984375,0.5 -0.125,-0.421875 -0.546875,-0.5 -0.71875,-0.5 -0.25,0 -0.421875,0.171875 -0.546875,0.359375 -0.15625,0.265625 -0.25,0.671875 -0.25,0.71875 0,0.078125 0.09375,0.078125 0.125,0.078125 0.09375,0 0.09375,-0.015625 0.140625,-0.203125 0.109375,-0.421875 0.25,-0.75 0.515625,-0.75 0.1875,0 0.234375,0.15625 0.234375,0.34375 0,0.125 -0.0625,0.390625 -0.125,0.578125 -0.046875,0.1875 -0.109375,0.46875 -0.140625,0.625 L 0.84375,-0.4375 C 0.828125,-0.34375 0.78125,-0.171875 0.78125,-0.15625 0.78125,0 0.90625,0.0625 1.015625,0.0625 1.125,0.0625 1.265625,0 1.3125,-0.125 1.328125,-0.171875 1.40625,-0.484375 1.453125,-0.65625 z"
             style="stroke:none"
             inkscape:connector-curvature="0" />
        </symbol>
        <symbol
           id="textext-200d34f2-8"
           overflow="visible"
           style="overflow:visible">
          <path
             id="path13682"
             d=""
             style="stroke:none"
             inkscape:connector-curvature="0" />
        </symbol>
        <symbol
           id="textext-200d34f2-9"
           overflow="visible"
           style="overflow:visible">
          <path
             id="path13685"
             d="m 1.90625,-3.765625 c 0,-0.296875 -0.234375,-0.53125 -0.515625,-0.53125 -0.296875,0 -0.53125,0.234375 -0.53125,0.53125 0,0.28125 0.234375,0.53125 0.53125,0.53125 0.28125,0 0.515625,-0.25 0.515625,-0.53125 z m -0.1875,3.65625 c 0,0.28125 0,1.0625 -0.625,1.796875 -0.078125,0.078125 -0.078125,0.09375 -0.078125,0.125 0,0.078125 0.046875,0.109375 0.09375,0.109375 0.109375,0 0.828125,-0.796875 0.828125,-1.953125 0,-0.28125 -0.015625,-1.03125 -0.546875,-1.03125 -0.359375,0 -0.53125,0.28125 -0.53125,0.53125 C 0.859375,-0.265625 1.03125,0 1.390625,0 1.4375,0 1.453125,0 1.46875,-0.015625 c 0.0625,0 0.171875,-0.03125 0.25,-0.09375 z"
             style="stroke:none"
             inkscape:connector-curvature="0" />
        </symbol>
      </g>
    </defs>
    <filter
       id="filter13960"
       inkscape:label="Invert"
       x="0"
       y="0"
       width="1"
       height="1"
       inkscape:menu="Color"
       inkscape:menu-tooltip="Invert colors"
       color-interpolation-filters="sRGB">
      <feColorMatrix
         id="feColorMatrix13962"
         type="saturate"
         values="1"
         result="fbSourceGraphic" />
      <feColorMatrix
         id="feColorMatrix13964"
         in="fbSourceGraphic"
         values="-1 0 0 0 1 0 -1 0 0 1 0 0 -1 0 1 0 0 0 1 0 " />
    </filter>
    <filter
       id="filter13966"
       inkscape:label="Invert"
       x="0"
       y="0"
       width="1"
       height="1"
       inkscape:menu="Color"
       inkscape:menu-tooltip="Invert colors"
       color-interpolation-filters="sRGB">
      <feColorMatrix
         id="feColorMatrix13968"
         type="saturate"
         values="1"
         result="fbSourceGraphic" />
      <feColorMatrix
         id="feColorMatrix13970"
         in="fbSourceGraphic"
         values="-1 0 0 0 1 0 -1 0 0 1 0 0 -1 0 1 0 0 0 1 0 " />
    </filter>
    <filter
       id="filter13972"
       inkscape:label="Invert"
       x="0"
       y="0"
       width="1"
       height="1"
       inkscape:menu="Color"
       inkscape:menu-tooltip="Invert colors"
       color-interpolation-filters="sRGB">
      <feColorMatrix
         id="feColorMatrix13974"
         type="saturate"
         values="1"
         result="fbSourceGraphic" />
      <feColorMatrix
         id="feColorMatrix13976"
         in="fbSourceGraphic"
         values="-1 0 0 0 1 0 -1 0 0 1 0 0 -1 0 1 0 0 0 1 0 " />
    </filter>
    <filter
       id="filter13978"
       inkscape:label="Invert"
       x="0"
       y="0"
       width="1"
       height="1"
       inkscape:menu="Color"
       inkscape:menu-tooltip="Invert colors"
       color-interpolation-filters="sRGB">
      <feColorMatrix
         id="feColorMatrix13980"
         type="saturate"
         values="1"
         result="fbSourceGraphic" />
      <feColorMatrix
         id="feColorMatrix13982"
         in="fbSourceGraphic"
         values="-1 0 0 0 1 0 -1 0 0 1 0 0 -1 0 1 0 0 0 1 0 " />
    </filter>
    <filter
       id="filter13984"
       inkscape:label="Invert"
       x="0"
       y="0"
       width="1"
       height="1"
       inkscape:menu="Color"
       inkscape:menu-tooltip="Invert colors"
       color-interpolation-filters="sRGB">
      <feColorMatrix
         id="feColorMatrix13986"
         type="saturate"
         values="1"
         result="fbSourceGraphic" />
      <feColorMatrix
         id="feColorMatrix13988"
         in="fbSourceGraphic"
         values="-1 0 0 0 1 0 -1 0 0 1 0 0 -1 0 1 0 0 0 1 0 " />
    </filter>
    <filter
       id="filter13990"
       inkscape:label="Invert"
       x="0"
       y="0"
       width="1"
       height="1"
       inkscape:menu="Color"
       inkscape:menu-tooltip="Invert colors"
       color-interpolation-filters="sRGB">
      <feColorMatrix
         id="feColorMatrix13992"
         type="saturate"
         values="1"
         result="fbSourceGraphic" />
      <feColorMatrix
         id="feColorMatrix13994"
         in="fbSourceGraphic"
         values="-1 0 0 0 1 0 -1 0 0 1 0 0 -1 0 1 0 0 0 1 0 " />
    </filter>
    <filter
       id="filter13996"
       inkscape:label="Invert"
       x="0"
       y="0"
       width="1"
       height="1"
       inkscape:menu="Color"
       inkscape:menu-tooltip="Invert colors"
       color-interpolation-filters="sRGB">
      <feColorMatrix
         id="feColorMatrix13998"
         type="saturate"
         values="1"
         result="fbSourceGraphic" />
      <feColorMatrix
         id="feColorMatrix14000"
         in="fbSourceGraphic"
         values="-1 0 0 0 1 0 -1 0 0 1 0 0 -1 0 1 0 0 0 1 0 " />
    </filter>
    <filter
       id="filter14002"
       inkscape:label="Invert"
       x="0"
       y="0"
       width="1"
       height="1"
       inkscape:menu="Color"
       inkscape:menu-tooltip="Invert colors"
       color-interpolation-filters="sRGB">
      <feColorMatrix
         id="feColorMatrix14004"
         type="saturate"
         values="1"
         result="fbSourceGraphic" />
      <feColorMatrix
         id="feColorMatrix14006"
         in="fbSourceGraphic"
         values="-1 0 0 0 1 0 -1 0 0 1 0 0 -1 0 1 0 0 0 1 0 " />
    </filter>
    <filter
       id="filter14008"
       inkscape:label="Invert"
       x="0"
       y="0"
       width="1"
       height="1"
       inkscape:menu="Color"
       inkscape:menu-tooltip="Invert colors"
       color-interpolation-filters="sRGB">
      <feColorMatrix
         id="feColorMatrix14010"
         type="saturate"
         values="1"
         result="fbSourceGraphic" />
      <feColorMatrix
         id="feColorMatrix14012"
         in="fbSourceGraphic"
         values="-1 0 0 0 1 0 -1 0 0 1 0 0 -1 0 1 0 0 0 1 0 " />
    </filter>
    <filter
       id="filter14014"
       inkscape:label="Invert"
       x="0"
       y="0"
       width="1"
       height="1"
       inkscape:menu="Color"
       inkscape:menu-tooltip="Invert colors"
       color-interpolation-filters="sRGB">
      <feColorMatrix
         id="feColorMatrix14016"
         type="saturate"
         values="1"
         result="fbSourceGraphic" />
      <feColorMatrix
         id="feColorMatrix14018"
         in="fbSourceGraphic"
         values="-1 0 0 0 1 0 -1 0 0 1 0 0 -1 0 1 0 0 0 1 0 " />
    </filter>
    <filter
       id="filter14020"
       inkscape:label="Invert"
       x="0"
       y="0"
       width="1"
       height="1"
       inkscape:menu="Color"
       inkscape:menu-tooltip="Invert colors"
       color-interpolation-filters="sRGB">
      <feColorMatrix
         id="feColorMatrix14022"
         type="saturate"
         values="1"
         result="fbSourceGraphic" />
      <feColorMatrix
         id="feColorMatrix14024"
         in="fbSourceGraphic"
         values="-1 0 0 0 1 0 -1 0 0 1 0 0 -1 0 1 0 0 0 1 0 " />
    </filter>
    <filter
       id="filter14026"
       inkscape:label="Invert"
       x="0"
       y="0"
       width="1"
       height="1"
       inkscape:menu="Color"
       inkscape:menu-tooltip="Invert colors"
       color-interpolation-filters="sRGB">
      <feColorMatrix
         id="feColorMatrix14028"
         type="saturate"
         values="1"
         result="fbSourceGraphic" />
      <feColorMatrix
         id="feColorMatrix14030"
         in="fbSourceGraphic"
         values="-1 0 0 0 1 0 -1 0 0 1 0 0 -1 0 1 0 0 0 1 0 " />
    </filter>
    <filter
       id="filter14032"
       inkscape:label="Invert"
       x="0"
       y="0"
       width="1"
       height="1"
       inkscape:menu="Color"
       inkscape:menu-tooltip="Invert colors"
       color-interpolation-filters="sRGB">
      <feColorMatrix
         id="feColorMatrix14034"
         type="saturate"
         values="1"
         result="fbSourceGraphic" />
      <feColorMatrix
         id="feColorMatrix14036"
         in="fbSourceGraphic"
         values="-1 0 0 0 1 0 -1 0 0 1 0 0 -1 0 1 0 0 0 1 0 " />
    </filter>
    <filter
       id="filter14038"
       inkscape:label="Invert"
       x="0"
       y="0"
       width="1"
       height="1"
       inkscape:menu="Color"
       inkscape:menu-tooltip="Invert colors"
       color-interpolation-filters="sRGB">
      <feColorMatrix
         id="feColorMatrix14040"
         type="saturate"
         values="1"
         result="fbSourceGraphic" />
      <feColorMatrix
         id="feColorMatrix14042"
         in="fbSourceGraphic"
         values="-1 0 0 0 1 0 -1 0 0 1 0 0 -1 0 1 0 0 0 1 0 " />
    </filter>
    <filter
       id="filter14044"
       inkscape:label="Invert"
       x="0"
       y="0"
       width="1"
       height="1"
       inkscape:menu="Color"
       inkscape:menu-tooltip="Invert colors"
       color-interpolation-filters="sRGB">
      <feColorMatrix
         id="feColorMatrix14046"
         type="saturate"
         values="1"
         result="fbSourceGraphic" />
      <feColorMatrix
         id="feColorMatrix14048"
         in="fbSourceGraphic"
         values="-1 0 0 0 1 0 -1 0 0 1 0 0 -1 0 1 0 0 0 1 0 " />
    </filter>
    <filter
       id="filter14050"
       inkscape:label="Invert"
       x="0"
       y="0"
       width="1"
       height="1"
       inkscape:menu="Color"
       inkscape:menu-tooltip="Invert colors"
       color-interpolation-filters="sRGB">
      <feColorMatrix
         id="feColorMatrix14052"
         type="saturate"
         values="1"
         result="fbSourceGraphic" />
      <feColorMatrix
         id="feColorMatrix14054"
         in="fbSourceGraphic"
         values="-1 0 0 0 1 0 -1 0 0 1 0 0 -1 0 1 0 0 0 1 0 " />
    </filter>
  </defs>
  <metadata
     id="metadata6613">
    <rdf:RDF>
      <cc:Work
         rdf:about="">
        <dc:format>image/svg+xml</dc:format>
        <dc:type
           rdf:resource="http://purl.org/dc/dcmitype/StillImage" />
        <dc:title></dc:title>
      </cc:Work>
    </rdf:RDF>
  </metadata>
  <g
     transform="translate(65.90998,-85.491881)"
     id="layer1"
     inkscape:groupmode="layer"
     inkscape:label="Layer 1">
    <g
       transform="matrix(0.03543307,0,0,0.03543307,-90.213129,43.472197)"
       style="fill:#808080;stroke-width:28.22222328000000147;stroke-miterlimit:4;stroke-dasharray:none;filter:url(#filter14050)"
       id="g3791"
       class="com.sun.star.drawing.CustomShape">
      <g
         style="fill:#808080;stroke-width:28.22222328;stroke-miterlimit:4;stroke-dasharray:none"
         id="id5">
        <path
           id="path3794"
           d="m 7533,2700 c -167,0 -333,166 -333,333 l 0,1334 c 0,167 166,334 333,334 l 2834,0 c 167,0 334,-167 334,-334 l 0,-1334 c 0,-167 -167,-333 -334,-333 l -2834,0 z"
           inkscape:connector-curvature="0"
           style="fill:#808080;stroke:#000000;stroke-width:28.22222328;stroke-miterlimit:4;stroke-dasharray:none" />
        <path
           id="path3796"
           d="m 7200,2700 0,0 z"
           inkscape:connector-curvature="0"
           style="fill:#808080;stroke:#000000;stroke-width:28.22222328;stroke-miterlimit:4;stroke-dasharray:none" />
        <path
           id="path3798"
           d="m 10701,4701 0,0 z"
           inkscape:connector-curvature="0"
           style="fill:#808080;stroke:#000000;stroke-width:28.22222328;stroke-miterlimit:4;stroke-dasharray:none" />
      </g>
    </g>
    <g
       transform="matrix(0.03543307,0,0,0.03543307,-90.213129,43.472197)"
       style="fill:#cccccc;stroke-width:28.22222328000000147;stroke-miterlimit:4;stroke-dasharray:none;filter:url(#filter14044)"
       id="g3757"
       class="com.sun.star.drawing.CustomShape">
      <g
         style="fill:#cccccc;stroke-width:28.22222328;stroke-miterlimit:4;stroke-dasharray:none"
         id="id3">
        <path
           id="path3760"
           d="m 2033,1200 c -167,0 -333,166 -333,333 l 0,1334 c 0,167 166,334 333,334 l 2834,0 c 167,0 334,-167 334,-334 l 0,-1334 c 0,-167 -167,-333 -334,-333 l -2834,0 z"
           inkscape:connector-curvature="0"
           style="fill:#cccccc;stroke:#000000;stroke-width:28.22222328;stroke-miterlimit:4;stroke-dasharray:none" />
        <path
           id="path3762"
           d="m 1700,1200 0,0 z"
           inkscape:connector-curvature="0"
           style="fill:#cccccc;stroke:#000000;stroke-width:28.22222328;stroke-miterlimit:4;stroke-dasharray:none" />
        <path
           id="path3764"
           d="m 5201,3201 0,0 z"
           inkscape:connector-curvature="0"
           style="fill:#cccccc;stroke:#000000;stroke-width:28.22222328;stroke-miterlimit:4;stroke-dasharray:none" />
      </g>
    </g>
    <g
       transform="matrix(0.03543307,0,0,0.03543307,-90.213129,43.472197)"
       style="fill:#cccccc;stroke-width:28.22222328000000147;stroke-miterlimit:4;stroke-dasharray:none;filter:url(#filter14038)"
       id="g3774"
       class="com.sun.star.drawing.CustomShape">
      <g
         style="fill:#cccccc;stroke-width:28.22222328;stroke-miterlimit:4;stroke-dasharray:none"
         id="id4">
        <path
           id="path3777"
           d="m 2033,4200 c -167,0 -333,166 -333,333 l 0,1334 c 0,167 166,334 333,334 l 2834,0 c 167,0 334,-167 334,-334 l 0,-1334 c 0,-167 -167,-333 -334,-333 l -2834,0 z"
           inkscape:connector-curvature="0"
           style="fill:#cccccc;stroke:#000000;stroke-width:28.22222328;stroke-miterlimit:4;stroke-dasharray:none" />
        <path
           id="path3779"
           d="m 1700,4200 0,0 z"
           inkscape:connector-curvature="0"
           style="fill:#cccccc;stroke:#000000;stroke-width:28.22222328;stroke-miterlimit:4;stroke-dasharray:none" />
        <path
           id="path3781"
           d="m 5201,6201 0,0 z"
           inkscape:connector-curvature="0"
           style="fill:#cccccc;stroke:#000000;stroke-width:28.22222328;stroke-miterlimit:4;stroke-dasharray:none" />
      </g>
    </g>
    <g
       transform="matrix(0.03543307,0,0,0.03543307,-90.213129,43.472197)"
       style="stroke-width:28.22222328000000147;stroke-miterlimit:4;stroke-dasharray:none;filter:url(#filter14032)"
       id="g3869"
       class="com.sun.star.drawing.LineShape">
      <g
         style="stroke-width:28.22222328;stroke-miterlimit:4;stroke-dasharray:none"
         id="id11">
        <path
           id="path3872"
           d="m 5200,2200 1615,808"
           inkscape:connector-curvature="0"
           style="fill:none;stroke:#000000;stroke-width:28.22222328;stroke-miterlimit:4;stroke-dasharray:none" />
        <path
           id="path3874"
           d="m 7200,3200 -335,-335 -135,268 470,67 z"
           inkscape:connector-curvature="0"
           style="fill:#000000;stroke:none" />
      </g>
    </g>
    <g
       transform="matrix(0.03543307,0,0,0.03543307,-90.213129,43.472197)"
       style="stroke-width:28.22222328000000147;stroke-miterlimit:4;stroke-dasharray:none;filter:url(#filter14026)"
       id="g3876"
       class="com.sun.star.drawing.LineShape">
      <g
         style="stroke-width:28.22222328;stroke-miterlimit:4;stroke-dasharray:none"
         id="id12">
        <path
           id="path3879"
           d="M 5200,5200 6815,4392"
           inkscape:connector-curvature="0"
           style="fill:none;stroke:#000000;stroke-width:28.22222328;stroke-miterlimit:4;stroke-dasharray:none" />
        <path
           id="path3881"
           d="m 7200,4200 -470,67 135,268 335,-335 z"
           inkscape:connector-curvature="0"
           style="fill:#000000;stroke:none" />
      </g>
    </g>
    <g
       transform="matrix(0.03543307,0,0,0.03543307,-90.213129,43.472197)"
       style="stroke-width:28.22222328;stroke-miterlimit:4;stroke-dasharray:none"
       id="g4289"
       class="OLE2">
      <g
         style="stroke-width:28.22222328;stroke-miterlimit:4;stroke-dasharray:none"
         id="id25">
        <tspan
           style="stroke-width:28.22222328;stroke-miterlimit:4;stroke-dasharray:none"
           id="tspan4292"
           y="2354"
           x="232"
           class="TextPosition">
          <tspan
             id="tspan4294"
             font-style="italic"
             font-size="635px"
             style="font-size:635px;font-style:italic;fill:#3a3935;stroke:none;font-family:'Liberation Serif, serif'">S</tspan>
        </tspan>
      </g>
    </g>
    <g
       transform="matrix(0.03543307,0,0,0.03543307,-90.213129,43.472197)"
       style="stroke-width:28.22222328;stroke-miterlimit:4;stroke-dasharray:none"
       id="g4296"
       class="OLE2">
      <g
         style="stroke-width:28.22222328;stroke-miterlimit:4;stroke-dasharray:none"
         id="id26">
        <tspan
           style="stroke-width:28.22222328;stroke-miterlimit:4;stroke-dasharray:none"
           id="tspan4299"
           y="5354"
           x="204"
           class="TextPosition">
          <tspan
             id="tspan4301"
             font-style="italic"
             font-size="635px"
             style="font-size:635px;font-style:italic;fill:#3a3935;stroke:none;font-family:'Liberation Serif, serif'">R</tspan>
        </tspan>
      </g>
    </g>
    <g
       transform="matrix(0.03543307,0,0,0.03543307,-90.213129,43.472197)"
       style="stroke-width:28.22222328;stroke-miterlimit:4;stroke-dasharray:none"
       id="g4303"
       class="OLE2">
      <g
         style="stroke-width:28.22222328;stroke-miterlimit:4;stroke-dasharray:none"
         id="id27">
        <tspan
           style="stroke-width:28.22222328;stroke-miterlimit:4;stroke-dasharray:none"
           id="tspan4306"
           y="2457"
           class="TextPosition">
          <tspan
             id="tspan4308"
             font-style="italic"
             font-size="635px"
             style="font-size:635px;font-style:italic;fill:#3a3935;stroke:none;font-family:'Liberation Serif, serif'">S</tspan>
        </tspan>
      </g>
    </g>
    <g
       transform="matrix(0.03543307,0,0,0.03543307,-90.213129,43.472197)"
       style="stroke-width:28.22222328;stroke-miterlimit:4;stroke-dasharray:none"
       id="g4310"
       class="OLE2">
      <g
         style="stroke-width:28.22222328;stroke-miterlimit:4;stroke-dasharray:none"
         id="id28">
        <tspan
           style="stroke-width:28.22222328;stroke-miterlimit:4;stroke-dasharray:none"
           id="tspan4313"
           y="4557"
           class="TextPosition">
          <tspan
             id="tspan4315"
             font-style="italic"
             font-size="635px"
             style="font-size:635px;font-style:italic;fill:#3a3935;stroke:none;font-family:'Liberation Serif, serif'">S</tspan>
          <tspan
             id="tspan4317"
             font-style="italic"
             font-size="635px"
             style="font-size:635px;font-style:italic;fill:#3a3935;stroke:none;font-family:'Liberation Serif, serif'">⊛</tspan>
          <rect
             style="stroke-width:28.22222291;stroke-miterlimit:4;stroke-dasharray:none"
             id="rect4319"
             height="21"
             width="387"
             y="4054"
             x="12019"
             stroke="none"
             fill="rgb(58,57,53)" />
          <tspan
             id="tspan4321"
             font-style="italic"
             font-size="635px"
             style="font-size:635px;font-style:italic;fill:#3a3935;stroke:none;font-family:'Liberation Serif, serif'">R</tspan>
        </tspan>
      </g>
    </g>
    <g
       transform="matrix(0.03543307,0,0,0.03543307,-90.213129,43.472197)"
       style="stroke-width:28.22222328;stroke-miterlimit:4;stroke-dasharray:none"
       id="g4323"
       class="OLE2">
      <g
         style="stroke-width:28.22222328;stroke-miterlimit:4;stroke-dasharray:none"
         id="id29">
        <tspan
           style="stroke-width:28.22222328;stroke-miterlimit:4;stroke-dasharray:none"
           id="tspan4326"
           y="3756"
           class="TextPosition">
          <tspan
             id="tspan4328"
             font-style="italic"
             font-size="635px"
             style="font-size:635px;font-style:italic;fill:#3a3935;stroke:none;font-family:'Liberation Serif, serif'">T</tspan>
        </tspan>
      </g>
    </g>
    <g
       transform="matrix(0.03543307,0,0,0.03543307,-90.213129,43.472197)"
       style="stroke-width:28.22222328000000147;stroke-miterlimit:4;stroke-dasharray:none;filter:url(#filter14020)"
       id="g4330"
       class="com.sun.star.drawing.LineShape">
      <g
         style="stroke-width:28.22222328;stroke-miterlimit:4;stroke-dasharray:none"
         id="id30">
        <path
           id="path4333"
           d="m 700,5200 570,0"
           inkscape:connector-curvature="0"
           style="fill:none;stroke:#000000;stroke-width:28.22222328;stroke-miterlimit:4;stroke-dasharray:none" />
        <path
           id="path4335"
           d="m 1700,5200 -450,-150 0,300 450,-150 z"
           inkscape:connector-curvature="0"
           style="fill:#000000;stroke:none" />
      </g>
    </g>
    <g
       transform="matrix(0.03543307,0,0,0.03543307,-90.213129,43.472197)"
       style="stroke-width:28.22222328000000147;stroke-miterlimit:4;stroke-dasharray:none;filter:url(#filter14014)"
       id="g4337"
       class="com.sun.star.drawing.LineShape">
      <g
         style="stroke-width:28.22222328;stroke-miterlimit:4;stroke-dasharray:none"
         id="id31">
        <path
           id="path4340"
           d="m 700,2200 570,0"
           inkscape:connector-curvature="0"
           style="fill:none;stroke:#000000;stroke-width:28.22222328;stroke-miterlimit:4;stroke-dasharray:none" />
        <path
           id="path4342"
           d="m 1700,2200 -450,-150 0,300 450,-150 z"
           inkscape:connector-curvature="0"
           style="fill:#000000;stroke:none" />
      </g>
    </g>
    <g
       transform="matrix(0.03543307,0,0,0.03543307,-90.213129,43.472197)"
       style="stroke-width:28.22222328;stroke-miterlimit:4;stroke-dasharray:none"
       id="g4344"
       class="OLE2">
      <g
         style="stroke-width:28.22222328;stroke-miterlimit:4;stroke-dasharray:none"
         id="id32">
        <tspan
           style="stroke-width:28.22222328;stroke-miterlimit:4;stroke-dasharray:none"
           id="tspan4347"
           y="1956"
           class="TextPosition">
          <tspan
             id="tspan4349"
             font-style="italic"
             font-size="635px"
             style="font-size:635px;font-style:italic;fill:#3a3935;stroke:none;font-family:'Liberation Serif, serif'">S</tspan>
          <tspan
             id="tspan4351"
             font-style="italic"
             font-size="635px"
             style="font-size:635px;font-style:italic;fill:#3a3935;stroke:none;font-family:'Liberation Serif, serif'">⊛</tspan>
          <rect
             style="stroke-width:28.22222291;stroke-miterlimit:4;stroke-dasharray:none"
             id="rect4353"
             height="21"
             width="387"
             y="1453"
             x="17117"
             stroke="none"
             fill="rgb(58,57,53)" />
          <tspan
             id="tspan4355"
             font-style="italic"
             font-size="635px"
             style="font-size:635px;font-style:italic;fill:#3a3935;stroke:none;font-family:'Liberation Serif, serif'">R</tspan>
        </tspan>
      </g>
    </g>
    <g
       transform="matrix(0.03779312,0,0,0.03543307,-128.00965,43.472197)"
       style="fill:#cccccc;stroke-width:28.22222328000000147;stroke-miterlimit:4;stroke-dasharray:none;filter:url(#filter14008)"
       id="g3808"
       class="com.sun.star.drawing.CustomShape">
      <g
         style="fill:#cccccc;stroke-width:28.22222328;stroke-miterlimit:4;stroke-dasharray:none"
         id="id6">
        <path
           id="path3811"
           d="m 13033,2700 c -167,0 -333,166 -333,333 l 0,1334 c 0,167 166,334 333,334 l 2634,0 c 167,0 334,-167 334,-334 l 0,-1334 c 0,-167 -167,-333 -334,-333 l -2634,0 z"
           inkscape:connector-curvature="0"
           style="fill:#cccccc;stroke:#000000;stroke-width:28.22222328;stroke-miterlimit:4;stroke-dasharray:none" />
        <path
           id="path3813"
           d="m 12700,2700 0,0 z"
           inkscape:connector-curvature="0"
           style="fill:#cccccc;stroke:#000000;stroke-width:28.22222328;stroke-miterlimit:4;stroke-dasharray:none" />
        <path
           id="path3815"
           d="m 16001,4701 0,0 z"
           inkscape:connector-curvature="0"
           style="fill:#cccccc;stroke:#000000;stroke-width:28.22222328;stroke-miterlimit:4;stroke-dasharray:none" />
        <g
           style="fill:#cccccc;stroke-width:28.22222328;stroke-miterlimit:4;stroke-dasharray:none"
           id="g4536">
          <g
             style="fill:#cccccc;stroke-width:28.22222328;stroke-miterlimit:4;stroke-dasharray:none"
             transform="translate(585.65259,-183.95251)"
             id="g4547" />
        </g>
      </g>
    </g>
    <g
       transform="matrix(0.03153202,0,0,0.03543307,-48.52697,43.472197)"
       style="stroke-width:28.22222328000000147;stroke-miterlimit:4;stroke-dasharray:none;filter:url(#filter14002)"
       id="g3883"
       class="com.sun.star.drawing.LineShape">
      <g
         style="stroke-width:28.22222328;stroke-miterlimit:4;stroke-dasharray:none"
         id="id13">
        <path
           id="path3886"
           d="m 10700,3700 1570,0"
           inkscape:connector-curvature="0"
           style="fill:none;stroke:#000000;stroke-width:28.22222328;stroke-miterlimit:4;stroke-dasharray:none" />
        <path
           id="path3888"
           d="m 12700,3700 -450,-150 0,300 450,-150 z"
           inkscape:connector-curvature="0"
           style="fill:#000000;stroke:none" />
      </g>
    </g>
    <g
       style="stroke-width:28.22222328;stroke-miterlimit:4;stroke-dasharray:none"
       transform="matrix(0.03543307,0,0,0.03543307,-83.493147,135.11021)"
       id="g4515" />
    <g
       id="g19181"
       ns0:preamble="/home/e2crawfo/cogsci-journal/preamble.tex"
       ns0:text="$H$"
       transform="matrix(3.4687417,0,0,3.4687417,-758.88667,-334.2069)">
      <defs
         id="defs19183">
        <g
           id="g19185">
          <symbol
             id="textext-ab8976f6-0"
             overflow="visible"
             style="overflow:visible">
            <path
               id="path19188"
               d=""
               style="stroke:none"
               inkscape:connector-curvature="0" />
          </symbol>
          <symbol
             id="textext-ab8976f6-1"
             overflow="visible"
             style="overflow:visible">
            <path
               id="path19191"
               d="M 7.609375,-6.046875 C 7.703125,-6.40625 7.71875,-6.5 8.4375,-6.5 c 0.265625,0 0.34375,0 0.34375,-0.203125 0,-0.109375 -0.109375,-0.109375 -0.140625,-0.109375 -0.28125,0 -1,0.03125 -1.28125,0.03125 -0.28125,0 -0.984375,-0.03125 -1.28125,-0.03125 -0.078125,0 -0.1875,0 -0.1875,0.203125 0,0.109375 0.09375,0.109375 0.28125,0.109375 0.015625,0 0.203125,0 0.375,0.015625 0.1875,0.03125 0.265625,0.03125 0.265625,0.171875 0,0.03125 0,0.046875 -0.03125,0.1875 l -0.59375,2.421875 -3.046875,0 0.59375,-2.34375 C 3.8125,-6.40625 3.84375,-6.5 4.5625,-6.5 c 0.265625,0 0.34375,0 0.34375,-0.203125 0,-0.109375 -0.109375,-0.109375 -0.140625,-0.109375 -0.28125,0 -1,0.03125 -1.28125,0.03125 -0.28125,0 -0.984375,-0.03125 -1.28125,-0.03125 -0.078125,0 -0.1875,0 -0.1875,0.203125 0,0.109375 0.09375,0.109375 0.28125,0.109375 0.015625,0 0.203125,0 0.375,0.015625 0.171875,0.03125 0.265625,0.03125 0.265625,0.171875 0,0.03125 0,0.0625 -0.03125,0.1875 L 1.5625,-0.78125 c -0.09375,0.390625 -0.109375,0.46875 -0.90625,0.46875 -0.171875,0 -0.265625,0 -0.265625,0.203125 C 0.390625,0 0.515625,0 0.53125,0 0.8125,0 1.515625,-0.03125 1.796875,-0.03125 2,-0.03125 2.21875,-0.015625 2.4375,-0.015625 2.65625,-0.015625 2.875,0 3.078125,0 3.15625,0 3.28125,0 3.28125,-0.203125 3.28125,-0.3125 3.1875,-0.3125 3,-0.3125 c -0.375,0 -0.640625,0 -0.640625,-0.171875 0,-0.0625 0.015625,-0.109375 0.015625,-0.171875 l 0.6875,-2.734375 3.03125,0 c -0.40625,1.65625 -0.640625,2.609375 -0.6875,2.75 C 5.3125,-0.3125 5.125,-0.3125 4.5,-0.3125 c -0.140625,0 -0.234375,0 -0.234375,0.203125 C 4.265625,0 4.390625,0 4.40625,0 4.6875,0 5.390625,-0.03125 5.671875,-0.03125 5.875,-0.03125 6.09375,-0.015625 6.3125,-0.015625 6.53125,-0.015625 6.75,0 6.953125,0 7.03125,0 7.15625,0 7.15625,-0.203125 7.15625,-0.3125 7.0625,-0.3125 6.875,-0.3125 c -0.359375,0 -0.640625,0 -0.640625,-0.171875 0,-0.0625 0.015625,-0.109375 0.03125,-0.171875 z"
               style="stroke:none"
               inkscape:connector-curvature="0" />
          </symbol>
        </g>
      </defs>
      <g
         id="textext-ab8976f6-2">
        <g
           id="g19194"
           style="fill:#000000;fill-opacity:1" />
      </g>
    </g>
    <g
       style="font-style:normal;font-variant:normal;font-weight:normal;font-stretch:normal;letter-spacing:normal;word-spacing:normal;text-anchor:start;fill:none;stroke:#000000;stroke-linecap:butt;stroke-linejoin:miter;stroke-miterlimit:10.43299960999999954;stroke-opacity:1;stroke-dasharray:none;stroke-dashoffset:0;filter:url(#filter13996)"
       id="g8342"
       transform="matrix(3.081475,0,0,-3.081475,-311.4701,2205.7157)"
       xml:space="preserve"
       stroke-miterlimit="10.433"
       font-style="normal"
       font-variant="normal"
       font-weight="normal"
       font-stretch="normal"
       font-size-adjust="none"
       letter-spacing="normal"
       word-spacing="normal"
       ns0:text="$\\mathbf{x} \\circledast \\mathbf{y}$"
       ns0:preamble="/home/eric/.config/inkscape/extensions/preamble.tex"><path
         style="fill:#000000;stroke-width:0"
         inkscape:connector-curvature="0"
         d="m 226.87,659.68 1.17,1.29 c 0.13,0.14 0.19,0.21 1.01,0.21 v 0.47 c -0.34,-0.02 -0.86,-0.03 -0.91,-0.03 -0.25,0 -0.75,0.02 -1.03,0.03 v -0.47 c 0.14,0 0.26,-0.02 0.38,-0.09 -0.04,-0.06 -0.04,-0.08 -0.08,-0.12 l -0.83,-0.93 -0.98,1.14 h 0.4 v 0.47 c -0.26,-0.01 -0.89,-0.03 -1.21,-0.03 -0.31,0 -0.76,0.02 -1.09,0.03 v -0.47 h 0.71 l 1.55,-1.83 -1.3,-1.46 c -0.17,-0.19 -0.53,-0.19 -1.01,-0.19 v -0.47 c 0.35,0.03 0.87,0.04 0.92,0.04 0.25,0 0.82,-0.03 1.02,-0.04 v 0.47 c -0.18,0 -0.37,0.05 -0.37,0.11 0,0.01 0,0.02 0.07,0.1 l 0.97,1.08 1.09,-1.29 h -0.39 v -0.47 c 0.26,0.01 0.87,0.04 1.2,0.04 0.32,0 0.76,-0.03 1.09,-0.04 v 0.47 h -0.7 z"
         id="path8344" /><path
         style="fill:#000000;stroke-width:0"
         inkscape:connector-curvature="0"
         d="m 238.88,659.72 -0.01,0.17 -0.01,0.17 -0.02,0.16 -0.03,0.16 -0.04,0.17 -0.04,0.15 -0.06,0.16 -0.06,0.15 -0.06,0.14 -0.08,0.15 -0.08,0.13 -0.08,0.14 -0.09,0.13 -0.1,0.12 -0.11,0.12 -0.11,0.12 -0.11,0.11 -0.12,0.1 -0.13,0.1 -0.13,0.09 -0.13,0.09 -0.14,0.08 -0.14,0.07 -0.15,0.07 -0.15,0.06 -0.16,0.05 -0.15,0.04 -0.16,0.04 -0.16,0.03 -0.17,0.02 -0.17,0.01 -0.17,0.01 v -0.25 c 1.7,0 3.07,-1.37 3.07,-3.06 0,-1.69 -1.37,-3.06 -3.07,-3.06 h 0 c -1.69,0 -3.06,1.37 -3.06,3.06 0,1.69 1.37,3.06 3.06,3.06 v 0.25 c -1.83,0 -3.31,-1.49 -3.31,-3.31 0,-1.83 1.49,-3.31 3.31,-3.31 1.83,0 3.32,1.49 3.32,3.31 z"
         id="path8346" /><path
         style="fill:#000000;stroke-width:0"
         inkscape:connector-curvature="0"
         d="m 236.77,658.72 0.01,0 0.01,-0.01 0.02,-0.02 0.03,-0.01 0.02,-0.02 0.03,-0.02 0.02,-0.02 0.03,-0.01 0.02,-0.02 0.01,-0.01 0.02,0 0.01,-0.01 0.01,-0.01 0.01,-0.01 0.01,0 0.01,-0.01 0.01,0 0.01,-0.01 0.01,0 0.01,-0.01 0.01,0 0.01,0 0.01,0 0.01,0 0,0 c 0.15,0 0.27,0.14 0.27,0.27 0,0.15 -0.07,0.18 -0.23,0.26 -0.12,0.07 -0.74,0.35 -1.37,0.67 l 1.39,0.66 c 0.14,0.08 0.21,0.11 0.21,0.26 0,0.14 -0.12,0.28 -0.27,0.28 -0.08,0 -0.14,-0.05 -0.17,-0.07 l -1.27,-0.93 0.14,1.56 c 0.01,0.14 0.01,0.38 -0.26,0.38 -0.15,0 -0.29,-0.13 -0.26,-0.25 v -0.13 l 0.14,-1.55 -1.08,0.78 c -0.12,0.08 -0.28,0.21 -0.36,0.21 -0.15,0 -0.27,-0.14 -0.27,-0.28 0,-0.15 0.1,-0.2 0.2,-0.25 l 1.4,-0.67 -1.39,-0.67 c -0.14,-0.08 -0.21,-0.11 -0.21,-0.26 0,-0.13 0.12,-0.27 0.27,-0.27 0.07,0 0.23,0.12 0.34,0.2 l 1.1,0.79 -0.15,-1.67 c 0,-0.18 0.16,-0.26 0.27,-0.26 0.11,0 0.27,0.08 0.27,0.26 0,0.03 -0.05,0.5 -0.05,0.54 0,0.01 -0.04,0.4 -0.05,0.59 l -0.05,0.54 z"
         id="path8348" /><path
         style="fill:#000000;stroke-width:0"
         inkscape:connector-curvature="0"
         d="m 246.69,660.97 0.01,0.03 0.01,0.02 0.01,0.01 0.01,0.01 0.01,0.01 0,0.01 0.01,0.01 0.01,0.01 0.01,0.01 0.01,0.01 0.02,0.01 0.01,0 0.02,0.01 0.01,0.01 0.02,0 0.02,0.01 0.03,0 0.02,0.01 0.03,0 0.01,0.01 0.02,0 0.01,0 0.02,0 0.01,0 0.02,0.01 0.02,0 0.02,0 0.02,0 0.02,0 0.02,0 0.02,0 0.02,0 0.02,0.01 0.03,0 0.02,0 0.03,0 0.02,0 0.03,0 0.03,0 0.03,0 0.03,0 v 0.47 c -0.24,-0.02 -0.54,-0.03 -0.79,-0.03 -0.25,0 -0.7,0.02 -0.91,0.03 v -0.47 c 0.02,0 0.47,0 0.47,-0.12 0,-0.01 -0.04,-0.11 -0.05,-0.12 l -1.14,-2.44 -1.27,2.68 h 0.54 v 0.47 c -0.33,-0.02 -1.22,-0.03 -1.23,-0.03 -0.28,0 -0.73,0.02 -1.14,0.03 v -0.47 h 0.64 l 1.86,-3.95 -0.23,-0.47 c -0.22,-0.48 -0.53,-1.15 -1.24,-1.15 -0.14,0 -0.16,0.01 -0.24,0.04 0.09,0.03 0.32,0.17 0.32,0.52 0,0.33 -0.24,0.57 -0.58,0.57 -0.28,0 -0.57,-0.19 -0.57,-0.58 0,-0.5 0.47,-0.91 1.07,-0.91 0.77,0 1.34,0.61 1.61,1.18 z"
         id="path8350" /></g>    <g
       style="font-style:normal;font-variant:normal;font-weight:normal;font-stretch:normal;letter-spacing:normal;word-spacing:normal;text-anchor:start;fill:none;stroke:#000000;stroke-linecap:butt;stroke-linejoin:miter;stroke-miterlimit:10.43299960999999954;stroke-opacity:1;stroke-dasharray:none;stroke-dashoffset:0;filter:url(#filter13990)"
       ns0:preamble="/home/eric/.config/inkscape/extensions/preamble.tex"
       ns0:text="$\\mathbf{F}\\mathbf{x}; \\mathbf{F}\\mathbf{y}$"
       word-spacing="normal"
       letter-spacing="normal"
       font-size-adjust="none"
       font-stretch="normal"
       font-weight="normal"
       font-variant="normal"
       font-style="normal"
       stroke-miterlimit="10.433"
       xml:space="preserve"
       transform="matrix(2.6096294,0,0,-2.6096294,-396.66648,1895.956)"
       id="content"><path
         id="path8815"
         d="m 229.84,663.99 h -6.02 v -0.47 h 1.08 v -5.82 h -1.08 v -0.47 c 0.38,0.04 1.38,0.04 1.82,0.04 0.49,0 1.57,0 2.01,-0.04 v 0.47 h -1.34 v 2.68 h 0.49 c 0.96,0 1.05,-0.42 1.05,-1.16 h 0.47 v 2.79 h -0.47 c 0,-0.73 -0.08,-1.16 -1.05,-1.16 h -0.49 v 2.67 h 1.39 c 1.6,0 1.83,-0.76 1.98,-1.92 h 0.47 z"
         inkscape:connector-curvature="0"
         style="fill:#000000;stroke-width:0" /><path
         id="path8817"
         d="m 234.08,659.68 1.17,1.29 c 0.13,0.14 0.19,0.21 1.01,0.21 v 0.47 c -0.35,-0.02 -0.86,-0.03 -0.91,-0.03 -0.25,0 -0.75,0.02 -1.03,0.03 v -0.47 c 0.14,0 0.26,-0.02 0.38,-0.09 -0.04,-0.06 -0.04,-0.08 -0.08,-0.12 l -0.83,-0.93 -0.98,1.14 h 0.4 v 0.47 c -0.26,-0.01 -0.89,-0.03 -1.21,-0.03 -0.31,0 -0.76,0.02 -1.09,0.03 v -0.47 h 0.71 l 1.55,-1.83 -1.3,-1.46 c -0.17,-0.19 -0.53,-0.19 -1.01,-0.19 v -0.47 c 0.35,0.03 0.87,0.04 0.91,0.04 0.25,0 0.83,-0.03 1.03,-0.04 v 0.47 c -0.18,0 -0.37,0.05 -0.37,0.11 0,0.01 0,0.02 0.07,0.1 l 0.97,1.08 1.09,-1.29 h -0.39 v -0.47 c 0.26,0.01 0.87,0.04 1.2,0.04 0.31,0 0.76,-0.03 1.09,-0.04 v 0.47 h -0.7 z"
         inkscape:connector-curvature="0"
         style="fill:#000000;stroke-width:0" /><path
         id="path8819"
         d="m 238.6,660.99 0,0.03 0,0.02 -0.01,0.03 0,0.03 -0.01,0.02 -0.01,0.03 0,0.02 -0.01,0.02 -0.01,0.03 -0.02,0.02 -0.01,0.02 -0.01,0.02 -0.02,0.02 -0.01,0.02 -0.02,0.02 -0.02,0.02 -0.02,0.02 -0.02,0.02 -0.02,0.01 -0.02,0.02 -0.02,0.01 -0.02,0.01 -0.02,0.01 -0.03,0.01 -0.02,0.01 -0.02,0.01 -0.03,0.01 -0.02,0.01 -0.03,0 -0.03,0 -0.02,0.01 -0.03,0 c -0.29,0 -0.53,-0.24 -0.53,-0.53 0,-0.29 0.24,-0.53 0.53,-0.53 0.29,0 0.53,0.24 0.53,0.53 z"
         inkscape:connector-curvature="0"
         style="fill:#000000;stroke-width:0" /><path
         id="path8821"
         d="m 238.41,657.34 0,-0.02 0,-0.03 0,-0.04 0,-0.03 0,-0.04 -0.01,-0.04 0,-0.04 0,-0.05 -0.01,-0.05 0,-0.05 -0.01,-0.05 0,-0.05 -0.01,-0.05 -0.01,-0.06 -0.02,-0.06 -0.01,-0.06 -0.02,-0.06 -0.01,-0.06 -0.02,-0.06 -0.03,-0.07 -0.02,-0.06 -0.03,-0.07 -0.03,-0.07 -0.03,-0.06 -0.03,-0.07 -0.04,-0.07 -0.04,-0.07 -0.05,-0.07 -0.05,-0.07 -0.05,-0.07 -0.05,-0.06 -0.06,-0.07 c -0.07,-0.08 -0.07,-0.1 -0.07,-0.13 0,-0.07 0.05,-0.11 0.1,-0.11 0.11,0 0.83,0.79 0.83,1.95 0,0.28 -0.02,1.02 -0.56,1.02 -0.35,0 -0.53,-0.27 -0.53,-0.53 0,-0.26 0.17,-0.53 0.53,-0.53 0.05,0 0.07,0 0.08,0.01 0.07,0.02 0.18,0.04 0.26,0.1 z"
         inkscape:connector-curvature="0"
         style="fill:#000000;stroke-width:0" /><path
         id="path8823"
         d="m 247.52,663.99 h -6.02 v -0.47 h 1.08 v -5.82 h -1.08 v -0.47 c 0.38,0.04 1.39,0.04 1.82,0.04 0.49,0 1.58,0 2.02,-0.04 v 0.47 h -1.35 v 2.68 h 0.5 c 0.95,0 1.04,-0.42 1.04,-1.16 H 246 v 2.79 h -0.47 c 0,-0.73 -0.08,-1.16 -1.04,-1.16 h -0.5 v 2.67 h 1.39 c 1.61,0 1.83,-0.76 1.98,-1.92 h 0.47 z"
         inkscape:connector-curvature="0"
         style="fill:#000000;stroke-width:0" /><path
         id="path8825"
         d="m 253.36,660.97 0.01,0.03 0.01,0.02 0.01,0.01 0.01,0.01 0.01,0.01 0,0.01 0.01,0.01 0.01,0.01 0.01,0.01 0.01,0.01 0.02,0.01 0.01,0 0.02,0.01 0.01,0.01 0.02,0 0.02,0.01 0.03,0 0.02,0.01 0.03,0 0.01,0.01 0.02,0 0.01,0 0.02,0 0.01,0 0.02,0.01 0.02,0 0.02,0 0.02,0 0.02,0 0.02,0 0.02,0 0.02,0 0.02,0.01 0.03,0 0.02,0 0.03,0 0.02,0 0.03,0 0.03,0 0.03,0 0.03,0 v 0.47 c -0.24,-0.02 -0.54,-0.03 -0.79,-0.03 -0.25,0 -0.7,0.02 -0.91,0.03 v -0.47 c 0.02,0 0.47,0 0.47,-0.12 0,-0.01 -0.04,-0.11 -0.05,-0.12 l -1.14,-2.44 -1.27,2.68 h 0.54 v 0.47 c -0.33,-0.02 -1.22,-0.03 -1.23,-0.03 -0.28,0 -0.73,0.02 -1.14,0.03 v -0.47 h 0.64 l 1.86,-3.95 -0.23,-0.47 c -0.22,-0.48 -0.53,-1.15 -1.24,-1.15 -0.14,0 -0.16,0.01 -0.24,0.04 0.09,0.03 0.32,0.17 0.32,0.52 0,0.33 -0.24,0.57 -0.58,0.57 -0.28,0 -0.57,-0.19 -0.57,-0.58 0,-0.5 0.47,-0.91 1.07,-0.91 0.76,0 1.34,0.61 1.61,1.18 z"
         inkscape:connector-curvature="0"
         style="fill:#000000;stroke-width:0" /></g>    <g
       id="g9289"
       transform="matrix(4.0571262,0,0,-4.0571262,-886.68755,2796.874)"
       xml:space="preserve"
       stroke-miterlimit="10.433"
       font-style="normal"
       font-variant="normal"
       font-weight="normal"
       font-stretch="normal"
       font-size-adjust="none"
       letter-spacing="normal"
       word-spacing="normal"
       ns0:text="$\\mathbf{x}$"
       ns0:preamble="/home/eric/.config/inkscape/extensions/preamble.tex"
       style="font-style:normal;font-variant:normal;font-weight:normal;font-stretch:normal;letter-spacing:normal;word-spacing:normal;text-anchor:start;fill:none;stroke:#000000;stroke-linecap:butt;stroke-linejoin:miter;stroke-miterlimit:10.43299960999999954;stroke-opacity:1;stroke-dasharray:none;stroke-dashoffset:0;filter:url(#filter13984)"><path
         style="fill:#000000;stroke-width:0"
         inkscape:connector-curvature="0"
         d="m 226.87,659.68 1.17,1.29 c 0.13,0.14 0.19,0.21 1.01,0.21 v 0.47 c -0.34,-0.02 -0.86,-0.03 -0.91,-0.03 -0.25,0 -0.75,0.02 -1.03,0.03 v -0.47 c 0.14,0 0.26,-0.02 0.38,-0.09 -0.04,-0.06 -0.04,-0.08 -0.08,-0.12 l -0.83,-0.93 -0.98,1.14 h 0.4 v 0.47 c -0.26,-0.01 -0.89,-0.03 -1.21,-0.03 -0.31,0 -0.76,0.02 -1.09,0.03 v -0.47 h 0.71 l 1.55,-1.83 -1.3,-1.46 c -0.17,-0.19 -0.53,-0.19 -1.01,-0.19 v -0.47 c 0.35,0.03 0.87,0.04 0.92,0.04 0.25,0 0.82,-0.03 1.02,-0.04 v 0.47 c -0.18,0 -0.37,0.05 -0.37,0.11 0,0.01 0,0.02 0.07,0.1 l 0.97,1.08 1.09,-1.29 h -0.39 v -0.47 c 0.26,0.01 0.87,0.04 1.2,0.04 0.32,0 0.76,-0.03 1.09,-0.04 v 0.47 h -0.7 z"
         id="path9291" /></g>    <g
       id="g10917"
       transform="matrix(4.0571262,0,0,-4.0571262,-886.58612,2899.1566)"
       xml:space="preserve"
       stroke-miterlimit="10.433"
       font-style="normal"
       font-variant="normal"
       font-weight="normal"
       font-stretch="normal"
       font-size-adjust="none"
       letter-spacing="normal"
       word-spacing="normal"
       ns0:text="$\\mathbf{y}$"
       ns0:preamble="/home/eric/.config/inkscape/extensions/preamble.tex"
       style="font-style:normal;font-variant:normal;font-weight:normal;font-stretch:normal;letter-spacing:normal;word-spacing:normal;text-anchor:start;fill:none;stroke:#000000;stroke-linecap:butt;stroke-linejoin:miter;stroke-miterlimit:10.43299960999999954;stroke-opacity:1;stroke-dasharray:none;stroke-dashoffset:0;filter:url(#filter13978)"><path
         style="fill:#000000;stroke-width:0"
         inkscape:connector-curvature="0"
         d="m 228.47,660.97 0.01,0.03 0.01,0.02 0.01,0.01 0.01,0.01 0,0.01 0.01,0.01 0.01,0.01 0.01,0.01 0.01,0.01 0.01,0.01 0.01,0.01 0.02,0 0.01,0.01 0.02,0.01 0.02,0 0.02,0.01 0.02,0 0.03,0.01 0.02,0 0.02,0.01 0.01,0 0.02,0 0.02,0 0.01,0 0.02,0.01 0.02,0 0.02,0 0.01,0 0.02,0 0.03,0 0.02,0 0.02,0 0.02,0.01 0.02,0 0.03,0 0.02,0 0.03,0 0.03,0 0.03,0 0.02,0 0.03,0 v 0.47 c -0.24,-0.02 -0.54,-0.03 -0.78,-0.03 -0.25,0 -0.7,0.02 -0.91,0.03 v -0.47 c 0.02,0 0.47,0 0.47,-0.12 0,-0.01 -0.04,-0.11 -0.05,-0.12 l -1.14,-2.44 -1.27,2.68 h 0.54 v 0.47 c -0.33,-0.02 -1.22,-0.03 -1.24,-0.03 -0.27,0 -0.72,0.02 -1.13,0.03 v -0.47 h 0.64 l 1.86,-3.95 -0.23,-0.47 c -0.22,-0.48 -0.54,-1.15 -1.25,-1.15 -0.13,0 -0.15,0.01 -0.23,0.04 0.09,0.03 0.31,0.17 0.31,0.52 0,0.33 -0.23,0.57 -0.57,0.57 -0.28,0 -0.57,-0.19 -0.57,-0.58 0,-0.5 0.47,-0.91 1.06,-0.91 0.77,0 1.35,0.61 1.62,1.18 z"
         id="path10919" /></g>  </g>
  <g
     id="g10781"
     ns0:preamble="/home/e2crawfo/cogsci-journal/preamble.tex"
     ns0:text="$\\mathbf{e}_j \\mathbf{F}_1 \\mathbf{d}_i$"
     transform="matrix(1.9550016,0,0,1.9550016,-257.09261,-229.45168)"
     style="filter:url(#filter13972)">
    <defs
       id="defs10783">
      <g
         id="g10785">
        <symbol
           id="textext-e8d91ee4-0"
           overflow="visible"
           style="overflow:visible">
          <path
             id="path10788"
             d=""
             style="stroke:none"
             inkscape:connector-curvature="0" />
        </symbol>
        <symbol
           id="textext-e8d91ee4-1"
           overflow="visible"
           style="overflow:visible">
          <path
             id="path10791"
             d="m 4.609375,-2.171875 c 0.21875,0 0.3125,0 0.3125,-0.265625 0,-0.3125 -0.0625,-1.046875 -0.5625,-1.546875 C 4,-4.34375 3.46875,-4.515625 2.78125,-4.515625 c -1.59375,0 -2.46875,1.03125 -2.46875,2.265625 0,1.34375 1,2.3125 2.609375,2.3125 1.578125,0 2,-1.0625 2,-1.234375 0,-0.171875 -0.1875,-0.171875 -0.234375,-0.171875 -0.171875,0 -0.1875,0.046875 -0.25,0.203125 -0.203125,0.484375 -0.78125,0.796875 -1.421875,0.796875 -1.40625,0 -1.421875,-1.328125 -1.421875,-1.828125 z M 1.59375,-2.5 C 1.609375,-2.890625 1.625,-3.3125 1.828125,-3.640625 2.09375,-4.03125 2.5,-4.15625 2.78125,-4.15625 c 1.171875,0 1.1875,1.3125 1.203125,1.65625 z"
             style="stroke:none"
             inkscape:connector-curvature="0" />
        </symbol>
        <symbol
           id="textext-e8d91ee4-2"
           overflow="visible"
           style="overflow:visible">
          <path
             id="path10794"
             d="m 6.421875,-6.78125 -6.03125,0 0,0.46875 1.078125,0 0,5.84375 -1.078125,0 0,0.46875 c 0.375,-0.03125 1.390625,-0.03125 1.828125,-0.03125 0.484375,0 1.5625,0 2.015625,0.03125 l 0,-0.46875 -1.359375,0 0,-2.6875 0.5,0 c 0.96875,0 1.046875,0.421875 1.046875,1.15625 l 0.46875,0 0,-2.796875 -0.46875,0 C 4.421875,-4.0625 4.34375,-3.625 3.375,-3.625 l -0.5,0 0,-2.6875 1.40625,0 c 1.59375,0 1.828125,0.765625 1.984375,1.9375 l 0.46875,0 z"
             style="stroke:none"
             inkscape:connector-curvature="0" />
        </symbol>
        <symbol
           id="textext-e8d91ee4-3"
           overflow="visible"
           style="overflow:visible">
          <path
             id="path10797"
             d="m 4.171875,-0.421875 0,0.484375 1.8125,-0.0625 0,-0.46875 c -0.609375,0 -0.6875,0 -0.6875,-0.390625 l 0,-6.0625 -1.765625,0.078125 0,0.46875 c 0.625,0 0.703125,0 0.703125,0.390625 l 0,1.953125 c -0.5,-0.390625 -1.03125,-0.453125 -1.359375,-0.453125 -1.453125,0 -2.5,0.875 -2.5,2.28125 0,1.3125 0.921875,2.265625 2.390625,2.265625 0.609375,0 1.09375,-0.234375 1.40625,-0.484375 z m 0,-3.09375 0,2.484375 C 4.03125,-0.84375 3.625,-0.296875 2.875,-0.296875 c -1.21875,0 -1.21875,-1.203125 -1.21875,-1.90625 0,-0.484375 0,-1.015625 0.25,-1.40625 C 2.203125,-4.03125 2.671875,-4.125 2.984375,-4.125 c 0.5625,0 0.96875,0.3125 1.1875,0.609375 z"
             style="stroke:none"
             inkscape:connector-curvature="0" />
        </symbol>
        <symbol
           id="textext-e8d91ee4-4"
           overflow="visible"
           style="overflow:visible">
          <path
             id="path10800"
             d=""
             style="stroke:none"
             inkscape:connector-curvature="0" />
        </symbol>
        <symbol
           id="textext-e8d91ee4-5"
           overflow="visible"
           style="overflow:visible">
          <path
             id="path10803"
             d="M 3.0625,-4.359375 C 3.0625,-4.46875 2.96875,-4.625 2.78125,-4.625 c -0.203125,0 -0.390625,0.203125 -0.390625,0.390625 0,0.109375 0.078125,0.265625 0.28125,0.265625 0.1875,0 0.390625,-0.1875 0.390625,-0.390625 z M 1.578125,0.34375 C 1.46875,0.828125 1.09375,1.21875 0.6875,1.21875 c -0.09375,0 -0.171875,0 -0.25,-0.03125 0.171875,-0.09375 0.234375,-0.25 0.234375,-0.359375 0,-0.171875 -0.140625,-0.25 -0.28125,-0.25 C 0.1875,0.578125 0,0.765625 0,0.984375 c 0,0.265625 0.265625,0.4375 0.6875,0.4375 0.421875,0 1.234375,-0.25 1.453125,-1.09375 l 0.625,-2.5 c 0.015625,-0.078125 0.03125,-0.140625 0.03125,-0.25 0,-0.375 -0.328125,-0.65625 -0.734375,-0.65625 -0.78125,0 -1.21875,0.96875 -1.21875,1.078125 0,0.078125 0.09375,0.078125 0.109375,0.078125 0.078125,0 0.09375,-0.015625 0.140625,-0.125 C 1.265625,-2.453125 1.625,-2.875 2.03125,-2.875 c 0.171875,0 0.234375,0.109375 0.234375,0.34375 0,0.078125 0,0.171875 -0.015625,0.203125 z"
             style="stroke:none"
             inkscape:connector-curvature="0" />
        </symbol>
        <symbol
           id="textext-e8d91ee4-6"
           overflow="visible"
           style="overflow:visible">
          <path
             id="path10806"
             d="m 2.265625,-4.359375 c 0,-0.109375 -0.09375,-0.265625 -0.28125,-0.265625 -0.1875,0 -0.390625,0.1875 -0.390625,0.390625 0,0.109375 0.078125,0.265625 0.28125,0.265625 0.1875,0 0.390625,-0.203125 0.390625,-0.390625 z M 0.84375,-0.8125 c -0.03125,0.09375 -0.0625,0.171875 -0.0625,0.296875 0,0.328125 0.265625,0.578125 0.65625,0.578125 0.6875,0 1,-0.953125 1,-1.0625 0,-0.09375 -0.09375,-0.09375 -0.109375,-0.09375 -0.09375,0 -0.109375,0.046875 -0.140625,0.125 -0.15625,0.5625 -0.453125,0.84375 -0.734375,0.84375 -0.140625,0 -0.171875,-0.09375 -0.171875,-0.25 0,-0.15625 0.046875,-0.28125 0.109375,-0.4375 C 1.46875,-1 1.546875,-1.1875 1.609375,-1.375 1.671875,-1.546875 1.9375,-2.171875 1.953125,-2.265625 1.984375,-2.328125 2,-2.40625 2,-2.484375 2,-2.8125 1.71875,-3.078125 1.34375,-3.078125 0.640625,-3.078125 0.328125,-2.125 0.328125,-2 c 0,0.078125 0.09375,0.078125 0.125,0.078125 0.09375,0 0.09375,-0.03125 0.125,-0.109375 C 0.75,-2.625 1.0625,-2.875 1.3125,-2.875 c 0.109375,0 0.171875,0.046875 0.171875,0.234375 0,0.171875 -0.03125,0.265625 -0.203125,0.703125 z"
             style="stroke:none"
             inkscape:connector-curvature="0" />
        </symbol>
        <symbol
           id="textext-e8d91ee4-7"
           overflow="visible"
           style="overflow:visible">
          <path
             id="path10809"
             d=""
             style="stroke:none"
             inkscape:connector-curvature="0" />
        </symbol>
        <symbol
           id="textext-e8d91ee4-8"
           overflow="visible"
           style="overflow:visible">
          <path
             id="path10812"
             d="m 2.328125,-4.4375 c 0,-0.1875 0,-0.1875 -0.203125,-0.1875 -0.453125,0.4375 -1.078125,0.4375 -1.359375,0.4375 l 0,0.25 c 0.15625,0 0.625,0 1,-0.1875 l 0,3.546875 c 0,0.234375 0,0.328125 -0.6875,0.328125 l -0.265625,0 0,0.25 c 0.125,0 0.984375,-0.03125 1.234375,-0.03125 0.21875,0 1.09375,0.03125 1.25,0.03125 l 0,-0.25 -0.265625,0 c -0.703125,0 -0.703125,-0.09375 -0.703125,-0.328125 z"
             style="stroke:none"
             inkscape:connector-curvature="0" />
        </symbol>
      </g>
    </defs>
    <g
       id="textext-e8d91ee4-9">
      <g
         id="g10815"
         style="fill:#000000;fill-opacity:1">
        <use
           id="use10817"
           y="134.765"
           x="223.43201"
           xlink:href="#textext-e8d91ee4-1"
           width="922.72125"
           height="224.26378" />
      </g>
      <g
         id="g10819"
         style="fill:#000000;fill-opacity:1">
        <use
           id="use10821"
           y="136.259"
           x="228.683"
           xlink:href="#textext-e8d91ee4-5"
           width="922.72125"
           height="224.26378" />
      </g>
      <g
         id="g10823"
         style="fill:#000000;fill-opacity:1">
        <use
           id="use10825"
           y="134.765"
           x="232.881"
           xlink:href="#textext-e8d91ee4-2"
           width="922.72125"
           height="224.26378" />
      </g>
      <g
         id="g10827"
         style="fill:#000000;fill-opacity:1">
        <use
           id="use10829"
           y="136.259"
           x="240.09"
           xlink:href="#textext-e8d91ee4-8"
           width="922.72125"
           height="224.26378" />
      </g>
      <g
         id="g10831"
         style="fill:#000000;fill-opacity:1">
        <use
           id="use10833"
           y="134.765"
           x="244.55901"
           xlink:href="#textext-e8d91ee4-3"
           width="922.72125"
           height="224.26378" />
      </g>
      <g
         id="g10835"
         style="fill:#000000;fill-opacity:1">
        <use
           id="use10837"
           y="136.259"
           x="250.924"
           xlink:href="#textext-e8d91ee4-6"
           width="922.72125"
           height="224.26378" />
      </g>
    </g>
  </g>
  <g
     transform="matrix(2.4159043,0,0,2.4159043,-200.01508,-179.03086)"
     ns0:text="$\\mathbf{e}_j \\mathbf{F^{-1}} \\mathbf{d}^{\\diamond}_i$"
     ns0:preamble="/home/e2crawfo/cogsci-journal/preamble.tex"
     id="g6259"
     style="filter:url(#filter13966)">
    <defs
       id="defs6261">
      <g
         id="g6263">
        <symbol
           style="overflow:visible"
           overflow="visible"
           id="textext-0a7d62a6-0">
          <path
             inkscape:connector-curvature="0"
             style="stroke:none"
             d=""
             id="path6266" />
        </symbol>
        <symbol
           style="overflow:visible"
           overflow="visible"
           id="textext-0a7d62a6-1">
          <path
             inkscape:connector-curvature="0"
             style="stroke:none"
             d="m 4.609375,-2.171875 c 0.21875,0 0.3125,0 0.3125,-0.265625 0,-0.3125 -0.0625,-1.046875 -0.5625,-1.546875 C 4,-4.34375 3.46875,-4.515625 2.78125,-4.515625 c -1.59375,0 -2.46875,1.03125 -2.46875,2.265625 0,1.34375 1,2.3125 2.609375,2.3125 1.578125,0 2,-1.0625 2,-1.234375 0,-0.171875 -0.1875,-0.171875 -0.234375,-0.171875 -0.171875,0 -0.1875,0.046875 -0.25,0.203125 -0.203125,0.484375 -0.78125,0.796875 -1.421875,0.796875 -1.40625,0 -1.421875,-1.328125 -1.421875,-1.828125 z M 1.59375,-2.5 C 1.609375,-2.890625 1.625,-3.3125 1.828125,-3.640625 2.09375,-4.03125 2.5,-4.15625 2.78125,-4.15625 c 1.171875,0 1.1875,1.3125 1.203125,1.65625 z"
             id="path6269" />
        </symbol>
        <symbol
           style="overflow:visible"
           overflow="visible"
           id="textext-0a7d62a6-2">
          <path
             inkscape:connector-curvature="0"
             style="stroke:none"
             d="m 6.421875,-6.78125 -6.03125,0 0,0.46875 1.078125,0 0,5.84375 -1.078125,0 0,0.46875 c 0.375,-0.03125 1.390625,-0.03125 1.828125,-0.03125 0.484375,0 1.5625,0 2.015625,0.03125 l 0,-0.46875 -1.359375,0 0,-2.6875 0.5,0 c 0.96875,0 1.046875,0.421875 1.046875,1.15625 l 0.46875,0 0,-2.796875 -0.46875,0 C 4.421875,-4.0625 4.34375,-3.625 3.375,-3.625 l -0.5,0 0,-2.6875 1.40625,0 c 1.59375,0 1.828125,0.765625 1.984375,1.9375 l 0.46875,0 z"
             id="path6272" />
        </symbol>
        <symbol
           style="overflow:visible"
           overflow="visible"
           id="textext-0a7d62a6-3">
          <path
             inkscape:connector-curvature="0"
             style="stroke:none"
             d="m 4.171875,-0.421875 0,0.484375 1.8125,-0.0625 0,-0.46875 c -0.609375,0 -0.6875,0 -0.6875,-0.390625 l 0,-6.0625 -1.765625,0.078125 0,0.46875 c 0.625,0 0.703125,0 0.703125,0.390625 l 0,1.953125 c -0.5,-0.390625 -1.03125,-0.453125 -1.359375,-0.453125 -1.453125,0 -2.5,0.875 -2.5,2.28125 0,1.3125 0.921875,2.265625 2.390625,2.265625 0.609375,0 1.09375,-0.234375 1.40625,-0.484375 z m 0,-3.09375 0,2.484375 C 4.03125,-0.84375 3.625,-0.296875 2.875,-0.296875 c -1.21875,0 -1.21875,-1.203125 -1.21875,-1.90625 0,-0.484375 0,-1.015625 0.25,-1.40625 C 2.203125,-4.03125 2.671875,-4.125 2.984375,-4.125 c 0.5625,0 0.96875,0.3125 1.1875,0.609375 z"
             id="path6275" />
        </symbol>
        <symbol
           style="overflow:visible"
           overflow="visible"
           id="textext-0a7d62a6-4">
          <path
             inkscape:connector-curvature="0"
             style="stroke:none"
             d=""
             id="path6278" />
        </symbol>
        <symbol
           style="overflow:visible"
           overflow="visible"
           id="textext-0a7d62a6-5">
          <path
             inkscape:connector-curvature="0"
             style="stroke:none"
             d="M 3.0625,-4.359375 C 3.0625,-4.46875 2.96875,-4.625 2.78125,-4.625 c -0.203125,0 -0.390625,0.203125 -0.390625,0.390625 0,0.109375 0.078125,0.265625 0.28125,0.265625 0.1875,0 0.390625,-0.1875 0.390625,-0.390625 z M 1.578125,0.34375 C 1.46875,0.828125 1.09375,1.21875 0.6875,1.21875 c -0.09375,0 -0.171875,0 -0.25,-0.03125 0.171875,-0.09375 0.234375,-0.25 0.234375,-0.359375 0,-0.171875 -0.140625,-0.25 -0.28125,-0.25 C 0.1875,0.578125 0,0.765625 0,0.984375 c 0,0.265625 0.265625,0.4375 0.6875,0.4375 0.421875,0 1.234375,-0.25 1.453125,-1.09375 l 0.625,-2.5 c 0.015625,-0.078125 0.03125,-0.140625 0.03125,-0.25 0,-0.375 -0.328125,-0.65625 -0.734375,-0.65625 -0.78125,0 -1.21875,0.96875 -1.21875,1.078125 0,0.078125 0.09375,0.078125 0.109375,0.078125 0.078125,0 0.09375,-0.015625 0.140625,-0.125 C 1.265625,-2.453125 1.625,-2.875 2.03125,-2.875 c 0.171875,0 0.234375,0.109375 0.234375,0.34375 0,0.078125 0,0.171875 -0.015625,0.203125 z"
             id="path6281" />
        </symbol>
        <symbol
           style="overflow:visible"
           overflow="visible"
           id="textext-0a7d62a6-6">
          <path
             inkscape:connector-curvature="0"
             style="stroke:none"
             d="m 2.265625,-4.359375 c 0,-0.109375 -0.09375,-0.265625 -0.28125,-0.265625 -0.1875,0 -0.390625,0.1875 -0.390625,0.390625 0,0.109375 0.078125,0.265625 0.28125,0.265625 0.1875,0 0.390625,-0.203125 0.390625,-0.390625 z M 0.84375,-0.8125 c -0.03125,0.09375 -0.0625,0.171875 -0.0625,0.296875 0,0.328125 0.265625,0.578125 0.65625,0.578125 0.6875,0 1,-0.953125 1,-1.0625 0,-0.09375 -0.09375,-0.09375 -0.109375,-0.09375 -0.09375,0 -0.109375,0.046875 -0.140625,0.125 -0.15625,0.5625 -0.453125,0.84375 -0.734375,0.84375 -0.140625,0 -0.171875,-0.09375 -0.171875,-0.25 0,-0.15625 0.046875,-0.28125 0.109375,-0.4375 C 1.46875,-1 1.546875,-1.1875 1.609375,-1.375 1.671875,-1.546875 1.9375,-2.171875 1.953125,-2.265625 1.984375,-2.328125 2,-2.40625 2,-2.484375 2,-2.8125 1.71875,-3.078125 1.34375,-3.078125 0.640625,-3.078125 0.328125,-2.125 0.328125,-2 c 0,0.078125 0.09375,0.078125 0.125,0.078125 0.09375,0 0.09375,-0.03125 0.125,-0.109375 C 0.75,-2.625 1.0625,-2.875 1.3125,-2.875 c 0.109375,0 0.171875,0.046875 0.171875,0.234375 0,0.171875 -0.03125,0.265625 -0.203125,0.703125 z"
             id="path6284" />
        </symbol>
        <symbol
           style="overflow:visible"
           overflow="visible"
           id="textext-0a7d62a6-7">
          <path
             inkscape:connector-curvature="0"
             style="stroke:none"
             d=""
             id="path6287" />
        </symbol>
        <symbol
           style="overflow:visible"
           overflow="visible"
           id="textext-0a7d62a6-8">
          <path
             inkscape:connector-curvature="0"
             style="stroke:none"
             d="m 5.1875,-1.578125 c 0.109375,0 0.28125,0 0.28125,-0.15625 0,-0.1875 -0.171875,-0.1875 -0.28125,-0.1875 l -4.15625,0 c -0.109375,0 -0.28125,0 -0.28125,0.171875 0,0.171875 0.15625,0.171875 0.28125,0.171875 z"
             id="path6290" />
        </symbol>
        <symbol
           style="overflow:visible"
           overflow="visible"
           id="textext-0a7d62a6-9">
          <path
             inkscape:connector-curvature="0"
             style="stroke:none"
             d="M 3.765625,-1.578125 C 3.859375,-1.65625 3.875,-1.6875 3.875,-1.734375 3.875,-1.8125 3.84375,-1.828125 3.765625,-1.90625 l -1.5625,-1.578125 c -0.078125,-0.0625 -0.09375,-0.09375 -0.15625,-0.09375 -0.078125,0 -0.09375,0.03125 -0.171875,0.109375 L 0.3125,-1.921875 C 0.21875,-1.828125 0.203125,-1.78125 0.203125,-1.75 c 0,0.078125 0.03125,0.09375 0.109375,0.171875 l 1.546875,1.5625 C 1.953125,0.0625 2,0.078125 2.046875,0.078125 c 0.0625,0 0.078125,-0.015625 0.15625,-0.09375 z M 0.625,-1.734375 2.03125,-3.15625 3.453125,-1.75 2.046875,-0.328125 z"
             id="path6293" />
        </symbol>
        <symbol
           style="overflow:visible"
           overflow="visible"
           id="textext-0a7d62a6-10">
          <path
             inkscape:connector-curvature="0"
             style="stroke:none"
             d=""
             id="path6296" />
        </symbol>
        <symbol
           style="overflow:visible"
           overflow="visible"
           id="textext-0a7d62a6-11">
          <path
             inkscape:connector-curvature="0"
             style="stroke:none"
             d="m 2.78125,-4.328125 c 0,-0.25 -0.046875,-0.25 -0.34375,-0.25 C 2,-4.21875 1.4375,-4.125 0.875,-4.125 l -0.171875,0 0,0.390625 0.171875,0 c 0.28125,0 0.703125,-0.046875 1,-0.140625 l 0,3.484375 -1.09375,0 0,0.390625 c 0.328125,-0.03125 1.171875,-0.03125 1.546875,-0.03125 0.25,0 0.5,0.015625 0.75,0.015625 0.21875,0 0.578125,0 0.78125,0.015625 l 0,-0.390625 -1.078125,0 z"
             id="path6299" />
        </symbol>
      </g>
    </defs>
    <g
       id="textext-0a7d62a6-12">
      <g
         style="fill:#000000;fill-opacity:1"
         id="g6302">
        <use
           height="224.26378"
           width="922.72125"
           xlink:href="#textext-0a7d62a6-1"
           x="223.43201"
           y="134.765"
           id="use6304" />
      </g>
      <g
         style="fill:#000000;fill-opacity:1"
         id="g6306">
        <use
           height="224.26378"
           width="922.72125"
           xlink:href="#textext-0a7d62a6-5"
           x="228.683"
           y="136.259"
           id="use6308" />
      </g>
      <g
         style="fill:#000000;fill-opacity:1"
         id="g6310">
        <use
           height="224.26378"
           width="922.72125"
           xlink:href="#textext-0a7d62a6-2"
           x="232.881"
           y="134.765"
           id="use6312" />
      </g>
      <g
         style="fill:#000000;fill-opacity:1"
         id="g6314">
        <use
           height="224.26378"
           width="922.72125"
           xlink:href="#textext-0a7d62a6-8"
           x="240.09"
           y="131.14999"
           id="use6316" />
      </g>
      <g
         style="fill:#000000;fill-opacity:1"
         id="g6318">
        <use
           height="224.26378"
           width="922.72125"
           xlink:href="#textext-0a7d62a6-11"
           x="246.317"
           y="131.14999"
           id="use6320" />
      </g>
      <g
         style="fill:#000000;fill-opacity:1"
         id="g6322">
        <use
           height="224.26378"
           width="922.72125"
           xlink:href="#textext-0a7d62a6-3"
           x="251.328"
           y="134.765"
           id="use6324" />
      </g>
      <g
         style="fill:#000000;fill-opacity:1"
         id="g6326">
        <use
           height="224.26378"
           width="922.72125"
           xlink:href="#textext-0a7d62a6-9"
           x="257.69299"
           y="131.14999"
           id="use6328" />
      </g>
      <g
         style="fill:#000000;fill-opacity:1"
         id="g6330">
        <use
           height="224.26378"
           width="922.72125"
           xlink:href="#textext-0a7d62a6-6"
           x="257.69299"
           y="137.358"
           id="use6332" />
      </g>
    </g>
  </g>
  <g
     id="g7463"
     transform="matrix(1.9895956,0,0,-1.9895956,-265.34909,1458.2752)"
     xml:space="preserve"
     stroke-miterlimit="10.433"
     font-style="normal"
     font-variant="normal"
     font-weight="normal"
     font-stretch="normal"
     font-size-adjust="none"
     letter-spacing="normal"
     word-spacing="normal"
     ns0:text="$\\mathbf{e}_j \\mathbf{F}_2 \\mathbf{d}_i$"
     ns0:preamble=""
     style="font-style:normal;font-variant:normal;font-weight:normal;font-stretch:normal;letter-spacing:normal;word-spacing:normal;text-anchor:start;fill:none;stroke:#000000;stroke-linecap:butt;stroke-linejoin:miter;stroke-miterlimit:10.43299960999999954;stroke-opacity:1;stroke-dasharray:none;stroke-dashoffset:0;filter:url(#filter13960)"><path
       d="m 228.03,659.4 0.02,0 0.02,0 0.02,0 0.02,0 0.01,0 0.02,0 0.02,0 0.01,0.01 0.02,0 0.01,0 0.01,0 0.02,0.01 0.01,0 0.01,0 0.01,0.01 0.01,0 0.01,0.01 0.01,0.01 0.01,0.01 0,0.01 0.01,0.01 0.01,0.01 0,0 0,0.01 0.01,0.01 0,0 0,0.01 0,0.01 0,0.01 0.01,0 0,0.01 0,0.01 0,0.01 0,0.01 0,0.01 0,0.01 0.01,0.01 0,0.01 0,0.01 0,0.01 0,0.02 0,0.01 c 0,0.31 -0.06,1.03 -0.56,1.53 -0.37,0.36 -0.9,0.53 -1.58,0.53 -1.59,0 -2.46,-1.02 -2.46,-2.26 0,-1.33 0.99,-2.3 2.6,-2.3 1.57,0 2,1.06 2,1.23 0,0.18 -0.19,0.18 -0.24,0.18 -0.17,0 -0.19,-0.05 -0.25,-0.21 -0.21,-0.48 -0.78,-0.8 -1.42,-0.8 -1.41,0 -1.42,1.32 -1.42,1.83 v 0.33 c 0.02,0.39 0.03,0.8 0.24,1.13 0.26,0.4 0.66,0.52 0.95,0.52 1.16,0 1.18,-1.3 1.19,-1.65 h -2.38 v -0.33 z"
       id="path7465"
       inkscape:connector-curvature="0"
       style="fill:#000000;stroke-width:0" /><path
       d="m 231.74,660.09 0,0.01 0,0.01 0,0.01 0,0.01 -0.01,0.01 0,0.02 0,0.01 -0.01,0.01 0,0.01 -0.01,0.01 0,0.01 -0.01,0.01 -0.01,0.01 0,0.01 -0.01,0.01 -0.01,0.01 -0.01,0.01 -0.01,0.01 -0.01,0.01 -0.01,0.01 -0.01,0.01 -0.01,0 -0.01,0.01 -0.02,0.01 -0.01,0 -0.01,0.01 -0.02,0 -0.01,0 -0.02,0.01 -0.01,0 -0.02,0 -0.02,0 c -0.2,0 -0.39,-0.19 -0.39,-0.38 0,-0.11 0.08,-0.26 0.28,-0.26 0.19,0 0.39,0.18 0.39,0.38 z"
       id="path7467"
       inkscape:connector-curvature="0"
       style="fill:#000000;stroke-width:0" /><path
       d="m 230.26,655.4 -0.01,-0.04 -0.01,-0.05 -0.02,-0.04 -0.01,-0.05 -0.02,-0.04 -0.02,-0.04 -0.02,-0.04 -0.02,-0.04 -0.02,-0.04 -0.02,-0.04 -0.03,-0.03 -0.02,-0.04 -0.03,-0.04 -0.03,-0.03 -0.03,-0.03 -0.03,-0.03 -0.03,-0.03 -0.03,-0.03 -0.03,-0.03 -0.03,-0.02 -0.03,-0.02 -0.04,-0.02 -0.03,-0.02 -0.04,-0.02 -0.03,-0.02 -0.04,-0.01 -0.04,-0.01 -0.03,-0.01 -0.04,-0.01 -0.04,-0.01 -0.04,0 -0.03,0 c -0.1,0 -0.18,0.01 -0.25,0.04 0.18,0.08 0.23,0.25 0.23,0.35 0,0.17 -0.13,0.26 -0.27,0.26 -0.22,0 -0.4,-0.19 -0.4,-0.41 0,-0.26 0.28,-0.44 0.69,-0.44 0.42,0 1.23,0.25 1.45,1.1 l 0.63,2.49 c 0.02,0.08 0.03,0.14 0.03,0.24 0,0.39 -0.33,0.66 -0.74,0.66 -0.78,0 -1.22,-0.97 -1.22,-1.07 0,-0.09 0.1,-0.09 0.12,-0.09 0.08,0 0.09,0.02 0.14,0.13 0.17,0.4 0.53,0.83 0.94,0.83 0.17,0 0.23,-0.12 0.23,-0.34 0,-0.07 -0.01,-0.17 -0.02,-0.21 z"
       id="path7469"
       inkscape:connector-curvature="0"
       style="fill:#000000;stroke-width:0" /><path
       d="m 239.29,663.99 h -6.02 v -0.47 h 1.07 v -5.82 h -1.07 v -0.47 c 0.38,0.04 1.38,0.04 1.82,0.04 0.49,0 1.57,0 2.01,-0.04 v 0.47 h -1.34 v 2.68 h 0.49 c 0.96,0 1.05,-0.42 1.05,-1.16 h 0.47 v 2.79 h -0.47 c 0,-0.73 -0.08,-1.16 -1.05,-1.16 h -0.49 v 2.67 h 1.39 c 1.6,0 1.83,-0.76 1.98,-1.92 h 0.47 z"
       id="path7471"
       inkscape:connector-curvature="0"
       style="fill:#000000;stroke-width:0" /><path
       d="m 243.61,657.01 h -0.24 c -0.02,-0.16 -0.09,-0.57 -0.18,-0.64 -0.06,-0.04 -0.59,-0.04 -0.69,-0.04 h -1.28 c 0.73,0.65 0.97,0.84 1.39,1.17 0.52,0.41 1,0.84 1,1.5 0,0.84 -0.74,1.36 -1.63,1.36 -0.87,0 -1.45,-0.61 -1.45,-1.25 0,-0.35 0.3,-0.39 0.37,-0.39 0.17,0 0.37,0.12 0.37,0.37 0,0.13 -0.05,0.37 -0.41,0.37 0.21,0.5 0.69,0.65 1.01,0.65 0.7,0 1.06,-0.54 1.06,-1.11 0,-0.6 -0.43,-1.08 -0.65,-1.33 l -1.68,-1.66 c -0.07,-0.06 -0.07,-0.07 -0.07,-0.27 h 2.87 z"
       id="path7473"
       inkscape:connector-curvature="0"
       style="fill:#000000;stroke-width:0" /><path
       d="m 248.72,657.66 v -0.49 l 1.82,0.06 v 0.47 c -0.62,0 -0.69,0 -0.69,0.39 v 6.04 l -1.76,-0.08 v -0.47 c 0.62,0 0.69,0 0.69,-0.38 v -1.94 c -0.5,0.39 -1.02,0.45 -1.35,0.45 l 0.1,-0.36 c 0.57,0 0.97,-0.32 1.19,-0.61 h 0 v -2.48 c -0.13,-0.18 -0.54,-0.73 -1.3,-0.73 -1.21,0 -1.21,1.2 -1.21,1.9 0,0.48 0,1.01 0.26,1.4 0.29,0.42 0.76,0.52 1.06,0.52 l -0.1,0.36 c -1.45,0 -2.49,-0.88 -2.49,-2.28 0,-1.31 0.91,-2.26 2.38,-2.26 0.61,0 1.09,0.24 1.4,0.49 z"
       id="path7475"
       inkscape:connector-curvature="0"
       style="fill:#000000;stroke-width:0" /><path
       d="m 253.18,660.09 0,0.01 0,0.01 0,0.01 0,0.01 -0.01,0.01 0,0.01 0,0.01 -0.01,0.02 0,0.01 -0.01,0.01 0,0.01 -0.01,0.01 0,0.01 -0.01,0.01 -0.01,0.01 -0.01,0.01 0,0.01 -0.01,0.01 -0.01,0.01 -0.01,0.01 -0.02,0 -0.01,0.01 -0.01,0.01 -0.01,0.01 -0.02,0 -0.01,0.01 -0.01,0 -0.02,0 -0.02,0.01 -0.01,0 -0.02,0 -0.02,0 c -0.19,0 -0.39,-0.18 -0.39,-0.38 0,-0.12 0.09,-0.26 0.28,-0.26 0.2,0 0.39,0.19 0.39,0.38 z"
       id="path7477"
       inkscape:connector-curvature="0"
       style="fill:#000000;stroke-width:0" /><path
       d="m 251.76,656.55 -0.01,-0.01 0,-0.02 -0.01,-0.03 -0.01,-0.02 0,-0.02 -0.01,-0.01 0,-0.02 -0.01,-0.02 0,-0.02 0,-0.02 -0.01,-0.01 0,-0.01 0,-0.01 0,-0.01 0,-0.01 0,-0.02 0,-0.01 0,-0.01 0,-0.01 c 0,-0.32 0.28,-0.59 0.66,-0.59 0.69,0 1,0.96 1,1.06 0,0.1 -0.09,0.1 -0.11,0.1 -0.1,0 -0.1,-0.05 -0.13,-0.12 -0.16,-0.56 -0.47,-0.84 -0.74,-0.84 -0.14,0 -0.17,0.09 -0.17,0.24 0,0.16 0.04,0.29 0.11,0.44 0.07,0.19 0.14,0.38 0.22,0.56 0.06,0.17 0.31,0.8 0.34,0.88 0.02,0.07 0.04,0.16 0.04,0.23 0,0.32 -0.28,0.59 -0.66,0.59 -0.69,0 -1.01,-0.95 -1.01,-1.07 0,-0.09 0.1,-0.09 0.12,-0.09 0.1,0 0.1,0.04 0.12,0.11 0.19,0.6 0.49,0.85 0.75,0.85 0.11,0 0.17,-0.05 0.17,-0.24 0,-0.16 -0.04,-0.27 -0.21,-0.7 z"
       id="path7479"
       inkscape:connector-curvature="0"
       style="fill:#000000;stroke-width:0" /></g></svg>
