<?xml version="1.0" encoding="UTF-8" standalone="no"?>
<!-- Created with Inkscape (http://www.inkscape.org/) -->

<svg
   xmlns:dc="http://purl.org/dc/elements/1.1/"
   xmlns:cc="http://creativecommons.org/ns#"
   xmlns:rdf="http://www.w3.org/1999/02/22-rdf-syntax-ns#"
   xmlns:svg="http://www.w3.org/2000/svg"
   xmlns="http://www.w3.org/2000/svg"
   xmlns:sodipodi="http://sodipodi.sourceforge.net/DTD/sodipodi-0.dtd"
   xmlns:inkscape="http://www.inkscape.org/namespaces/inkscape"
   id="svg10083"
   version="1.1"
   inkscape:version="0.48.4 r9939"
   width="450"
   height="229.5"
   xml:space="preserve"
   sodipodi:docname="prgraph.svg"
   inkscape:export-filename="/home/eric/masters_presentation/img/prgraph.png"
   inkscape:export-xdpi="90"
   inkscape:export-ydpi="90"><metadata
     id="metadata10089"><rdf:RDF><cc:Work
         rdf:about=""><dc:format>image/svg+xml</dc:format><dc:type
           rdf:resource="http://purl.org/dc/dcmitype/StillImage" /><dc:title></dc:title></cc:Work></rdf:RDF></metadata><defs
     id="defs10087"><clipPath
       clipPathUnits="userSpaceOnUse"
       id="clipPath10101"><path
         d="m 72,18.36 216,0 0,146.88 -216,0 0,-146.88 z"
         id="path10103" /></clipPath><clipPath
       clipPathUnits="userSpaceOnUse"
       id="clipPath10111"><path
         d="m 72,18.36 216,0 0,146.88 -216,0 0,-146.88 z"
         id="path10113" /></clipPath><clipPath
       clipPathUnits="userSpaceOnUse"
       id="clipPath10121"><path
         d="m 72,18.36 216,0 0,146.88 -216,0 0,-146.88 z"
         id="path10123" /></clipPath><clipPath
       clipPathUnits="userSpaceOnUse"
       id="clipPath10131"><path
         d="m 72,18.36 216,0 0,146.88 -216,0 0,-146.88 z"
         id="path10133" /></clipPath><clipPath
       clipPathUnits="userSpaceOnUse"
       id="clipPath10141"><path
         d="m 72,18.36 216,0 0,146.88 -216,0 0,-146.88 z"
         id="path10143" /></clipPath><clipPath
       clipPathUnits="userSpaceOnUse"
       id="clipPath10151"><path
         d="m 72,18.36 216,0 0,146.88 -216,0 0,-146.88 z"
         id="path10153" /></clipPath><clipPath
       clipPathUnits="userSpaceOnUse"
       id="clipPath10161"><path
         d="m 72,18.36 216,0 0,146.88 -216,0 0,-146.88 z"
         id="path10163" /></clipPath><clipPath
       clipPathUnits="userSpaceOnUse"
       id="clipPath10171"><path
         d="m 72,18.36 216,0 0,146.88 -216,0 0,-146.88 z"
         id="path10173" /></clipPath><clipPath
       clipPathUnits="userSpaceOnUse"
       id="clipPath10183"><path
         d="m 72,18.36 216,0 0,146.88 -216,0 0,-146.88 z"
         id="path10185" /></clipPath><clipPath
       clipPathUnits="userSpaceOnUse"
       id="clipPath10193"><path
         d="m 96.423077,155.78731 1,0 0,2.04915 -1,0 0,-2.04915 z"
         id="path10195" /></clipPath><clipPath
       clipPathUnits="userSpaceOnUse"
       id="clipPath10205"><path
         d="m 146.26923,150.92629 1,0 0,4.84685 -1,0 0,-4.84685 z"
         id="path10207" /></clipPath><clipPath
       clipPathUnits="userSpaceOnUse"
       id="clipPath10217"><path
         d="m 196.11538,148.43166 1,0 0,3.84823 -1,0 0,-3.84823 z"
         id="path10219" /></clipPath><clipPath
       clipPathUnits="userSpaceOnUse"
       id="clipPath10229"><path
         d="m 245.96154,149.53909 1,0 0,3.39748 -1,0 0,-3.39748 z"
         id="path10231" /></clipPath><clipPath
       clipPathUnits="userSpaceOnUse"
       id="clipPath10241"><path
         d="m 72,18.36 216,0 0,146.88 -216,0 0,-146.88 z"
         id="path10243" /></clipPath><clipPath
       clipPathUnits="userSpaceOnUse"
       id="clipPath10251"><path
         d="m 113.03846,156.13703 1,0 0,1.69943 -1,0 0,-1.69943 z"
         id="path10253" /></clipPath><clipPath
       clipPathUnits="userSpaceOnUse"
       id="clipPath10263"><path
         d="m 162.88462,153.02457 1,0 0,3.27314 -1,0 0,-3.27314 z"
         id="path10265" /></clipPath><clipPath
       clipPathUnits="userSpaceOnUse"
       id="clipPath10275"><path
         d="m 212.73077,150.66594 1,0 0,3.24983 -1,0 0,-3.24983 z"
         id="path10277" /></clipPath><clipPath
       clipPathUnits="userSpaceOnUse"
       id="clipPath10287"><path
         d="m 262.57692,150.63486 1,0 0,2.83211 -1,0 0,-2.83211 z"
         id="path10289" /></clipPath><clipPath
       clipPathUnits="userSpaceOnUse"
       id="clipPath10297"><path
         d="m 72,18.36 216,0 0,146.88 -216,0 0,-146.88 z"
         id="path10299" /></clipPath><clipPath
       clipPathUnits="userSpaceOnUse"
       id="clipPath10313"><path
         d="m 72,18.36 216,0 0,146.88 -216,0 0,-146.88 z"
         id="path10315" /></clipPath><clipPath
       clipPathUnits="userSpaceOnUse"
       id="clipPath10329"><path
         d="m 72,18.36 216,0 0,146.88 -216,0 0,-146.88 z"
         id="path10331" /></clipPath><clipPath
       clipPathUnits="userSpaceOnUse"
       id="clipPath10345"><path
         d="m 72,18.36 216,0 0,146.88 -216,0 0,-146.88 z"
         id="path10347" /></clipPath><clipPath
       clipPathUnits="userSpaceOnUse"
       id="clipPath10361"><path
         d="m 72,18.36 216,0 0,146.88 -216,0 0,-146.88 z"
         id="path10363" /></clipPath><filter
       id="filter10481"
       inkscape:label="Invert"
       x="0"
       y="0"
       width="1"
       height="1"
       inkscape:menu="Color"
       inkscape:menu-tooltip="Invert colors"
       color-interpolation-filters="sRGB"><feColorMatrix
         id="feColorMatrix10483"
         type="saturate"
         values="1"
         result="fbSourceGraphic" /><feColorMatrix
         id="feColorMatrix10485"
         in="fbSourceGraphic"
         values="-1 0 0 0 1 0 -1 0 0 1 0 0 -1 0 1 0 0 0 1 0 " /></filter><filter
       id="filter10487"
       inkscape:label="Invert"
       x="0"
       y="0"
       width="1"
       height="1"
       inkscape:menu="Color"
       inkscape:menu-tooltip="Invert colors"
       color-interpolation-filters="sRGB"><feColorMatrix
         id="feColorMatrix10489"
         type="saturate"
         values="1"
         result="fbSourceGraphic" /><feColorMatrix
         id="feColorMatrix10491"
         in="fbSourceGraphic"
         values="-1 0 0 0 1 0 -1 0 0 1 0 0 -1 0 1 0 0 0 1 0 " /></filter><filter
       id="filter10493"
       inkscape:label="Invert"
       x="0"
       y="0"
       width="1"
       height="1"
       inkscape:menu="Color"
       inkscape:menu-tooltip="Invert colors"
       color-interpolation-filters="sRGB"><feColorMatrix
         id="feColorMatrix10495"
         type="saturate"
         values="1"
         result="fbSourceGraphic" /><feColorMatrix
         id="feColorMatrix10497"
         in="fbSourceGraphic"
         values="-1 0 0 0 1 0 -1 0 0 1 0 0 -1 0 1 0 0 0 1 0 " /></filter><filter
       id="filter10499"
       inkscape:label="Invert"
       x="0"
       y="0"
       width="1"
       height="1"
       inkscape:menu="Color"
       inkscape:menu-tooltip="Invert colors"
       color-interpolation-filters="sRGB"><feColorMatrix
         id="feColorMatrix10501"
         type="saturate"
         values="1"
         result="fbSourceGraphic" /><feColorMatrix
         id="feColorMatrix10503"
         in="fbSourceGraphic"
         values="-1 0 0 0 1 0 -1 0 0 1 0 0 -1 0 1 0 0 0 1 0 " /></filter><filter
       id="filter10505"
       inkscape:label="Invert"
       x="0"
       y="0"
       width="1"
       height="1"
       inkscape:menu="Color"
       inkscape:menu-tooltip="Invert colors"
       color-interpolation-filters="sRGB"><feColorMatrix
         id="feColorMatrix10507"
         type="saturate"
         values="1"
         result="fbSourceGraphic" /><feColorMatrix
         id="feColorMatrix10509"
         in="fbSourceGraphic"
         values="-1 0 0 0 1 0 -1 0 0 1 0 0 -1 0 1 0 0 0 1 0 " /></filter><filter
       id="filter10511"
       inkscape:label="Invert"
       x="0"
       y="0"
       width="1"
       height="1"
       inkscape:menu="Color"
       inkscape:menu-tooltip="Invert colors"
       color-interpolation-filters="sRGB"><feColorMatrix
         id="feColorMatrix10513"
         type="saturate"
         values="1"
         result="fbSourceGraphic" /><feColorMatrix
         id="feColorMatrix10515"
         in="fbSourceGraphic"
         values="-1 0 0 0 1 0 -1 0 0 1 0 0 -1 0 1 0 0 0 1 0 " /></filter><filter
       id="filter10517"
       inkscape:label="Invert"
       x="0"
       y="0"
       width="1"
       height="1"
       inkscape:menu="Color"
       inkscape:menu-tooltip="Invert colors"
       color-interpolation-filters="sRGB"><feColorMatrix
         id="feColorMatrix10519"
         type="saturate"
         values="1"
         result="fbSourceGraphic" /><feColorMatrix
         id="feColorMatrix10521"
         in="fbSourceGraphic"
         values="-1 0 0 0 1 0 -1 0 0 1 0 0 -1 0 1 0 0 0 1 0 " /></filter><filter
       id="filter10523"
       inkscape:label="Invert"
       x="0"
       y="0"
       width="1"
       height="1"
       inkscape:menu="Color"
       inkscape:menu-tooltip="Invert colors"
       color-interpolation-filters="sRGB"><feColorMatrix
         id="feColorMatrix10525"
         type="saturate"
         values="1"
         result="fbSourceGraphic" /><feColorMatrix
         id="feColorMatrix10527"
         in="fbSourceGraphic"
         values="-1 0 0 0 1 0 -1 0 0 1 0 0 -1 0 1 0 0 0 1 0 " /></filter><filter
       id="filter10529"
       inkscape:label="Invert"
       x="0"
       y="0"
       width="1"
       height="1"
       inkscape:menu="Color"
       inkscape:menu-tooltip="Invert colors"
       color-interpolation-filters="sRGB"><feColorMatrix
         id="feColorMatrix10531"
         type="saturate"
         values="1"
         result="fbSourceGraphic" /><feColorMatrix
         id="feColorMatrix10533"
         in="fbSourceGraphic"
         values="-1 0 0 0 1 0 -1 0 0 1 0 0 -1 0 1 0 0 0 1 0 " /></filter><filter
       id="filter10535"
       inkscape:label="Invert"
       x="0"
       y="0"
       width="1"
       height="1"
       inkscape:menu="Color"
       inkscape:menu-tooltip="Invert colors"
       color-interpolation-filters="sRGB"><feColorMatrix
         id="feColorMatrix10537"
         type="saturate"
         values="1"
         result="fbSourceGraphic" /><feColorMatrix
         id="feColorMatrix10539"
         in="fbSourceGraphic"
         values="-1 0 0 0 1 0 -1 0 0 1 0 0 -1 0 1 0 0 0 1 0 " /></filter><filter
       id="filter10541"
       inkscape:label="Invert"
       x="0"
       y="0"
       width="1"
       height="1"
       inkscape:menu="Color"
       inkscape:menu-tooltip="Invert colors"
       color-interpolation-filters="sRGB"><feColorMatrix
         id="feColorMatrix10543"
         type="saturate"
         values="1"
         result="fbSourceGraphic" /><feColorMatrix
         id="feColorMatrix10545"
         in="fbSourceGraphic"
         values="-1 0 0 0 1 0 -1 0 0 1 0 0 -1 0 1 0 0 0 1 0 " /></filter><filter
       id="filter10547"
       inkscape:label="Invert"
       x="0"
       y="0"
       width="1"
       height="1"
       inkscape:menu="Color"
       inkscape:menu-tooltip="Invert colors"
       color-interpolation-filters="sRGB"><feColorMatrix
         id="feColorMatrix10549"
         type="saturate"
         values="1"
         result="fbSourceGraphic" /><feColorMatrix
         id="feColorMatrix10551"
         in="fbSourceGraphic"
         values="-1 0 0 0 1 0 -1 0 0 1 0 0 -1 0 1 0 0 0 1 0 " /></filter><filter
       id="filter10553"
       inkscape:label="Invert"
       x="0"
       y="0"
       width="1"
       height="1"
       inkscape:menu="Color"
       inkscape:menu-tooltip="Invert colors"
       color-interpolation-filters="sRGB"><feColorMatrix
         id="feColorMatrix10555"
         type="saturate"
         values="1"
         result="fbSourceGraphic" /><feColorMatrix
         id="feColorMatrix10557"
         in="fbSourceGraphic"
         values="-1 0 0 0 1 0 -1 0 0 1 0 0 -1 0 1 0 0 0 1 0 " /></filter><filter
       id="filter10559"
       inkscape:label="Invert"
       x="0"
       y="0"
       width="1"
       height="1"
       inkscape:menu="Color"
       inkscape:menu-tooltip="Invert colors"
       color-interpolation-filters="sRGB"><feColorMatrix
         id="feColorMatrix10561"
         type="saturate"
         values="1"
         result="fbSourceGraphic" /><feColorMatrix
         id="feColorMatrix10563"
         in="fbSourceGraphic"
         values="-1 0 0 0 1 0 -1 0 0 1 0 0 -1 0 1 0 0 0 1 0 " /></filter><filter
       id="filter10565"
       inkscape:label="Invert"
       x="0"
       y="0"
       width="1"
       height="1"
       inkscape:menu="Color"
       inkscape:menu-tooltip="Invert colors"
       color-interpolation-filters="sRGB"><feColorMatrix
         id="feColorMatrix10567"
         type="saturate"
         values="1"
         result="fbSourceGraphic" /><feColorMatrix
         id="feColorMatrix10569"
         in="fbSourceGraphic"
         values="-1 0 0 0 1 0 -1 0 0 1 0 0 -1 0 1 0 0 0 1 0 " /></filter><filter
       id="filter10571"
       inkscape:label="Invert"
       x="0"
       y="0"
       width="1"
       height="1"
       inkscape:menu="Color"
       inkscape:menu-tooltip="Invert colors"
       color-interpolation-filters="sRGB"><feColorMatrix
         id="feColorMatrix10573"
         type="saturate"
         values="1"
         result="fbSourceGraphic" /><feColorMatrix
         id="feColorMatrix10575"
         in="fbSourceGraphic"
         values="-1 0 0 0 1 0 -1 0 0 1 0 0 -1 0 1 0 0 0 1 0 " /></filter><filter
       id="filter10577"
       inkscape:label="Invert"
       x="0"
       y="0"
       width="1"
       height="1"
       inkscape:menu="Color"
       inkscape:menu-tooltip="Invert colors"
       color-interpolation-filters="sRGB"><feColorMatrix
         id="feColorMatrix10579"
         type="saturate"
         values="1"
         result="fbSourceGraphic" /><feColorMatrix
         id="feColorMatrix10581"
         in="fbSourceGraphic"
         values="-1 0 0 0 1 0 -1 0 0 1 0 0 -1 0 1 0 0 0 1 0 " /></filter><filter
       id="filter10583"
       inkscape:label="Invert"
       x="0"
       y="0"
       width="1"
       height="1"
       inkscape:menu="Color"
       inkscape:menu-tooltip="Invert colors"
       color-interpolation-filters="sRGB"><feColorMatrix
         id="feColorMatrix10585"
         type="saturate"
         values="1"
         result="fbSourceGraphic" /><feColorMatrix
         id="feColorMatrix10587"
         in="fbSourceGraphic"
         values="-1 0 0 0 1 0 -1 0 0 1 0 0 -1 0 1 0 0 0 1 0 " /></filter></defs><sodipodi:namedview
     pagecolor="#ffffff"
     bordercolor="#666666"
     borderopacity="1"
     objecttolerance="10"
     gridtolerance="10"
     guidetolerance="10"
     inkscape:pageopacity="0"
     inkscape:pageshadow="2"
     inkscape:window-width="1328"
     inkscape:window-height="750"
     id="namedview10085"
     showgrid="false"
     inkscape:zoom="2.2488889"
     inkscape:cx="239.99364"
     inkscape:cy="105.76054"
     inkscape:window-x="38"
     inkscape:window-y="18"
     inkscape:window-maximized="1"
     inkscape:current-layer="g10091" /><g
     id="g10091"
     inkscape:groupmode="layer"
     inkscape:label="prgraph"
     transform="matrix(1.25,0,0,-1.25,0,229.5)"><path
       d="m 0,0 360,0 0,183.6 -360,0 L 0,0 z"
       style="fill:#ffffff;fill-opacity:1;fill-rule:nonzero;stroke:none;filter:url(#filter10583)"
       id="path10093" /><path
       d="m 72,18.36 216,0 0,146.88 -216,0 0,-146.88 z"
       style="fill:#ffffff;fill-opacity:1;fill-rule:nonzero;stroke:none;filter:url(#filter10577)"
       id="path10095" /><g
       id="g10097"
       style="filter:url(#filter10571)"><g
         id="g10099"
         clip-path="url(#clipPath10101)"><path
           d="m 88.615385,18.36 16.615385,0 0,138.48686 -16.615385,0 0,-138.48686 z"
           style="fill:#545454;fill-opacity:1;fill-rule:nonzero;stroke:#000000;stroke-opacity:1;stroke-width:0.2;stroke-linecap:butt;stroke-linejoin:round;stroke-miterlimit:10;stroke-dasharray:none"
           id="path10105" /></g></g><g
       id="g10107"
       style="filter:url(#filter10565)"><g
         id="g10109"
         clip-path="url(#clipPath10111)"><path
           d="m 138.46154,18.36 16.61538,0 0,134.98971 -16.61538,0 0,-134.98971 z"
           style="fill:#545454;fill-opacity:1;fill-rule:nonzero;stroke:#000000;stroke-opacity:1;stroke-width:0.2;stroke-linecap:butt;stroke-linejoin:round;stroke-miterlimit:10;stroke-dasharray:none"
           id="path10115" /></g></g><g
       id="g10117"
       style="filter:url(#filter10559)"><g
         id="g10119"
         clip-path="url(#clipPath10121)"><path
           d="m 188.30769,18.36 16.61539,0 0,131.97829 -16.61539,0 0,-131.97829 z"
           style="fill:#545454;fill-opacity:1;fill-rule:nonzero;stroke:#000000;stroke-opacity:1;stroke-width:0.2;stroke-linecap:butt;stroke-linejoin:round;stroke-miterlimit:10;stroke-dasharray:none"
           id="path10125" /></g></g><g
       id="g10127"
       style="filter:url(#filter10553)"><g
         id="g10129"
         clip-path="url(#clipPath10131)"><path
           d="m 238.15385,18.36 16.61538,0 0,133.01577 -16.61538,0 0,-133.01577 z"
           style="fill:#545454;fill-opacity:1;fill-rule:nonzero;stroke:#000000;stroke-opacity:1;stroke-width:0.2;stroke-linecap:butt;stroke-linejoin:round;stroke-miterlimit:10;stroke-dasharray:none"
           id="path10135" /></g></g><g
       id="g10137"
       style="filter:url(#filter10547)"><g
         id="g10139"
         clip-path="url(#clipPath10141)"><path
           d="m 105.23077,18.36 16.61538,0 0,138.62674 -16.61538,0 0,-138.62674 z"
           style="fill:#808080;fill-opacity:1;fill-rule:nonzero;stroke:#000000;stroke-opacity:1;stroke-width:0.2;stroke-linecap:butt;stroke-linejoin:round;stroke-miterlimit:10;stroke-dasharray:none"
           id="path10145" /></g></g><g
       id="g10147"
       style="filter:url(#filter10541)"><g
         id="g10149"
         clip-path="url(#clipPath10151)"><path
           d="m 155.07692,18.36 16.61539,0 0,136.38857 -16.61539,0 0,-136.38857 z"
           style="fill:#808080;fill-opacity:1;fill-rule:nonzero;stroke:#000000;stroke-opacity:1;stroke-width:0.2;stroke-linecap:butt;stroke-linejoin:round;stroke-miterlimit:10;stroke-dasharray:none"
           id="path10155" /></g></g><g
       id="g10157"
       style="filter:url(#filter10535)"><g
         id="g10159"
         clip-path="url(#clipPath10161)"><path
           d="m 204.92308,18.36 16.61538,0 0,133.93863 -16.61538,0 0,-133.93863 z"
           style="fill:#808080;fill-opacity:1;fill-rule:nonzero;stroke:#000000;stroke-opacity:1;stroke-width:0.2;stroke-linecap:butt;stroke-linejoin:round;stroke-miterlimit:10;stroke-dasharray:none"
           id="path10165" /></g></g><g
       id="g10167"
       style="filter:url(#filter10529)"><g
         id="g10169"
         clip-path="url(#clipPath10171)"><path
           d="m 254.76923,18.36 16.61539,0 0,133.77737 -16.61539,0 0,-133.77737 z"
           style="fill:#808080;fill-opacity:1;fill-rule:nonzero;stroke:#000000;stroke-opacity:1;stroke-width:0.2;stroke-linecap:butt;stroke-linejoin:round;stroke-miterlimit:10;stroke-dasharray:none"
           id="path10175" /><g
           id="g10177" /></g></g><g
       id="g10179"
       style="filter:url(#filter10523)"><g
         id="g10181"
         clip-path="url(#clipPath10183)"><g
           id="g10187"><g
             id="g10189"><g
               id="g10191"
               clip-path="url(#clipPath10193)"><path
                 d="m 96.923077,156.28731 0,1.04915"
                 style="fill:none;stroke:#000000;stroke-opacity:1;stroke-width:0.5;stroke-linecap:butt;stroke-linejoin:round;stroke-miterlimit:10;stroke-dasharray:none"
                 id="path10197" /></g></g><g
             id="g10199"><g
               id="g10201"><g
                 id="g10203"
                 clip-path="url(#clipPath10205)"><path
                   d="m 146.76923,151.42629 0,3.84685"
                   style="fill:none;stroke:#000000;stroke-opacity:1;stroke-width:0.5;stroke-linecap:butt;stroke-linejoin:round;stroke-miterlimit:10;stroke-dasharray:none"
                   id="path10209" /></g></g><g
               id="g10211"><g
                 id="g10213"><g
                   id="g10215"
                   clip-path="url(#clipPath10217)"><path
                     d="m 196.61538,148.93166 0,2.84823"
                     style="fill:none;stroke:#000000;stroke-opacity:1;stroke-width:0.5;stroke-linecap:butt;stroke-linejoin:round;stroke-miterlimit:10;stroke-dasharray:none"
                     id="path10221" /></g></g><g
                 id="g10223"><g
                   id="g10225"><g
                     id="g10227"
                     clip-path="url(#clipPath10229)"><path
                       d="m 246.46154,150.03909 0,2.39748"
                       style="fill:none;stroke:#000000;stroke-opacity:1;stroke-width:0.5;stroke-linecap:butt;stroke-linejoin:round;stroke-miterlimit:10;stroke-dasharray:none"
                       id="path10233" /></g></g></g></g></g></g></g></g><g
       id="g10235" /><g
       id="g10237"
       style="filter:url(#filter10517)"><g
         id="g10239"
         clip-path="url(#clipPath10241)"><g
           id="g10245"><g
             id="g10247"><g
               id="g10249"
               clip-path="url(#clipPath10251)"><path
                 d="m 113.53846,156.63703 0,0.69943"
                 style="fill:none;stroke:#000000;stroke-opacity:1;stroke-width:0.5;stroke-linecap:butt;stroke-linejoin:round;stroke-miterlimit:10;stroke-dasharray:none"
                 id="path10255" /></g></g><g
             id="g10257"><g
               id="g10259"><g
                 id="g10261"
                 clip-path="url(#clipPath10263)"><path
                   d="m 163.38462,153.52457 0,2.27314"
                   style="fill:none;stroke:#000000;stroke-opacity:1;stroke-width:0.5;stroke-linecap:butt;stroke-linejoin:round;stroke-miterlimit:10;stroke-dasharray:none"
                   id="path10267" /></g></g><g
               id="g10269"><g
                 id="g10271"><g
                   id="g10273"
                   clip-path="url(#clipPath10275)"><path
                     d="m 213.23077,151.16594 0,2.24983"
                     style="fill:none;stroke:#000000;stroke-opacity:1;stroke-width:0.5;stroke-linecap:butt;stroke-linejoin:round;stroke-miterlimit:10;stroke-dasharray:none"
                     id="path10279" /></g></g><g
                 id="g10281"><g
                   id="g10283"><g
                     id="g10285"
                     clip-path="url(#clipPath10287)"><path
                       d="m 263.07692,151.13486 0,1.83211"
                       style="fill:none;stroke:#000000;stroke-opacity:1;stroke-width:0.5;stroke-linecap:butt;stroke-linejoin:round;stroke-miterlimit:10;stroke-dasharray:none"
                       id="path10291" /></g></g></g></g></g></g></g></g><g
       id="g10293"
       style="filter:url(#filter10511)"><g
         id="g10295"
         clip-path="url(#clipPath10297)"><path
           d="m 98.923077,156.28731 -4,0"
           style="fill:#000000;fill-opacity:1;fill-rule:nonzero;stroke:#000000;stroke-opacity:1;stroke-width:0.5;stroke-linecap:butt;stroke-linejoin:round;stroke-miterlimit:10;stroke-dasharray:none"
           id="path10301" /><path
           d="m 148.76923,151.42629 -4,0"
           style="fill:#000000;fill-opacity:1;fill-rule:nonzero;stroke:#000000;stroke-opacity:1;stroke-width:0.5;stroke-linecap:butt;stroke-linejoin:round;stroke-miterlimit:10;stroke-dasharray:none"
           id="path10303" /><path
           d="m 198.61538,148.93166 -4,0"
           style="fill:#000000;fill-opacity:1;fill-rule:nonzero;stroke:#000000;stroke-opacity:1;stroke-width:0.5;stroke-linecap:butt;stroke-linejoin:round;stroke-miterlimit:10;stroke-dasharray:none"
           id="path10305" /><path
           d="m 248.46154,150.03909 -4,0"
           style="fill:#000000;fill-opacity:1;fill-rule:nonzero;stroke:#000000;stroke-opacity:1;stroke-width:0.5;stroke-linecap:butt;stroke-linejoin:round;stroke-miterlimit:10;stroke-dasharray:none"
           id="path10307" /></g></g><g
       id="g10309"
       style="filter:url(#filter10505)"><g
         id="g10311"
         clip-path="url(#clipPath10313)"><path
           d="m 98.923077,157.33646 -4,0"
           style="fill:#000000;fill-opacity:1;fill-rule:nonzero;stroke:#000000;stroke-opacity:1;stroke-width:0.5;stroke-linecap:butt;stroke-linejoin:round;stroke-miterlimit:10;stroke-dasharray:none"
           id="path10317" /><path
           d="m 148.76923,155.27314 -4,0"
           style="fill:#000000;fill-opacity:1;fill-rule:nonzero;stroke:#000000;stroke-opacity:1;stroke-width:0.5;stroke-linecap:butt;stroke-linejoin:round;stroke-miterlimit:10;stroke-dasharray:none"
           id="path10319" /><path
           d="m 198.61538,151.77989 -4,0"
           style="fill:#000000;fill-opacity:1;fill-rule:nonzero;stroke:#000000;stroke-opacity:1;stroke-width:0.5;stroke-linecap:butt;stroke-linejoin:round;stroke-miterlimit:10;stroke-dasharray:none"
           id="path10321" /><path
           d="m 248.46154,152.43657 -4,0"
           style="fill:#000000;fill-opacity:1;fill-rule:nonzero;stroke:#000000;stroke-opacity:1;stroke-width:0.5;stroke-linecap:butt;stroke-linejoin:round;stroke-miterlimit:10;stroke-dasharray:none"
           id="path10323" /></g></g><g
       id="g10325"
       style="filter:url(#filter10499)"><g
         id="g10327"
         clip-path="url(#clipPath10329)"><path
           d="m 115.53846,156.63703 -4,0"
           style="fill:#000000;fill-opacity:1;fill-rule:nonzero;stroke:#000000;stroke-opacity:1;stroke-width:0.5;stroke-linecap:butt;stroke-linejoin:round;stroke-miterlimit:10;stroke-dasharray:none"
           id="path10333" /><path
           d="m 165.38462,153.52457 -4,0"
           style="fill:#000000;fill-opacity:1;fill-rule:nonzero;stroke:#000000;stroke-opacity:1;stroke-width:0.5;stroke-linecap:butt;stroke-linejoin:round;stroke-miterlimit:10;stroke-dasharray:none"
           id="path10335" /><path
           d="m 215.23077,151.16594 -4,0"
           style="fill:#000000;fill-opacity:1;fill-rule:nonzero;stroke:#000000;stroke-opacity:1;stroke-width:0.5;stroke-linecap:butt;stroke-linejoin:round;stroke-miterlimit:10;stroke-dasharray:none"
           id="path10337" /><path
           d="m 265.07692,151.13486 -4,0"
           style="fill:#000000;fill-opacity:1;fill-rule:nonzero;stroke:#000000;stroke-opacity:1;stroke-width:0.5;stroke-linecap:butt;stroke-linejoin:round;stroke-miterlimit:10;stroke-dasharray:none"
           id="path10339" /></g></g><g
       id="g10341"
       style="filter:url(#filter10493)"><g
         id="g10343"
         clip-path="url(#clipPath10345)"><path
           d="m 115.53846,157.33646 -4,0"
           style="fill:#000000;fill-opacity:1;fill-rule:nonzero;stroke:#000000;stroke-opacity:1;stroke-width:0.5;stroke-linecap:butt;stroke-linejoin:round;stroke-miterlimit:10;stroke-dasharray:none"
           id="path10349" /><path
           d="m 165.38462,155.79771 -4,0"
           style="fill:#000000;fill-opacity:1;fill-rule:nonzero;stroke:#000000;stroke-opacity:1;stroke-width:0.5;stroke-linecap:butt;stroke-linejoin:round;stroke-miterlimit:10;stroke-dasharray:none"
           id="path10351" /><path
           d="m 215.23077,153.41577 -4,0"
           style="fill:#000000;fill-opacity:1;fill-rule:nonzero;stroke:#000000;stroke-opacity:1;stroke-width:0.5;stroke-linecap:butt;stroke-linejoin:round;stroke-miterlimit:10;stroke-dasharray:none"
           id="path10353" /><path
           d="m 265.07692,152.96697 -4,0"
           style="fill:#000000;fill-opacity:1;fill-rule:nonzero;stroke:#000000;stroke-opacity:1;stroke-width:0.5;stroke-linecap:butt;stroke-linejoin:round;stroke-miterlimit:10;stroke-dasharray:none"
           id="path10355" /></g></g><g
       id="g10357"
       style="filter:url(#filter10487)"><g
         id="g10359"
         clip-path="url(#clipPath10361)"><path
           d="m 72,158.24571 216,0"
           style="fill:none;stroke:#000000;stroke-opacity:1;stroke-width:1;stroke-linecap:butt;stroke-linejoin:round;stroke-miterlimit:10;stroke-dasharray:6,6;stroke-dashoffset:0"
           id="path10365" /></g></g><g
       id="g10367"
       style="filter:url(#filter10481)"><path
         d="m 105.23077,18.36 0,4"
         style="fill:#000000;fill-opacity:1;fill-rule:nonzero;stroke:#000000;stroke-opacity:1;stroke-width:0.5;stroke-linecap:butt;stroke-linejoin:round;stroke-miterlimit:10;stroke-dasharray:none"
         id="path10369" /><path
         d="m 105.23077,165.24 0,-4"
         style="fill:#000000;fill-opacity:1;fill-rule:nonzero;stroke:#000000;stroke-opacity:1;stroke-width:0.5;stroke-linecap:butt;stroke-linejoin:round;stroke-miterlimit:10;stroke-dasharray:none"
         id="path10371" /><text
         transform="matrix(1,0,0,-1,93.699519,9.0475)"
         id="text10373"><tspan
           style="fill:#000000;fill-opacity:1;fill-rule:nonzero;stroke:none;font-family:DejaVu Sans;font-variant:normal;font-weight:normal;font-size:7;writing-mode:lr;-inkscape-font-specification:DejaVuSans"
           x="0 4.445 6.391 13.209 17.654 19.6"
           y="0"
           sodipodi:role="line"
           id="tspan10375">Simple</tspan></text>
<path
         d="m 155.07692,18.36 0,4"
         style="fill:#000000;fill-opacity:1;fill-rule:nonzero;stroke:#000000;stroke-opacity:1;stroke-width:0.5;stroke-linecap:butt;stroke-linejoin:round;stroke-miterlimit:10;stroke-dasharray:none"
         id="path10377" /><path
         d="m 155.07692,165.24 0,-4"
         style="fill:#000000;fill-opacity:1;fill-rule:nonzero;stroke:#000000;stroke-opacity:1;stroke-width:0.5;stroke-linecap:butt;stroke-linejoin:round;stroke-miterlimit:10;stroke-dasharray:none"
         id="path10379" /><text
         transform="matrix(1,0,0,-1,134.85817,9.0475)"
         id="text10381"><tspan
           style="fill:#000000;fill-opacity:1;fill-rule:nonzero;stroke:none;font-family:DejaVu Sans;font-variant:normal;font-weight:normal;font-size:7;writing-mode:lr;-inkscape-font-specification:DejaVuSans"
           x="0 5.264 7.21 11.515 14.392 18.683 21.56 25.41 29.848 31.794 35.644 39.935"
           y="0"
           sodipodi:role="line"
           id="tspan10383">Hierarchical</tspan></text>
<path
         d="m 204.92308,18.36 0,4"
         style="fill:#000000;fill-opacity:1;fill-rule:nonzero;stroke:#000000;stroke-opacity:1;stroke-width:0.5;stroke-linecap:butt;stroke-linejoin:round;stroke-miterlimit:10;stroke-dasharray:none"
         id="path10385" /><path
         d="m 204.92308,165.24 0,-4"
         style="fill:#000000;fill-opacity:1;fill-rule:nonzero;stroke:#000000;stroke-opacity:1;stroke-width:0.5;stroke-linecap:butt;stroke-linejoin:round;stroke-miterlimit:10;stroke-dasharray:none"
         id="path10387" /><text
         transform="matrix(1,0,0,-1,188.92308,9.0475)"
         id="text10389"><tspan
           style="fill:#000000;fill-opacity:1;fill-rule:nonzero;stroke:none;font-family:DejaVu Sans;font-variant:normal;font-weight:normal;font-size:7;writing-mode:lr;-inkscape-font-specification:DejaVuSans"
           x="0 4.445 8.75 13.188 15.932 20.237 24.675 28.525"
           y="0"
           sodipodi:role="line"
           id="tspan10391">Sentence</tspan></text>
<text
         transform="matrix(1,0,0,-1,189.46214,1.219375)"
         id="text10393"><tspan
           style="fill:#000000;fill-opacity:1;fill-rule:nonzero;stroke:none;font-family:DejaVu Sans;font-variant:normal;font-weight:normal;font-size:7;writing-mode:lr;-inkscape-font-specification:DejaVuSans"
           x="0 2.73 7.175 11.613 14.49 16.954 21.245 25.095 29.4"
           y="0"
           sodipodi:role="line"
           id="tspan10395">(Surface)</tspan></text>
<path
         d="m 254.76923,18.36 0,4"
         style="fill:#000000;fill-opacity:1;fill-rule:nonzero;stroke:#000000;stroke-opacity:1;stroke-width:0.5;stroke-linecap:butt;stroke-linejoin:round;stroke-miterlimit:10;stroke-dasharray:none"
         id="path10397" /><path
         d="m 254.76923,165.24 0,-4"
         style="fill:#000000;fill-opacity:1;fill-rule:nonzero;stroke:#000000;stroke-opacity:1;stroke-width:0.5;stroke-linecap:butt;stroke-linejoin:round;stroke-miterlimit:10;stroke-dasharray:none"
         id="path10399" /><text
         transform="matrix(1,0,0,-1,238.76923,9.0475)"
         id="text10401"><tspan
           style="fill:#000000;fill-opacity:1;fill-rule:nonzero;stroke:none;font-family:DejaVu Sans;font-variant:normal;font-weight:normal;font-size:7;writing-mode:lr;-inkscape-font-specification:DejaVuSans"
           x="0 4.445 8.75 13.188 15.932 20.237 24.675 28.525"
           y="0"
           sodipodi:role="line"
           id="tspan10403">Sentence</tspan></text>
<text
         transform="matrix(1,0,0,-1,233.83954,1.219375)"
         id="text10405"><tspan
           style="fill:#000000;fill-opacity:1;fill-rule:nonzero;stroke:none;font-family:DejaVu Sans;font-variant:normal;font-weight:normal;font-size:7;writing-mode:lr;-inkscape-font-specification:DejaVuSans"
           x="0 2.73 7.154 13.972 18.417 22.722 27.167 31.612 35.917 40.362"
           y="0"
           sodipodi:role="line"
           id="tspan10407">(Embedded)</tspan></text>
<path
         d="m 72,18.36 4,0"
         style="fill:#000000;fill-opacity:1;fill-rule:nonzero;stroke:#000000;stroke-opacity:1;stroke-width:0.5;stroke-linecap:butt;stroke-linejoin:round;stroke-miterlimit:10;stroke-dasharray:none"
         id="path10409" /><path
         d="m 288,18.36 -4,0"
         style="fill:#000000;fill-opacity:1;fill-rule:nonzero;stroke:#000000;stroke-opacity:1;stroke-width:0.5;stroke-linecap:butt;stroke-linejoin:round;stroke-miterlimit:10;stroke-dasharray:none"
         id="path10411" /><text
         transform="matrix(1,0,0,-1,64.484375,16.430312)"
         id="text10413"><tspan
           style="fill:#000000;fill-opacity:1;fill-rule:nonzero;stroke:none;font-family:DejaVu Sans;font-variant:normal;font-weight:normal;font-size:7;writing-mode:lr;-inkscape-font-specification:DejaVuSans"
           x="0"
           y="0"
           id="tspan10415">0</tspan></text>
<path
         d="m 72,46.337143 4,0"
         style="fill:#000000;fill-opacity:1;fill-rule:nonzero;stroke:#000000;stroke-opacity:1;stroke-width:0.5;stroke-linecap:butt;stroke-linejoin:round;stroke-miterlimit:10;stroke-dasharray:none"
         id="path10417" /><path
         d="m 288,46.337143 -4,0"
         style="fill:#000000;fill-opacity:1;fill-rule:nonzero;stroke:#000000;stroke-opacity:1;stroke-width:0.5;stroke-linecap:butt;stroke-linejoin:round;stroke-miterlimit:10;stroke-dasharray:none"
         id="path10419" /><text
         transform="matrix(1,0,0,-1,60.078125,44.407455)"
         id="text10421"><tspan
           style="fill:#000000;fill-opacity:1;fill-rule:nonzero;stroke:none;font-family:DejaVu Sans;font-variant:normal;font-weight:normal;font-size:7;writing-mode:lr;-inkscape-font-specification:DejaVuSans"
           x="0 4.452"
           y="0"
           sodipodi:role="line"
           id="tspan10423">20</tspan></text>
<path
         d="m 72,74.314286 4,0"
         style="fill:#000000;fill-opacity:1;fill-rule:nonzero;stroke:#000000;stroke-opacity:1;stroke-width:0.5;stroke-linecap:butt;stroke-linejoin:round;stroke-miterlimit:10;stroke-dasharray:none"
         id="path10425" /><path
         d="m 288,74.314286 -4,0"
         style="fill:#000000;fill-opacity:1;fill-rule:nonzero;stroke:#000000;stroke-opacity:1;stroke-width:0.5;stroke-linecap:butt;stroke-linejoin:round;stroke-miterlimit:10;stroke-dasharray:none"
         id="path10427" /><text
         transform="matrix(1,0,0,-1,59.90625,72.384598)"
         id="text10429"><tspan
           style="fill:#000000;fill-opacity:1;fill-rule:nonzero;stroke:none;font-family:DejaVu Sans;font-variant:normal;font-weight:normal;font-size:7;writing-mode:lr;-inkscape-font-specification:DejaVuSans"
           x="0 4.452"
           y="0"
           sodipodi:role="line"
           id="tspan10431">40</tspan></text>
<path
         d="m 72,102.29143 4,0"
         style="fill:#000000;fill-opacity:1;fill-rule:nonzero;stroke:#000000;stroke-opacity:1;stroke-width:0.5;stroke-linecap:butt;stroke-linejoin:round;stroke-miterlimit:10;stroke-dasharray:none"
         id="path10433" /><path
         d="m 288,102.29143 -4,0"
         style="fill:#000000;fill-opacity:1;fill-rule:nonzero;stroke:#000000;stroke-opacity:1;stroke-width:0.5;stroke-linecap:butt;stroke-linejoin:round;stroke-miterlimit:10;stroke-dasharray:none"
         id="path10435" /><text
         transform="matrix(1,0,0,-1,60.046875,100.36174)"
         id="text10437"><tspan
           style="fill:#000000;fill-opacity:1;fill-rule:nonzero;stroke:none;font-family:DejaVu Sans;font-variant:normal;font-weight:normal;font-size:7;writing-mode:lr;-inkscape-font-specification:DejaVuSans"
           x="0 4.452"
           y="0"
           sodipodi:role="line"
           id="tspan10439">60</tspan></text>
<path
         d="m 72,130.26857 4,0"
         style="fill:#000000;fill-opacity:1;fill-rule:nonzero;stroke:#000000;stroke-opacity:1;stroke-width:0.5;stroke-linecap:butt;stroke-linejoin:round;stroke-miterlimit:10;stroke-dasharray:none"
         id="path10441" /><path
         d="m 288,130.26857 -4,0"
         style="fill:#000000;fill-opacity:1;fill-rule:nonzero;stroke:#000000;stroke-opacity:1;stroke-width:0.5;stroke-linecap:butt;stroke-linejoin:round;stroke-miterlimit:10;stroke-dasharray:none"
         id="path10443" /><text
         transform="matrix(1,0,0,-1,60.03125,128.33888)"
         id="text10445"><tspan
           style="fill:#000000;fill-opacity:1;fill-rule:nonzero;stroke:none;font-family:DejaVu Sans;font-variant:normal;font-weight:normal;font-size:7;writing-mode:lr;-inkscape-font-specification:DejaVuSans"
           x="0 4.452"
           y="0"
           sodipodi:role="line"
           id="tspan10447">80</tspan></text>
<path
         d="m 72,158.24571 4,0"
         style="fill:#000000;fill-opacity:1;fill-rule:nonzero;stroke:#000000;stroke-opacity:1;stroke-width:0.5;stroke-linecap:butt;stroke-linejoin:round;stroke-miterlimit:10;stroke-dasharray:none"
         id="path10449" /><path
         d="m 288,158.24571 -4,0"
         style="fill:#000000;fill-opacity:1;fill-rule:nonzero;stroke:#000000;stroke-opacity:1;stroke-width:0.5;stroke-linecap:butt;stroke-linejoin:round;stroke-miterlimit:10;stroke-dasharray:none"
         id="path10451" /><text
         transform="matrix(1,0,0,-1,55.875,156.31603)"
         id="text10453"><tspan
           style="fill:#000000;fill-opacity:1;fill-rule:nonzero;stroke:none;font-family:DejaVu Sans;font-variant:normal;font-weight:normal;font-size:7;writing-mode:lr;-inkscape-font-specification:DejaVuSans"
           x="0 4.452 8.904"
           y="0"
           sodipodi:role="line"
           id="tspan10455">100</tspan></text>
<text
         transform="matrix(0,1,1,0,49.421875,74.659375)"
         id="text10457"><tspan
           style="fill:#000000;fill-opacity:1;fill-rule:nonzero;stroke:none;font-family:DejaVu Sans;font-variant:normal;font-weight:normal;font-size:7;writing-mode:lr;-inkscape-font-specification:DejaVuSans"
           x="0 6.65 8.876 13.762 18.046 20.923 23.8 28.105 31.955"
           y="0"
           sodipodi:role="line"
           id="tspan10459">% Correct</tspan></text>
<path
         d="m 72,165.24 216,0"
         style="fill:none;stroke:#000000;stroke-opacity:1;stroke-width:1;stroke-linecap:butt;stroke-linejoin:round;stroke-miterlimit:10;stroke-dasharray:none"
         id="path10461" /><path
         d="m 288,18.36 0,146.88"
         style="fill:none;stroke:#000000;stroke-opacity:1;stroke-width:1;stroke-linecap:butt;stroke-linejoin:round;stroke-miterlimit:10;stroke-dasharray:none"
         id="path10463" /><path
         d="m 72,18.36 216,0"
         style="fill:none;stroke:#000000;stroke-opacity:1;stroke-width:1;stroke-linecap:butt;stroke-linejoin:round;stroke-miterlimit:10;stroke-dasharray:none"
         id="path10465" /><path
         d="m 72,18.36 0,146.88"
         style="fill:none;stroke:#000000;stroke-opacity:1;stroke-width:1;stroke-linecap:butt;stroke-linejoin:round;stroke-miterlimit:10;stroke-dasharray:none"
         id="path10467" /><path
         d="m 296.1,95.925 6.75,0 0,6.3 -6.75,0 0,-6.3 z"
         style="fill:#545454;fill-opacity:1;fill-rule:nonzero;stroke:#000000;stroke-opacity:1;stroke-width:0.2;stroke-linecap:butt;stroke-linejoin:round;stroke-miterlimit:10;stroke-dasharray:none"
         id="path10469" /><text
         transform="matrix(1,0,0,-1,307.35,95.925)"
         id="text10471"><tspan
           style="fill:#000000;fill-opacity:1;fill-rule:nonzero;stroke:none;font-family:DejaVu Sans;font-variant:normal;font-weight:normal;font-size:9;writing-mode:lr;-inkscape-font-specification:DejaVuSans"
           x="0 6.156 11.871 16.56 20.088 23.787 29.304 34.254"
           y="0"
           sodipodi:role="line"
           id="tspan10473">Abstract</tspan></text>
<path
         d="m 296.1,82.70625 6.75,0 0,6.3 -6.75,0 0,-6.3 z"
         style="fill:#808080;fill-opacity:1;fill-rule:nonzero;stroke:#000000;stroke-opacity:1;stroke-width:0.2;stroke-linecap:butt;stroke-linejoin:round;stroke-miterlimit:10;stroke-dasharray:none"
         id="path10475" /><text
         transform="matrix(1,0,0,-1,307.35,82.70625)"
         id="text10477"><tspan
           style="fill:#000000;fill-opacity:1;fill-rule:nonzero;stroke:none;font-family:DejaVu Sans;font-variant:normal;font-weight:normal;font-size:9;writing-mode:lr;-inkscape-font-specification:DejaVuSans"
           x="0 6.732 12.267 17.973 21.672 27.189"
           y="0"
           sodipodi:role="line"
           id="tspan10479">Neural</tspan></text>
</g><path
       style="fill:#333333;fill-opacity:1;stroke:#ff0000;stroke-width:0.44466403;stroke-miterlimit:4;stroke-opacity:1;stroke-dasharray:0.44466403, 1.77865613;stroke-dashoffset:0"
       d="m 132.05,202.2445 c -0.15817,-1.87114 -0.28758,-40.59026 -0.28758,-86.04249 l 0,-82.640419 3.77964,0 c 2.22332,0 3.77964,0.183097 3.77964,0.444664 0,0.247035 1.18578,0.444664 2.66799,0.444664 1.48221,0 2.66798,-0.197629 2.66798,-0.444664 0,-0.259388 1.48222,-0.444664 3.55732,-0.444664 l 3.55731,0 0,86.042489 0,86.04249 -9.71736,0 -9.71736,0 -0.28758,-3.40207 0,0 z"
       id="path10591"
       inkscape:connector-curvature="0"
       transform="matrix(0.8,0,0,-0.8,0,183.6)" /><path
       style="fill:#4d4d4d;fill-opacity:1;stroke:#ff0000;stroke-width:0.44466403;stroke-miterlimit:4;stroke-opacity:1;stroke-dasharray:0.44466403, 1.77865613;stroke-dashoffset:0"
       d="m 132.51244,204.71725 c -0.21214,-0.81126 -0.42194,-52.58868 -0.50926,-125.688473 -0.048,-40.186215 0.0198,-45.042598 0.63089,-45.214276 0.77228,-0.216948 3.16183,-0.03661 5.93374,0.44781 2.7495,0.480507 4.88748,0.537089 5.66736,0.149988 0.37904,-0.188139 2.12187,-0.43937 3.87294,-0.55829 2.71115,-0.184121 3.21163,-0.106357 3.3714,0.523844 0.1642,0.647666 0.077,169.424357 -0.0881,170.617797 -0.0416,0.30084 -3.2944,0.46398 -9.37227,0.47007 -8.4007,0.008 -9.32783,-0.0646 -9.50668,-0.74847 l 0,0 z"
       id="path10595"
       inkscape:connector-curvature="0"
       transform="matrix(0.8,0,0,-0.8,0,183.6)" /><path
       style="fill:#4d4d4d;fill-opacity:1;stroke:#ff0000;stroke-width:0.44466403;stroke-miterlimit:4;stroke-opacity:1;stroke-dasharray:0.44466403, 1.77865613;stroke-dashoffset:0"
       d="m 194.30296,202.2445 c -0.15817,-1.87114 -0.28758,-39.98996 -0.28758,-84.7085 l 0,-81.306425 4.8913,0 c 2.96443,0 4.89131,0.17517 4.89131,0.444664 0,0.244565 -0.50025,0.444664 -1.11166,0.444664 -0.61141,0 -1.11166,0.200099 -1.11166,0.444664 0,0.247035 1.18577,0.444664 2.66798,0.444664 1.48222,0 2.66799,-0.197629 2.66799,-0.444664 0,-0.244565 -0.50025,-0.444664 -1.11166,-0.444664 -0.61142,0 -1.11166,-0.200099 -1.11166,-0.444664 0,-0.269494 1.92687,-0.444664 4.8913,-0.444664 l 4.89131,0 0,84.708495 0,84.7085 -9.9397,0 -9.93969,0 -0.28758,-3.40207 0,0 z"
       id="path10597"
       inkscape:connector-curvature="0"
       transform="matrix(0.8,0,0,-0.8,0,183.6)" /><path
       style="fill:#4d4d4d;fill-opacity:1;stroke:#ff0000;stroke-width:0.44466403;stroke-miterlimit:4;stroke-opacity:1;stroke-dasharray:0.44466403, 1.77865613;stroke-dashoffset:0"
       d="m 256.71301,122.4944 0,-83.152177 4.66897,0 c 2.81621,0 4.66897,0.176454 4.66897,0.444664 0,0.244565 -0.50024,0.444664 -1.11166,0.444664 -0.61141,0 -1.11166,0.200099 -1.11166,0.444664 0,0.247036 1.18577,0.444664 2.66799,0.444664 1.48221,0 2.66798,-0.197628 2.66798,-0.444664 0,-0.244565 -0.50025,-0.444664 -1.11166,-0.444664 -0.61141,0 -1.11166,-0.200099 -1.11166,-0.444664 0,-0.269493 1.92688,-0.444664 4.89131,-0.444664 l 4.8913,0 0,83.152177 0,83.15217 -10.00494,0 -10.00494,0 0,-83.15217 z"
       id="path10599"
       inkscape:connector-curvature="0"
       transform="matrix(0.8,0,0,-0.8,0,183.6)" /><path
       style="fill:#4d4d4d;fill-opacity:1;stroke:#ff0000;stroke-width:0.44466403;stroke-miterlimit:4;stroke-opacity:1;stroke-dasharray:0.44466403, 1.77865613;stroke-dashoffset:0"
       d="m 318.96597,122.71673 0,-82.929843 4.78014,0.06663 c 2.62908,0.03664 4.22987,0.149984 3.55731,0.251868 -2.23021,0.337848 -1.26584,1.015499 1.44516,1.015499 2.71101,0 3.67537,-0.677651 1.44516,-1.015499 -0.67255,-0.101884 1.02829,-0.215224 3.77964,-0.251868 l 5.00247,-0.06663 0,82.929843 0,82.92984 -10.00494,0 -10.00494,0 0,-82.92984 z"
       id="path10601"
       inkscape:connector-curvature="0"
       transform="matrix(0.8,0,0,-0.8,0,183.6)" /><path
       style="fill:#4d4d4d;fill-opacity:1;stroke:#ff0000;stroke-width:0.44466403;stroke-miterlimit:4;stroke-opacity:1;stroke-dasharray:0.44466403, 1.77865613;stroke-dashoffset:0"
       d="m 370.547,122.04973 0,-3.55731 3.77965,0 3.77964,0 0,3.55731 0,3.55732 -3.77964,0 -3.77965,0 0,-3.55732 z"
       id="path10603"
       inkscape:connector-curvature="0"
       transform="matrix(0.8,0,0,-0.8,0,183.6)" /></g></svg>