<?xml version="1.0" encoding="UTF-8" standalone="no"?>
<!-- Created with Inkscape (http://www.inkscape.org/) -->

<svg
   xmlns:ns0="http://www.iki.fi/pav/software/textext/"
   xmlns:dc="http://purl.org/dc/elements/1.1/"
   xmlns:cc="http://creativecommons.org/ns#"
   xmlns:rdf="http://www.w3.org/1999/02/22-rdf-syntax-ns#"
   xmlns:svg="http://www.w3.org/2000/svg"
   xmlns="http://www.w3.org/2000/svg"
   xmlns:sodipodi="http://sodipodi.sourceforge.net/DTD/sodipodi-0.dtd"
   xmlns:inkscape="http://www.inkscape.org/namespaces/inkscape"
   width="79.694817"
   height="79.994286"
   id="svg4578"
   version="1.1"
   inkscape:version="0.48.4 r9939"
   sodipodi:docname="recipe.svg">
  <sodipodi:namedview
     id="base"
     pagecolor="#000000"
     bordercolor="#666666"
     borderopacity="1.0"
     inkscape:pageopacity="1"
     inkscape:pageshadow="2"
     inkscape:zoom="2.8"
     inkscape:cx="66.549155"
     inkscape:cy="11.431789"
     inkscape:document-units="px"
     inkscape:current-layer="layer1"
     showgrid="false"
     inkscape:window-width="1328"
     inkscape:window-height="750"
     inkscape:window-x="38"
     inkscape:window-y="18"
     inkscape:window-maximized="1"
     fit-margin-top="0"
     fit-margin-left="0"
     fit-margin-right="0"
     fit-margin-bottom="0" />
  <defs
     id="defs4580">
    <filter
       id="filter4987"
       inkscape:label="Invert"
       x="0"
       y="0"
       width="1"
       height="1"
       inkscape:menu="Color"
       inkscape:menu-tooltip="Invert colors"
       color-interpolation-filters="sRGB">
      <feColorMatrix
         id="feColorMatrix4989"
         type="saturate"
         values="1"
         result="fbSourceGraphic" />
      <feColorMatrix
         id="feColorMatrix4991"
         in="fbSourceGraphic"
         values="-1 0 0 0 1 0 -1 0 0 1 0 0 -1 0 1 0 0 0 1 0 " />
    </filter>
  </defs>
  <metadata
     id="metadata4583">
    <rdf:RDF>
      <cc:Work
         rdf:about="">
        <dc:format>image/svg+xml</dc:format>
        <dc:type
           rdf:resource="http://purl.org/dc/dcmitype/StillImage" />
        <dc:title></dc:title>
      </cc:Work>
    </rdf:RDF>
  </metadata>
  <g
     inkscape:label="Layer 1"
     inkscape:groupmode="layer"
     id="layer1"
     transform="translate(-17.675708,-32.29857)">
    <g
       id="content"
       transform="matrix(1.1978779,0,0,-1.1978779,-264.89171,827.84522)"
       xml:space="preserve"
       stroke-miterlimit="10.433"
       font-style="normal"
       font-variant="normal"
       font-weight="normal"
       font-stretch="normal"
       font-size-adjust="none"
       letter-spacing="normal"
       word-spacing="normal"
       ns0:text="\\begin{enumerate}\n\\item Write thesis.\n\\item Graduate.\n\\item ???\n\\item Profit!!!\n\\end{enumerate}\n"
       ns0:preamble="/home/eric/.config/inkscape/extensions/preamble.tex"
       style="font-style:normal;font-variant:normal;font-weight:normal;font-stretch:normal;letter-spacing:normal;word-spacing:normal;text-anchor:start;fill:#1a1a1a;stroke:#000000;stroke-linecap:butt;stroke-linejoin:miter;stroke-miterlimit:10.43299960999999954;stroke-opacity:1;stroke-dasharray:none;stroke-dashoffset:0;filter:url(#filter4987)"><path
         d="m 238.53,663.59 0,0.01 0,0.01 0,0.02 0,0.01 0,0 0,0.01 0,0.01 0,0.01 0,0.01 0,0.01 0,0.01 0,0.01 0,0 0,0.01 0,0.01 0,0 0,0.01 0,0.01 0,0.01 -0.01,0.01 0,0.01 0,0.01 -0.01,0.01 0,0 0,0.01 -0.01,0.01 -0.01,0 0,0.01 -0.01,0 -0.01,0.01 -0.01,0 0,0 -0.01,0 0,0 -0.01,0 0,0 -0.01,0.01 -0.01,0 0,0 -0.01,0 -0.01,0 0,0 -0.01,0 -0.01,0 -0.01,0 -0.01,0 -0.01,0 0,0 -0.01,0 -0.01,0 -0.01,0 -0.02,0 c -0.61,-0.63 -1.49,-0.63 -1.81,-0.63 v -0.31 c 0.2,0 0.79,0 1.31,0.25 v -5.14 c 0,-0.36 -0.03,-0.48 -0.93,-0.48 h -0.32 v -0.31 c 0.35,0.04 1.22,0.04 1.62,0.04 0.39,0 1.26,0 1.61,-0.04 v 0.31 h -0.32 c -0.9,0 -0.93,0.11 -0.93,0.48 z"
         id="path4592"
         inkscape:connector-curvature="0"
         style="fill:#1a1a1a;stroke-width:0" /><path
         d="m 242.5,657.76 0,0.03 0,0.03 -0.01,0.02 0,0.03 -0.01,0.02 0,0.03 -0.01,0.02 -0.01,0.03 -0.01,0.02 -0.01,0.02 -0.02,0.02 -0.01,0.03 -0.01,0.02 -0.02,0.02 -0.02,0.01 -0.01,0.02 -0.02,0.02 -0.02,0.02 -0.02,0.01 -0.02,0.02 -0.02,0.01 -0.03,0.01 -0.02,0.02 -0.02,0.01 -0.03,0.01 -0.02,0 -0.03,0.01 -0.02,0.01 -0.03,0 -0.02,0.01 -0.03,0 -0.03,0 c -0.29,0 -0.52,-0.24 -0.52,-0.53 0,-0.29 0.23,-0.53 0.52,-0.53 0.29,0 0.53,0.24 0.53,0.53 z"
         id="path4594"
         inkscape:connector-curvature="0"
         style="fill:#1a1a1a;stroke-width:0" /><path
         d="m 257.38,663.05 0.02,0.05 0.02,0.05 0.02,0.04 0.02,0.05 0.02,0.04 0.03,0.04 0.02,0.03 0.03,0.04 0.03,0.03 0.02,0.03 0.03,0.03 0.03,0.03 0.04,0.02 0.03,0.02 0.03,0.02 0.03,0.02 0.04,0.02 0.03,0.01 0.03,0.02 0.04,0.01 0.04,0.01 0.03,0.01 0.04,0.01 0.03,0.01 0.04,0 0.04,0.01 0.03,0 0.04,0.01 0.07,0 0.08,0 v 0.31 c -0.3,-0.02 -0.61,-0.03 -0.91,-0.03 -0.29,0 -0.92,0.02 -1.18,0.03 v -0.31 c 0.66,-0.01 0.86,-0.34 0.86,-0.53 0,-0.05 -0.03,-0.13 -0.05,-0.19 l -1.49,-4.59 -1.59,4.87 c -0.01,0.03 -0.03,0.09 -0.03,0.14 0,0.3 0.58,0.3 0.84,0.3 v 0.31 c -0.36,-0.03 -1.04,-0.03 -1.42,-0.03 -0.37,0 -0.8,0.02 -1.21,0.03 v -0.31 c 0.57,0 0.78,0 0.9,-0.36 l 0.21,-0.69 -1.38,-4.26 -1.6,4.88 c -0.01,0.04 -0.02,0.1 -0.02,0.13 0,0.3 0.58,0.3 0.84,0.3 v 0.31 c -0.36,-0.03 -1.04,-0.03 -1.42,-0.03 -0.38,0 -0.8,0.02 -1.21,0.03 v -0.31 c 0.74,0 0.78,-0.05 0.9,-0.42 l 1.99,-6.08 c 0.03,-0.09 0.06,-0.19 0.19,-0.19 0.14,0 0.16,0.07 0.2,0.2 l 1.64,5.04 1.66,-5.05 c 0.02,-0.09 0.05,-0.19 0.18,-0.19 0.14,0 0.16,0.07 0.2,0.2 z"
         id="path4596"
         inkscape:connector-curvature="0"
         style="fill:#1a1a1a;stroke-width:0" /><path
         d="m 259.41,660.53 v 1.1 l -1.38,-0.11 v -0.31 c 0.7,0 0.78,-0.07 0.78,-0.56 v -2.66 c 0,-0.45 -0.11,-0.45 -0.78,-0.45 v -0.31 c 0.39,0.01 0.86,0.04 1.14,0.04 0.39,0 0.86,0 1.26,-0.04 v 0.31 h -0.21 c -0.74,0 -0.76,0.11 -0.76,0.47 v 1.53 c 0,0.98 0.42,1.87 1.18,1.87 0.07,0 0.09,0 0.11,-0.01 -0.03,-0.01 -0.23,-0.13 -0.23,-0.39 0,-0.28 0.21,-0.43 0.43,-0.43 0.17,0 0.42,0.12 0.42,0.44 0,0.32 -0.3,0.61 -0.73,0.61 -0.73,0 -1.09,-0.67 -1.23,-1.1 z"
         id="path4598"
         inkscape:connector-curvature="0"
         style="fill:#1a1a1a;stroke-width:0" /><path
         d="m 263.42,661.63 -1.4,-0.11 v -0.31 c 0.65,0 0.74,-0.06 0.74,-0.55 v -2.67 c 0,-0.45 -0.11,-0.45 -0.78,-0.45 v -0.31 c 0.32,0.01 0.86,0.04 1.1,0.04 0.34,0 0.69,-0.03 1.03,-0.04 v 0.31 c -0.66,0 -0.69,0.05 -0.69,0.44 z"
         id="path4600"
         inkscape:connector-curvature="0"
         style="fill:#1a1a1a;stroke-width:0" /><path
         d="m 263.45,663.35 0,0.03 0,0.03 0,0.03 -0.01,0.03 0,0.02 -0.01,0.03 -0.01,0.03 -0.01,0.02 -0.01,0.02 -0.01,0.03 -0.01,0.02 -0.02,0.02 -0.01,0.02 -0.02,0.02 -0.02,0.02 -0.01,0.02 -0.02,0.01 -0.02,0.02 -0.02,0.01 -0.02,0.02 -0.02,0.01 -0.03,0.01 -0.02,0.01 -0.02,0.01 -0.03,0.01 -0.02,0.01 -0.02,0.01 -0.03,0 -0.02,0.01 -0.03,0 -0.03,0 -0.02,0 c -0.31,0 -0.53,-0.27 -0.53,-0.53 0,-0.26 0.22,-0.52 0.53,-0.52 0.28,0 0.52,0.21 0.52,0.52 z"
         id="path4602"
         inkscape:connector-curvature="0"
         style="fill:#1a1a1a;stroke-width:0" /><path
         d="m 266.14,661.21 h 1.43 v 0.31 h -1.43 v 1.82 h -0.25 c -0.01,-0.81 -0.3,-1.87 -1.28,-1.91 v -0.22 h 0.85 v -2.74 c 0,-1.23 0.92,-1.34 1.28,-1.34 0.71,0 0.99,0.7 0.99,1.34 v 0.56 h -0.25 v -0.54 c 0,-0.74 -0.3,-1.12 -0.67,-1.12 -0.67,0 -0.67,0.91 -0.67,1.08 z"
         id="path4604"
         inkscape:connector-curvature="0"
         style="fill:#1a1a1a;stroke-width:0" /><path
         d="m 269.4,659.53 0.01,0.21 c 0.06,1.48 0.9,1.73 1.23,1.73 1.03,0 1.13,-1.34 1.13,-1.73 h -2.36 l -0.01,-0.21 h 2.78 c 0.21,0 0.24,0 0.24,0.21 0,0.98 -0.53,1.94 -1.78,1.94 -1.15,0 -2.06,-1.02 -2.06,-2.26 0,-1.33 1.04,-2.29 2.18,-2.29 1.22,0 1.66,1.1 1.66,1.29 0,0.1 -0.07,0.12 -0.12,0.12 -0.09,0 -0.11,-0.06 -0.13,-0.14 -0.35,-1.03 -1.25,-1.03 -1.35,-1.03 -0.49,0 -0.89,0.3 -1.12,0.67 -0.3,0.48 -0.3,1.13 -0.3,1.49 z"
         id="path4606"
         inkscape:connector-curvature="0"
         style="fill:#1a1a1a;stroke-width:0" /><path
         d="m 277.76,661.21 h 1.42 v 0.31 h -1.42 v 1.82 h -0.25 c -0.01,-0.81 -0.31,-1.87 -1.28,-1.91 v -0.22 h 0.85 v -2.74 c 0,-1.23 0.92,-1.34 1.28,-1.34 0.71,0 0.98,0.7 0.98,1.34 v 0.56 h -0.24 v -0.54 c 0,-0.74 -0.3,-1.12 -0.67,-1.12 -0.67,0 -0.67,0.91 -0.67,1.08 z"
         id="path4608"
         inkscape:connector-curvature="0"
         style="fill:#1a1a1a;stroke-width:0" /><path
         d="m 281.01,657.99 0,-0.02 0,-0.02 0,-0.04 0,-0.03 -0.01,-0.04 0,-0.03 0,-0.03 -0.01,-0.02 -0.01,-0.03 -0.01,-0.02 -0.01,-0.02 -0.01,-0.02 -0.01,-0.02 -0.01,-0.01 -0.02,-0.02 -0.02,-0.01 -0.02,-0.01 -0.02,-0.01 -0.02,-0.01 -0.03,-0.01 -0.03,0 -0.03,-0.01 -0.03,0 -0.04,-0.01 -0.01,0 -0.02,0 -0.02,0 -0.02,0 -0.02,0 -0.03,0 -0.02,0 -0.02,-0.01 -0.03,0 -0.02,0 -0.03,0 -0.02,0 -0.03,0 -0.03,0 -0.03,0 -0.03,0 -0.03,0 -0.03,0 v -0.31 c 0.35,0.01 0.86,0.04 1.13,0.04 0.26,0 0.77,-0.03 1.11,-0.04 v 0.31 c -0.66,0 -0.77,0 -0.77,0.45 v 1.83 c 0,1.03 0.7,1.59 1.34,1.59 0.63,0 0.74,-0.54 0.74,-1.11 v -2.31 c 0,-0.45 -0.11,-0.45 -0.78,-0.45 v -0.31 c 0.35,0.01 0.86,0.04 1.12,0.04 0.26,0 0.78,-0.03 1.12,-0.04 v 0.31 c -0.52,0 -0.77,0 -0.78,0.3 v 1.9 c 0,0.85 0,1.16 -0.31,1.52 -0.13,0.17 -0.46,0.37 -1.04,0.37 -0.84,0 -1.27,-0.6 -1.44,-0.98 v 3.48 l -1.44,-0.11 v -0.31 c 0.7,0 0.78,-0.07 0.78,-0.55 z"
         id="path4610"
         inkscape:connector-curvature="0"
         style="fill:#1a1a1a;stroke-width:0" /><path
         d="m 286.55,659.53 0.02,0.21 c 0.05,1.48 0.89,1.73 1.23,1.73 1.02,0 1.12,-1.34 1.12,-1.73 h -2.35 l -0.02,-0.21 h 2.78 c 0.22,0 0.25,0 0.25,0.21 0,0.98 -0.54,1.94 -1.78,1.94 -1.16,0 -2.07,-1.02 -2.07,-2.26 0,-1.33 1.04,-2.29 2.19,-2.29 1.21,0 1.66,1.1 1.66,1.29 0,0.1 -0.08,0.12 -0.13,0.12 -0.09,0 -0.11,-0.06 -0.13,-0.14 -0.35,-1.03 -1.24,-1.03 -1.34,-1.03 -0.5,0 -0.9,0.3 -1.13,0.67 -0.3,0.48 -0.3,1.13 -0.3,1.49 z"
         id="path4612"
         inkscape:connector-curvature="0"
         style="fill:#1a1a1a;stroke-width:0" /><path
         d="m 291.95,659.16 0.02,0 0.03,-0.01 0.02,0 0.04,-0.01 0.03,-0.01 0.03,-0.01 0.04,-0.01 0.04,-0.01 0.04,-0.01 0.04,-0.01 0.05,-0.02 0.04,-0.02 0.05,-0.01 0.04,-0.03 0.04,-0.02 0.05,-0.02 0.04,-0.03 0.04,-0.03 0.04,-0.03 0.04,-0.03 0.04,-0.03 0.04,-0.04 0.03,-0.04 0.03,-0.04 0.03,-0.05 0.01,-0.02 0.02,-0.03 0.01,-0.02 0.01,-0.03 0.01,-0.02 0.01,-0.03 0,-0.03 0.01,-0.02 0.01,-0.03 0,-0.03 0.01,-0.03 0,-0.04 0,-0.03 0,-0.03 c 0,-0.51 -0.35,-0.91 -1.12,-0.91 -0.84,0 -1.2,0.57 -1.38,1.42 -0.03,0.12 -0.05,0.16 -0.14,0.16 -0.13,0 -0.13,-0.07 -0.13,-0.25 v -1.31 c 0,-0.16 0,-0.23 0.11,-0.23 0.05,0 0.06,0.01 0.25,0.19 0.01,0.02 0.01,0.04 0.19,0.23 0.44,-0.41 0.89,-0.42 1.1,-0.42 1.14,0 1.6,0.66 1.6,1.38 0,0.52 -0.3,0.82 -0.42,0.94 -0.33,0.32 -0.71,0.4 -1.13,0.48 -0.56,0.11 -1.23,0.23 -1.23,0.81 0,0.35 0.26,0.76 1.12,0.76 1.09,0 1.14,-0.9 1.16,-1.21 0.01,-0.08 0.1,-0.08 0.12,-0.08 0.13,0 0.13,0.05 0.13,0.23 v 1.01 c 0,0.17 0,0.23 -0.11,0.23 -0.05,0 -0.07,0 -0.2,-0.11 -0.03,-0.04 -0.13,-0.13 -0.17,-0.16 -0.37,0.27 -0.78,0.27 -0.93,0.27 -1.22,0 -1.59,-0.66 -1.59,-1.22 0,-0.34 0.16,-0.62 0.42,-0.84 0.32,-0.26 0.6,-0.32 1.32,-0.46 z"
         id="path4614"
         inkscape:connector-curvature="0"
         style="fill:#1a1a1a;stroke-width:0" /><path
         d="m 295.57,661.63 -1.39,-0.11 v -0.31 c 0.64,0 0.73,-0.06 0.73,-0.55 v -2.67 c 0,-0.45 -0.11,-0.45 -0.77,-0.45 v -0.31 c 0.31,0.01 0.85,0.04 1.09,0.04 0.35,0 0.7,-0.03 1.04,-0.04 v 0.31 c -0.66,0 -0.7,0.05 -0.7,0.44 z"
         id="path4616"
         inkscape:connector-curvature="0"
         style="fill:#1a1a1a;stroke-width:0" /><path
         d="m 295.61,663.35 0,0.03 0,0.03 -0.01,0.03 0,0.03 -0.01,0.02 -0.01,0.03 -0.01,0.03 -0.01,0.02 -0.01,0.02 -0.01,0.03 -0.01,0.02 -0.02,0.02 -0.01,0.02 -0.02,0.02 -0.01,0.02 -0.02,0.02 -0.02,0.01 -0.02,0.02 -0.02,0.01 -0.02,0.02 -0.02,0.01 -0.02,0.01 -0.03,0.01 -0.02,0.01 -0.02,0.01 -0.03,0.01 -0.02,0.01 -0.03,0 -0.02,0.01 -0.03,0 -0.02,0 -0.03,0 c -0.31,0 -0.53,-0.27 -0.53,-0.53 0,-0.26 0.22,-0.52 0.53,-0.52 0.28,0 0.53,0.21 0.53,0.52 z"
         id="path4618"
         inkscape:connector-curvature="0"
         style="fill:#1a1a1a;stroke-width:0" /><path
         d="m 298.64,659.16 0.03,0 0.02,-0.01 0.03,0 0.03,-0.01 0.04,-0.01 0.03,-0.01 0.04,-0.01 0.04,-0.01 0.04,-0.01 0.04,-0.01 0.04,-0.02 0.05,-0.02 0.04,-0.01 0.05,-0.03 0.04,-0.02 0.04,-0.02 0.05,-0.03 0.04,-0.03 0.04,-0.03 0.04,-0.03 0.04,-0.03 0.03,-0.04 0.04,-0.04 0.03,-0.04 0.03,-0.05 0.01,-0.02 0.01,-0.03 0.01,-0.02 0.01,-0.03 0.01,-0.02 0.01,-0.03 0.01,-0.03 0.01,-0.02 0,-0.03 0.01,-0.03 0,-0.03 0.01,-0.04 0,-0.03 0,-0.03 c 0,-0.51 -0.35,-0.91 -1.13,-0.91 -0.83,0 -1.19,0.57 -1.38,1.42 -0.03,0.12 -0.04,0.16 -0.14,0.16 -0.13,0 -0.13,-0.07 -0.13,-0.25 v -1.31 c 0,-0.16 0,-0.23 0.11,-0.23 0.05,0 0.06,0.01 0.25,0.19 0.02,0.02 0.02,0.04 0.2,0.23 0.44,-0.41 0.89,-0.42 1.09,-0.42 1.15,0 1.61,0.66 1.61,1.38 0,0.52 -0.3,0.82 -0.42,0.94 -0.33,0.32 -0.72,0.4 -1.13,0.48 -0.56,0.11 -1.23,0.23 -1.23,0.81 0,0.35 0.26,0.76 1.11,0.76 1.1,0 1.15,-0.9 1.17,-1.21 0.01,-0.08 0.1,-0.08 0.12,-0.08 0.13,0 0.13,0.05 0.13,0.23 v 1.01 c 0,0.17 0,0.23 -0.11,0.23 -0.05,0 -0.07,0 -0.2,-0.11 -0.03,-0.04 -0.13,-0.13 -0.17,-0.16 -0.38,0.27 -0.79,0.27 -0.94,0.27 -1.21,0 -1.59,-0.66 -1.59,-1.22 0,-0.34 0.16,-0.62 0.43,-0.84 0.32,-0.26 0.6,-0.32 1.31,-0.46 z"
         id="path4620"
         inkscape:connector-curvature="0"
         style="fill:#1a1a1a;stroke-width:0" /><path
         d="m 302.42,657.76 -0.01,0.03 0,0.03 0,0.02 -0.01,0.03 0,0.02 -0.01,0.03 -0.01,0.02 -0.01,0.03 -0.01,0.02 -0.01,0.02 -0.01,0.02 -0.02,0.03 -0.01,0.02 -0.02,0.02 -0.01,0.01 -0.02,0.02 -0.02,0.02 -0.02,0.02 -0.02,0.01 -0.02,0.02 -0.02,0.01 -0.02,0.01 -0.03,0.02 -0.02,0.01 -0.02,0.01 -0.03,0 -0.02,0.01 -0.03,0.01 -0.02,0 -0.03,0.01 -0.03,0 -0.02,0 c -0.29,0 -0.53,-0.24 -0.53,-0.53 0,-0.29 0.24,-0.53 0.53,-0.53 0.29,0 0.53,0.24 0.53,0.53 z"
         id="path4622"
         inkscape:connector-curvature="0"
         style="fill:#1a1a1a;stroke-width:0" /><path
         d="m 236.87,638.08 1.06,1.02 c 1.55,1.37 2.15,1.91 2.15,2.9 0,1.13 -0.9,1.93 -2.11,1.93 -1.13,0 -1.86,-0.92 -1.86,-1.8 0,-0.56 0.49,-0.56 0.52,-0.56 0.17,0 0.52,0.12 0.52,0.53 0,0.26 -0.18,0.51 -0.53,0.51 -0.08,0 -0.1,0 -0.13,-0.01 0.23,0.65 0.77,1.02 1.35,1.02 0.9,0 1.33,-0.81 1.33,-1.62 0,-0.8 -0.5,-1.58 -1.04,-2.2 l -1.91,-2.12 c -0.11,-0.11 -0.11,-0.13 -0.11,-0.37 h 3.69 l 0.28,1.73 h -0.25 c -0.05,-0.3 -0.12,-0.74 -0.22,-0.89 -0.07,-0.07 -0.73,-0.07 -0.95,-0.07 z"
         id="path4624"
         inkscape:connector-curvature="0"
         style="fill:#1a1a1a;stroke-width:0" /><path
         d="m 242.5,637.84 0,0.02 0,0.03 -0.01,0.03 0,0.02 -0.01,0.03 0,0.02 -0.01,0.03 -0.01,0.02 -0.01,0.02 -0.01,0.03 -0.02,0.02 -0.01,0.02 -0.01,0.02 -0.02,0.02 -0.02,0.02 -0.01,0.02 -0.02,0.02 -0.02,0.01 -0.02,0.02 -0.02,0.01 -0.02,0.02 -0.03,0.01 -0.02,0.01 -0.02,0.01 -0.03,0.01 -0.02,0.01 -0.03,0.01 -0.02,0 -0.03,0.01 -0.02,0 -0.03,0 -0.03,0 c -0.29,0 -0.52,-0.24 -0.52,-0.52 0,-0.29 0.23,-0.53 0.52,-0.53 0.29,0 0.53,0.24 0.53,0.53 z"
         id="path4626"
         inkscape:connector-curvature="0"
         style="fill:#1a1a1a;stroke-width:0" /><path
         d="m 254.24,637.94 0.01,-0.03 0.02,-0.02 0.01,-0.02 0.02,-0.02 0.02,-0.03 0.02,-0.02 0.02,-0.03 0.02,-0.02 0.02,-0.03 0.02,-0.02 0.05,-0.06 0.05,-0.05 0.04,-0.04 0.03,-0.03 0.02,-0.02 0.03,-0.02 0.02,-0.02 0.02,-0.02 0.03,-0.02 0.02,-0.02 0.02,-0.01 0.02,-0.02 0.02,-0.01 0.02,-0.01 0.01,-0.01 0.02,-0.01 0.01,-0.01 0.01,0 0,0 0.01,0 0.01,0 c 0.08,0 0.08,0.08 0.08,0.23 v 1.73 c 0,0.38 0.05,0.43 0.69,0.43 v 0.31 c -0.37,-0.01 -0.91,-0.03 -1.21,-0.03 -0.4,0 -1.25,0 -1.6,0.03 v -0.31 h 0.31 c 0.9,0 0.93,-0.11 0.93,-0.47 v -0.64 c 0,-1.11 -1.26,-1.2 -1.54,-1.2 -0.65,0 -2.62,0.35 -2.62,3.31 0,2.97 1.96,3.3 2.56,3.3 1.06,0 1.97,-0.9 2.17,-2.36 0.02,-0.14 0.02,-0.17 0.16,-0.17 0.15,0 0.15,0.03 0.15,0.24 v 2.36 c 0,0.16 0,0.23 -0.1,0.23 -0.04,0 -0.08,0 -0.16,-0.12 l -0.5,-0.73 c -0.32,0.32 -0.86,0.85 -1.84,0.85 -1.85,0 -3.46,-1.57 -3.46,-3.6 0,-2.04 1.59,-3.62 3.48,-3.62 0.72,0 1.52,0.26 1.86,0.85 z"
         id="path4628"
         inkscape:connector-curvature="0"
         style="fill:#1a1a1a;stroke-width:0" /><path
         d="m 257.82,640.61 v 1.09 l -1.39,-0.11 v -0.31 c 0.7,0 0.78,-0.07 0.78,-0.55 v -2.66 c 0,-0.45 -0.11,-0.45 -0.78,-0.45 v -0.31 c 0.39,0.01 0.86,0.03 1.14,0.03 0.4,0 0.86,0 1.26,-0.03 v 0.31 h -0.21 c -0.73,0 -0.75,0.11 -0.75,0.47 v 1.52 c 0,0.99 0.42,1.87 1.17,1.87 0.07,0 0.09,0 0.11,-0.01 -0.03,-0.01 -0.23,-0.13 -0.23,-0.38 0,-0.28 0.21,-0.43 0.43,-0.43 0.18,0 0.43,0.12 0.43,0.43 0,0.32 -0.31,0.61 -0.74,0.61 -0.72,0 -1.08,-0.67 -1.22,-1.09 z"
         id="path4630"
         inkscape:connector-curvature="0"
         style="fill:#1a1a1a;stroke-width:0" /><path
         d="m 263.37,638.07 0.01,-0.04 0,-0.04 0.01,-0.04 0.01,-0.03 0.01,-0.04 0.01,-0.04 0.01,-0.03 0.01,-0.04 0.02,-0.04 0.02,-0.03 0.01,-0.03 0.02,-0.04 0.02,-0.03 0.02,-0.03 0.03,-0.03 0.02,-0.03 0.02,-0.03 0.03,-0.03 0.03,-0.02 0.03,-0.03 0.03,-0.02 0.03,-0.02 0.03,-0.02 0.04,-0.02 0.03,-0.01 0.04,-0.02 0.03,-0.01 0.04,-0.01 0.04,-0.01 0.04,-0.01 0.04,0 0.05,0 c 0.21,0 0.81,0.14 0.81,0.94 v 0.56 h -0.25 v -0.56 c 0,-0.57 -0.24,-0.63 -0.35,-0.63 -0.33,0 -0.37,0.45 -0.37,0.49 v 1.99 c 0,0.42 0,0.81 -0.36,1.17 -0.39,0.39 -0.89,0.55 -1.36,0.55 -0.82,0 -1.5,-0.47 -1.5,-1.12 0,-0.3 0.19,-0.47 0.45,-0.47 0.28,0 0.46,0.2 0.46,0.46 0,0.12 -0.05,0.45 -0.51,0.46 0.27,0.34 0.76,0.45 1.08,0.45 0.48,0 1.05,-0.39 1.05,-1.27 v -0.37 -0.21 -0.99 c 0,-0.94 -0.71,-1.28 -1.16,-1.28 -0.49,0 -0.9,0.35 -0.9,0.84 0,0.55 0.42,1.38 2.06,1.43 h 0 v 0.21 c -0.5,-0.03 -1.2,-0.06 -1.83,-0.36 -0.74,-0.33 -0.99,-0.85 -0.99,-1.29 0,-0.8 0.96,-1.05 1.59,-1.05 0.66,0 1.11,0.4 1.3,0.87 z"
         id="path4632"
         inkscape:connector-curvature="0"
         style="fill:#1a1a1a;stroke-width:0" /><path
         d="m 268.82,637.86 v -0.66 l 1.46,0.11 v 0.31 c -0.69,0 -0.77,0.07 -0.77,0.55 v 6.03 l -1.43,-0.11 v -0.3 c 0.69,0 0.77,-0.07 0.77,-0.56 v -2.14 c -0.29,0.35 -0.71,0.61 -1.25,0.61 l 0.04,-0.22 c 0.34,0 0.76,-0.15 1.07,-0.59 0.11,-0.17 0.11,-0.19 0.11,-0.37 h 0 v -2.04 c 0,-0.18 0,-0.2 -0.11,-0.37 -0.3,-0.47 -0.74,-0.69 -1.17,-0.69 -0.45,0 -0.81,0.26 -1.05,0.63 -0.26,0.41 -0.29,0.98 -0.29,1.39 0,0.36 0.02,0.96 0.31,1.41 0.21,0.3 0.59,0.63 1.13,0.63 l -0.04,0.22 c -1.18,0 -2.22,-0.97 -2.22,-2.25 0,-1.27 0.97,-2.25 2.11,-2.25 0.63,0 1.08,0.34 1.33,0.66 z"
         id="path4634"
         inkscape:connector-curvature="0"
         style="fill:#1a1a1a;stroke-width:0" /><path
         d="m 274.47,638.09 v -0.89 l 1.43,0.11 v 0.31 c -0.7,0 -0.78,0.07 -0.78,0.55 v 3.53 l -1.46,-0.11 v -0.31 c 0.7,0 0.78,-0.07 0.78,-0.55 v -1.77 c 0,-0.87 -0.48,-1.54 -1.21,-1.54 -0.83,0 -0.87,0.47 -0.87,0.98 v 3.3 l -1.47,-0.11 v -0.31 c 0.78,0 0.78,-0.03 0.78,-0.91 v -1.49 c 0,-0.78 0,-1.68 1.51,-1.68 0.56,0 1,0.28 1.29,0.89 z"
         id="path4636"
         inkscape:connector-curvature="0"
         style="fill:#1a1a1a;stroke-width:0" /><path
         d="m 279.42,638.07 0.01,-0.04 0,-0.04 0.01,-0.04 0.01,-0.03 0.01,-0.04 0.01,-0.04 0.01,-0.03 0.02,-0.04 0.01,-0.04 0.02,-0.03 0.01,-0.03 0.02,-0.04 0.02,-0.03 0.03,-0.03 0.02,-0.03 0.02,-0.03 0.03,-0.03 0.02,-0.03 0.03,-0.02 0.03,-0.03 0.03,-0.02 0.03,-0.02 0.03,-0.02 0.04,-0.02 0.03,-0.01 0.04,-0.02 0.04,-0.01 0.03,-0.01 0.04,-0.01 0.04,-0.01 0.05,0 0.04,0 c 0.21,0 0.82,0.14 0.82,0.94 v 0.56 h -0.25 v -0.56 c 0,-0.57 -0.25,-0.63 -0.36,-0.63 -0.33,0 -0.37,0.45 -0.37,0.49 v 1.99 c 0,0.42 0,0.81 -0.36,1.17 -0.38,0.39 -0.88,0.55 -1.36,0.55 -0.82,0 -1.5,-0.47 -1.5,-1.12 0,-0.3 0.2,-0.47 0.45,-0.47 0.28,0 0.46,0.2 0.46,0.46 0,0.12 -0.05,0.45 -0.5,0.46 0.26,0.34 0.75,0.45 1.07,0.45 0.49,0 1.05,-0.39 1.05,-1.27 v -0.37 -0.21 -0.99 c 0,-0.94 -0.71,-1.28 -1.16,-1.28 -0.49,0 -0.89,0.35 -0.89,0.84 0,0.55 0.41,1.38 2.05,1.43 h 0 v 0.21 c -0.5,-0.03 -1.2,-0.06 -1.83,-0.36 -0.74,-0.33 -0.99,-0.85 -0.99,-1.29 0,-0.8 0.96,-1.05 1.59,-1.05 0.66,0 1.11,0.4 1.3,0.87 z"
         id="path4638"
         inkscape:connector-curvature="0"
         style="fill:#1a1a1a;stroke-width:0" /><path
         d="m 282.81,641.28 h 1.43 v 0.31 h -1.43 v 1.83 h -0.24 c -0.02,-0.82 -0.31,-1.88 -1.29,-1.92 v -0.22 h 0.85 v -2.74 c 0,-1.22 0.92,-1.34 1.28,-1.34 0.71,0 0.98,0.71 0.98,1.34 v 0.57 h -0.24 v -0.55 c 0,-0.73 -0.3,-1.11 -0.67,-1.11 -0.67,0 -0.67,0.9 -0.67,1.07 z"
         id="path4640"
         inkscape:connector-curvature="0"
         style="fill:#1a1a1a;stroke-width:0" /><path
         d="m 286.07,639.6 0.01,0.21 c 0.06,1.48 0.9,1.73 1.24,1.73 1.02,0 1.12,-1.34 1.12,-1.73 h -2.36 l -0.01,-0.21 h 2.78 c 0.22,0 0.25,0 0.25,0.21 0,0.99 -0.54,1.95 -1.78,1.95 -1.16,0 -2.08,-1.02 -2.08,-2.27 0,-1.33 1.05,-2.29 2.19,-2.29 1.22,0 1.67,1.1 1.67,1.29 0,0.1 -0.08,0.12 -0.13,0.12 -0.09,0 -0.11,-0.06 -0.13,-0.14 -0.35,-1.02 -1.25,-1.02 -1.35,-1.02 -0.49,0 -0.89,0.3 -1.12,0.66 -0.3,0.48 -0.3,1.14 -0.3,1.49 z"
         id="path4642"
         inkscape:connector-curvature="0"
         style="fill:#1a1a1a;stroke-width:0" /><path
         d="m 291.3,637.84 0,0.02 0,0.03 0,0.03 -0.01,0.02 0,0.03 -0.01,0.02 -0.01,0.03 -0.01,0.02 -0.01,0.02 -0.01,0.03 -0.01,0.02 -0.02,0.02 -0.01,0.02 -0.02,0.02 -0.01,0.02 -0.02,0.02 -0.02,0.02 -0.02,0.01 -0.02,0.02 -0.02,0.01 -0.02,0.02 -0.02,0.01 -0.03,0.01 -0.02,0.01 -0.02,0.01 -0.03,0.01 -0.02,0.01 -0.03,0 -0.02,0.01 -0.03,0 -0.03,0 -0.02,0 c -0.29,0 -0.53,-0.24 -0.53,-0.52 0,-0.29 0.24,-0.53 0.53,-0.53 0.29,0 0.52,0.24 0.52,0.53 z"
         id="path4644"
         inkscape:connector-curvature="0"
         style="fill:#1a1a1a;stroke-width:0" /><path
         d="m 238.49,620.88 0.08,0.03 0.07,0.03 0.08,0.03 0.07,0.03 0.07,0.04 0.07,0.04 0.06,0.04 0.07,0.04 0.06,0.04 0.06,0.05 0.06,0.05 0.05,0.05 0.06,0.05 0.05,0.05 0.05,0.06 0.05,0.05 0.04,0.06 0.04,0.06 0.04,0.06 0.04,0.06 0.04,0.07 0.03,0.06 0.03,0.07 0.02,0.06 0.03,0.07 0.02,0.07 0.02,0.07 0.01,0.07 0.01,0.07 0.01,0.07 0.01,0.08 0,0.07 c 0,0.82 -0.88,1.37 -1.83,1.37 -1.01,0 -1.77,-0.59 -1.77,-1.35 0,-0.33 0.22,-0.52 0.51,-0.52 0.31,0 0.51,0.22 0.51,0.51 0,0.5 -0.47,0.5 -0.62,0.5 0.31,0.48 0.97,0.61 1.33,0.61 0.41,0 0.95,-0.22 0.95,-1.11 0,-0.12 -0.02,-0.69 -0.28,-1.13 -0.29,-0.48 -0.63,-0.51 -0.88,-0.52 -0.08,-0.01 -0.32,-0.03 -0.39,-0.03 -0.08,-0.01 -0.15,-0.02 -0.15,-0.12 0,-0.11 0.07,-0.11 0.24,-0.11 h 0.44 c 0.81,0 1.18,-0.67 1.18,-1.65 0,-1.35 -0.69,-1.63 -1.12,-1.63 -0.43,0 -1.18,0.16 -1.53,0.75 0.35,-0.05 0.66,0.17 0.66,0.55 0,0.35 -0.27,0.55 -0.56,0.55 -0.23,0 -0.55,-0.14 -0.55,-0.57 0,-0.91 0.92,-1.56 2.01,-1.56 1.21,0 2.12,0.9 2.12,1.91 0,0.82 -0.63,1.59 -1.67,1.8 z"
         id="path4646"
         inkscape:connector-curvature="0"
         style="fill:#1a1a1a;stroke-width:0" /><path
         d="m 242.5,617.91 0,0.03 0,0.02 -0.01,0.03 0,0.03 -0.01,0.02 0,0.03 -0.01,0.02 -0.01,0.03 -0.01,0.02 -0.01,0.02 -0.02,0.02 -0.01,0.02 -0.01,0.03 -0.02,0.02 -0.02,0.01 -0.01,0.02 -0.02,0.02 -0.02,0.02 -0.02,0.01 -0.02,0.02 -0.02,0.01 -0.03,0.01 -0.02,0.02 -0.02,0.01 -0.03,0.01 -0.02,0 -0.03,0.01 -0.02,0.01 -0.03,0 -0.02,0.01 -0.03,0 -0.03,0 c -0.29,0 -0.52,-0.24 -0.52,-0.53 0,-0.29 0.23,-0.52 0.52,-0.52 0.29,0 0.53,0.23 0.53,0.52 z"
         id="path4648"
         inkscape:connector-curvature="0"
         style="fill:#1a1a1a;stroke-width:0" /><path
         d="m 250.68,619.86 0,0.11 0.01,0.12 0.01,0.11 0.02,0.1 0.02,0.11 0.03,0.1 0.03,0.09 0.03,0.1 0.04,0.09 0.04,0.08 0.04,0.09 0.05,0.08 0.05,0.08 0.05,0.08 0.05,0.07 0.05,0.07 0.06,0.07 0.05,0.06 0.06,0.06 0.05,0.06 0.06,0.05 0.05,0.06 0.06,0.05 0.05,0.04 0.05,0.05 0.05,0.04 0.05,0.04 0.04,0.04 0.05,0.03 0.04,0.03 0.04,0.03 0.03,0.02 c 0.27,0.2 0.48,0.56 0.48,0.98 0,0.57 -0.4,1.34 -1.88,1.34 -1.08,0 -1.69,-0.68 -1.69,-1.32 0,-0.34 0.22,-0.48 0.45,-0.48 0.28,0 0.46,0.2 0.46,0.46 0,0.44 -0.42,0.44 -0.55,0.44 0.3,0.53 0.88,0.68 1.3,0.68 1.08,0 1.08,-0.68 1.08,-1.06 0,-0.59 -0.16,-0.77 -0.34,-0.95 -0.65,-0.71 -0.87,-1.63 -0.87,-2.23 v -0.45 c 0,-0.18 0,-0.24 0.12,-0.24 0.13,0 0.13,0.09 0.13,0.27 z"
         id="path4650"
         inkscape:connector-curvature="0"
         style="fill:#1a1a1a;stroke-width:0" /><path
         d="m 251.07,617.91 0,0.03 0,0.02 0,0.03 -0.01,0.03 0,0.02 -0.01,0.03 -0.01,0.02 -0.01,0.03 -0.01,0.02 -0.01,0.02 -0.01,0.02 -0.02,0.02 -0.01,0.03 -0.02,0.02 -0.01,0.01 -0.02,0.02 -0.02,0.02 -0.02,0.02 -0.02,0.01 -0.02,0.02 -0.02,0.01 -0.02,0.01 -0.02,0.02 -0.03,0.01 -0.02,0.01 -0.03,0 -0.02,0.01 -0.03,0.01 -0.02,0 -0.03,0.01 -0.03,0 -0.02,0 c -0.29,0 -0.53,-0.24 -0.53,-0.53 0,-0.29 0.24,-0.52 0.53,-0.52 0.29,0 0.52,0.23 0.52,0.52 z"
         id="path4652"
         inkscape:connector-curvature="0"
         style="fill:#1a1a1a;stroke-width:0" /><path
         d="m 255.38,619.86 0,0.11 0.01,0.12 0.02,0.11 0.01,0.1 0.03,0.11 0.02,0.1 0.03,0.09 0.04,0.1 0.03,0.09 0.05,0.08 0.04,0.09 0.04,0.08 0.05,0.08 0.05,0.08 0.05,0.07 0.06,0.07 0.05,0.07 0.06,0.06 0.05,0.06 0.06,0.06 0.05,0.05 0.06,0.06 0.05,0.05 0.05,0.04 0.05,0.05 0.05,0.04 0.05,0.04 0.05,0.04 0.04,0.03 0.04,0.03 0.04,0.03 0.04,0.02 c 0.26,0.2 0.47,0.56 0.47,0.98 0,0.57 -0.4,1.34 -1.88,1.34 -1.07,0 -1.69,-0.68 -1.69,-1.32 0,-0.34 0.23,-0.48 0.46,-0.48 0.28,0 0.46,0.2 0.46,0.46 0,0.44 -0.42,0.44 -0.56,0.44 0.31,0.53 0.88,0.68 1.3,0.68 1.09,0 1.09,-0.68 1.09,-1.06 0,-0.59 -0.16,-0.77 -0.34,-0.95 -0.66,-0.71 -0.88,-1.63 -0.88,-2.23 v -0.45 c 0,-0.18 0,-0.24 0.12,-0.24 0.13,0 0.13,0.09 0.13,0.27 z"
         id="path4654"
         inkscape:connector-curvature="0"
         style="fill:#1a1a1a;stroke-width:0" /><path
         d="m 255.78,617.91 0,0.03 0,0.02 -0.01,0.03 0,0.03 -0.01,0.02 0,0.03 -0.01,0.02 -0.01,0.03 -0.01,0.02 -0.02,0.02 -0.01,0.02 -0.01,0.02 -0.02,0.03 -0.01,0.02 -0.02,0.01 -0.02,0.02 -0.01,0.02 -0.02,0.02 -0.02,0.01 -0.02,0.02 -0.03,0.01 -0.02,0.01 -0.02,0.02 -0.02,0.01 -0.03,0.01 -0.02,0 -0.03,0.01 -0.02,0.01 -0.03,0 -0.02,0.01 -0.03,0 -0.03,0 c -0.29,0 -0.52,-0.24 -0.52,-0.53 0,-0.29 0.23,-0.52 0.52,-0.52 0.29,0 0.53,0.23 0.53,0.52 z"
         id="path4656"
         inkscape:connector-curvature="0"
         style="fill:#1a1a1a;stroke-width:0" /><path
         d="m 260.09,619.86 0,0.11 0.01,0.12 0.01,0.11 0.02,0.1 0.02,0.11 0.03,0.1 0.03,0.09 0.03,0.1 0.04,0.09 0.04,0.08 0.04,0.09 0.05,0.08 0.05,0.08 0.05,0.08 0.05,0.07 0.05,0.07 0.06,0.07 0.05,0.06 0.06,0.06 0.05,0.06 0.06,0.05 0.05,0.06 0.05,0.05 0.06,0.04 0.05,0.05 0.05,0.04 0.05,0.04 0.04,0.04 0.05,0.03 0.04,0.03 0.03,0.03 0.04,0.02 c 0.27,0.2 0.48,0.56 0.48,0.98 0,0.57 -0.4,1.34 -1.88,1.34 -1.08,0 -1.7,-0.68 -1.7,-1.32 0,-0.34 0.23,-0.48 0.46,-0.48 0.28,0 0.46,0.2 0.46,0.46 0,0.44 -0.42,0.44 -0.56,0.44 0.31,0.53 0.89,0.68 1.31,0.68 1.08,0 1.08,-0.68 1.08,-1.06 0,-0.59 -0.16,-0.77 -0.34,-0.95 -0.65,-0.71 -0.87,-1.63 -0.87,-2.23 v -0.45 c 0,-0.18 0,-0.24 0.12,-0.24 0.13,0 0.13,0.09 0.13,0.27 z"
         id="path4658"
         inkscape:connector-curvature="0"
         style="fill:#1a1a1a;stroke-width:0" /><path
         d="m 260.48,617.91 0,0.03 0,0.02 0,0.03 -0.01,0.03 0,0.02 -0.01,0.03 -0.01,0.02 -0.01,0.03 -0.01,0.02 -0.01,0.02 -0.01,0.02 -0.02,0.02 -0.01,0.03 -0.02,0.02 -0.01,0.01 -0.02,0.02 -0.02,0.02 -0.02,0.02 -0.02,0.01 -0.02,0.02 -0.02,0.01 -0.02,0.01 -0.03,0.02 -0.02,0.01 -0.02,0.01 -0.03,0 -0.02,0.01 -0.03,0.01 -0.02,0 -0.03,0.01 -0.03,0 -0.02,0 c -0.29,0 -0.53,-0.24 -0.53,-0.53 0,-0.29 0.24,-0.52 0.53,-0.52 0.28,0 0.52,0.23 0.52,0.52 z"
         id="path4660"
         inkscape:connector-curvature="0"
         style="fill:#1a1a1a;stroke-width:0" /><path
         d="m 238.53,599.1 v -0.87 c 0,-0.35 -0.02,-0.46 -0.75,-0.46 h -0.21 v -0.31 c 0.41,0.03 0.92,0.03 1.34,0.03 0.42,0 0.95,0 1.35,-0.03 v 0.31 h -0.2 c -0.74,0 -0.76,0.11 -0.76,0.46 v 0.87 h 0.99 v 0.31 h -0.99 v 4.52 c 0,0.2 0,0.25 -0.16,0.25 -0.09,0 -0.12,0 -0.2,-0.11 l -3.05,-4.66 h 0.28 l 2.42,3.7 v -3.7 h -2.42 -0.28 v -0.31 z"
         id="path4662"
         inkscape:connector-curvature="0"
         style="fill:#1a1a1a;stroke-width:0" /><path
         d="m 242.5,597.99 0,0.02 0,0.03 -0.01,0.03 0,0.02 -0.01,0.03 0,0.02 -0.01,0.03 -0.01,0.02 -0.01,0.02 -0.01,0.03 -0.02,0.02 -0.01,0.02 -0.01,0.02 -0.02,0.02 -0.02,0.02 -0.01,0.02 -0.02,0.02 -0.02,0.01 -0.02,0.02 -0.02,0.01 -0.02,0.02 -0.03,0.01 -0.02,0.01 -0.02,0.01 -0.03,0.01 -0.02,0.01 -0.03,0.01 -0.02,0 -0.03,0.01 -0.02,0 -0.03,0 -0.03,0 c -0.29,0 -0.52,-0.23 -0.52,-0.52 0,-0.29 0.23,-0.53 0.52,-0.53 0.29,0 0.53,0.24 0.53,0.53 z"
         id="path4664"
         inkscape:connector-curvature="0"
         style="fill:#1a1a1a;stroke-width:0" /><path
         d="m 250.6,600.6 -0.03,0.26 v 2.68 c 0,0.33 0.02,0.4 0.48,0.4 h 0.89 c 1.58,0 1.58,-1.06 1.58,-1.54 0,-0.47 0,-1.54 -1.58,-1.54 h -1.37 l 0.03,-0.26 h 1.68 c 1.19,0 2.27,0.8 2.27,1.8 0,0.97 -0.99,1.84 -2.35,1.84 h -3.51 v -0.3 h 0.24 c 0.76,0 0.78,-0.11 0.78,-0.47 v -5.24 c 0,-0.35 -0.02,-0.46 -0.78,-0.46 h -0.24 v -0.31 c 0.35,0.03 1.08,0.03 1.46,0.03 0.38,0 1.12,0 1.47,-0.03 v 0.31 h -0.24 c -0.76,0 -0.78,0.11 -0.78,0.46 z"
         id="path4666"
         inkscape:connector-curvature="0"
         style="fill:#1a1a1a;stroke-width:0" /><path
         d="m 256.78,600.76 v 1.09 l -1.38,-0.11 v -0.31 c 0.7,0 0.77,-0.07 0.77,-0.55 v -2.66 c 0,-0.45 -0.1,-0.45 -0.77,-0.45 v -0.31 c 0.39,0.01 0.85,0.03 1.13,0.03 0.4,0 0.87,0 1.27,-0.03 v 0.31 h -0.21 c -0.74,0 -0.76,0.11 -0.76,0.46 v 1.54 c 0,0.98 0.42,1.86 1.18,1.86 0.07,0 0.08,0 0.1,-0.01 -0.03,-0.01 -0.22,-0.13 -0.22,-0.39 0,-0.27 0.2,-0.42 0.42,-0.42 0.18,0 0.43,0.12 0.43,0.43 0,0.32 -0.31,0.61 -0.73,0.61 -0.73,0 -1.09,-0.67 -1.23,-1.09 z"
         id="path4668"
         inkscape:connector-curvature="0"
         style="fill:#1a1a1a;stroke-width:0" /><path
         d="m 263.71,599.59 0,0.11 -0.01,0.12 -0.02,0.12 -0.02,0.11 -0.02,0.11 -0.03,0.11 -0.04,0.11 -0.04,0.11 -0.04,0.1 -0.05,0.1 -0.05,0.1 -0.06,0.09 -0.06,0.09 -0.07,0.09 -0.07,0.08 -0.07,0.08 -0.08,0.08 -0.08,0.08 -0.08,0.06 -0.09,0.07 -0.09,0.06 -0.09,0.06 -0.09,0.05 -0.1,0.05 -0.1,0.04 -0.1,0.03 -0.1,0.04 -0.11,0.02 -0.11,0.02 -0.11,0.02 -0.11,0.01 -0.11,0 -0.01,-0.22 c 0.44,0 0.86,-0.22 1.12,-0.64 0.26,-0.43 0.26,-1.01 0.26,-1.39 0,-0.35 0,-0.89 -0.22,-1.33 -0.21,-0.44 -0.65,-0.73 -1.15,-0.73 h 0 c -0.43,0 -0.87,0.21 -1.13,0.67 -0.25,0.43 -0.25,1.04 -0.25,1.39 0,0.39 0,0.93 0.23,1.37 0.27,0.45 0.74,0.66 1.14,0.66 l 0.01,0.22 c -1.24,0 -2.21,-1.08 -2.21,-2.32 0,-1.29 1.03,-2.24 2.2,-2.24 1.2,0 2.21,0.97 2.21,2.24 z"
         id="path4670"
         inkscape:connector-curvature="0"
         style="fill:#1a1a1a;stroke-width:0" /><path
         d="m 267.29,601.43 0.02,0 0.02,0 0.02,0 0.02,0 0.02,0 0.02,0 0.03,0 0.03,-0.01 0.04,0 0.02,-0.01 0.03,0 0.03,-0.01 0.02,-0.01 0.02,-0.01 0.02,-0.01 0.02,-0.01 0.02,-0.01 0.02,-0.02 0.01,-0.01 0.02,-0.02 0.01,-0.02 0.01,-0.01 0.01,-0.02 0.01,-0.03 0,-0.02 0.01,-0.02 0.01,-0.03 0,-0.02 0,-0.03 0.01,-0.03 0,-0.03 0,-0.04 0,-0.03 0,-0.04 0,-0.03 v -2.68 c 0,-0.45 -0.11,-0.45 -0.77,-0.45 v -0.31 c 0.33,0.01 0.85,0.03 1.1,0.03 0.25,0 0.74,-0.02 1.11,-0.03 v 0.31 c -0.67,0 -0.78,0 -0.78,0.45 v 3.64 l -1.25,-0.09 c -0.16,-0.01 -0.17,-0.02 -0.18,-0.02 -0.02,-0.01 -0.04,-0.01 -0.18,-0.01 h -1.18 v 1.12 c 0,0.99 0.86,1.38 1.48,1.38 0.3,0 0.65,-0.09 0.85,-0.32 -0.4,-0.02 -0.46,-0.3 -0.46,-0.46 0,-0.33 0.25,-0.46 0.44,-0.46 0.23,0 0.46,0.16 0.46,0.46 0,0.59 -0.55,1 -1.28,1 -0.93,0 -2.11,-0.5 -2.11,-1.59 v -1.13 h -0.79 v -0.31 h 0.79 v -3.21 c 0,-0.45 -0.11,-0.45 -0.78,-0.45 v -0.31 c 0.33,0.01 0.86,0.03 1.11,0.03 0.25,0 0.73,-0.02 1.1,-0.03 v 0.31 c -0.67,0 -0.78,0 -0.78,0.45 v 3.21 z"
         id="path4672"
         inkscape:connector-curvature="0"
         style="fill:#1a1a1a;stroke-width:0" /><path
         d="m 271.26,601.43 h 1.42 v 0.31 h -1.42 v 1.83 h -0.25 c -0.01,-0.81 -0.31,-1.88 -1.28,-1.92 v -0.22 h 0.84 v -2.74 c 0,-1.22 0.93,-1.34 1.29,-1.34 0.7,0 0.98,0.71 0.98,1.34 v 0.57 h -0.25 v -0.55 c 0,-0.73 -0.3,-1.11 -0.66,-1.11 -0.67,0 -0.67,0.9 -0.67,1.07 z"
         id="path4674"
         inkscape:connector-curvature="0"
         style="fill:#1a1a1a;stroke-width:0" /><path
         d="m 274.93,599.54 0.39,4.53 c 0,0.32 -0.27,0.5 -0.52,0.5 -0.26,0 -0.53,-0.18 -0.53,-0.5 l 0.39,-4.52 c 0.01,-0.15 0.02,-0.23 0.14,-0.23 0.09,0 0.12,0.05 0.13,0.22 z"
         id="path4676"
         inkscape:connector-curvature="0"
         style="fill:#1a1a1a;stroke-width:0" /><path
         d="m 275.32,597.99 0,0.02 0,0.03 0,0.03 -0.01,0.02 0,0.03 -0.01,0.02 -0.01,0.03 -0.01,0.02 -0.01,0.02 -0.01,0.03 -0.01,0.02 -0.02,0.02 -0.01,0.02 -0.02,0.02 -0.01,0.02 -0.02,0.02 -0.02,0.02 -0.02,0.01 -0.02,0.02 -0.02,0.01 -0.02,0.02 -0.02,0.01 -0.03,0.01 -0.02,0.01 -0.02,0.01 -0.03,0.01 -0.02,0.01 -0.03,0 -0.02,0.01 -0.03,0 -0.03,0 -0.02,0 c -0.29,0 -0.53,-0.23 -0.53,-0.52 0,-0.29 0.24,-0.53 0.53,-0.53 0.28,0 0.52,0.24 0.52,0.53 z"
         id="path4678"
         inkscape:connector-curvature="0"
         style="fill:#1a1a1a;stroke-width:0" /><path
         d="m 277.7,599.54 0.39,4.53 c 0,0.32 -0.27,0.5 -0.53,0.5 -0.26,0 -0.52,-0.18 -0.52,-0.5 l 0.38,-4.52 c 0.01,-0.15 0.02,-0.23 0.14,-0.23 0.1,0 0.13,0.05 0.14,0.22 z"
         id="path4680"
         inkscape:connector-curvature="0"
         style="fill:#1a1a1a;stroke-width:0" /><path
         d="m 278.09,597.99 0,0.02 0,0.03 -0.01,0.03 0,0.02 -0.01,0.03 0,0.02 -0.01,0.03 -0.01,0.02 -0.01,0.02 -0.01,0.03 -0.02,0.02 -0.01,0.02 -0.01,0.02 -0.02,0.02 -0.02,0.02 -0.01,0.02 -0.02,0.02 -0.02,0.01 -0.02,0.02 -0.02,0.01 -0.02,0.02 -0.03,0.01 -0.02,0.01 -0.02,0.01 -0.03,0.01 -0.02,0.01 -0.03,0.01 -0.02,0 -0.03,0.01 -0.02,0 -0.03,0 -0.03,0 c -0.29,0 -0.52,-0.23 -0.52,-0.52 0,-0.29 0.23,-0.53 0.52,-0.53 0.29,0 0.53,0.24 0.53,0.53 z"
         id="path4682"
         inkscape:connector-curvature="0"
         style="fill:#1a1a1a;stroke-width:0" /><path
         d="m 280.47,599.54 0.39,4.53 c 0,0.32 -0.27,0.5 -0.53,0.5 -0.26,0 -0.53,-0.18 -0.53,-0.5 l 0.39,-4.52 c 0.01,-0.15 0.02,-0.23 0.14,-0.23 0.1,0 0.13,0.05 0.14,0.22 z"
         id="path4684"
         inkscape:connector-curvature="0"
         style="fill:#1a1a1a;stroke-width:0" /><path
         d="m 280.86,597.99 0,0.02 0,0.03 -0.01,0.03 0,0.02 -0.01,0.03 -0.01,0.02 0,0.03 -0.01,0.02 -0.01,0.02 -0.02,0.03 -0.01,0.02 -0.01,0.02 -0.02,0.02 -0.01,0.02 -0.02,0.02 -0.02,0.02 -0.02,0.02 -0.01,0.01 -0.02,0.02 -0.03,0.01 -0.02,0.02 -0.02,0.01 -0.02,0.01 -0.02,0.01 -0.03,0.01 -0.02,0.01 -0.03,0.01 -0.02,0 -0.03,0.01 -0.03,0 -0.02,0 -0.03,0 c -0.29,0 -0.53,-0.23 -0.53,-0.52 0,-0.29 0.24,-0.53 0.53,-0.53 0.29,0 0.53,0.24 0.53,0.53 z"
         id="path4686"
         inkscape:connector-curvature="0"
         style="fill:#1a1a1a;stroke-width:0" /></g>  </g>
</svg>
